<svg version="1.2" xmlns="http://www.w3.org/2000/svg" viewBox="0 0 7725 5079" width="772" height="508">
	<style>
		.s0 { fill: #000000 } 
	</style>
	<path id="Path 0" fill-rule="evenodd" class="s0" d="m236.66 12.25c-0.36 12.79-0.65 55.97-0.63 83.75l0.02 50.5-236.06 130v314c172.31 99.98 232.93 129.45 233.67 130 1.09 0.82 1.34 13.53 1.36 69.5 0.02 37.67-0.27 98.2-0.63 134.5l-0.67 66-233.72 129.5 0.5 314.49 232.42 130.01c-0.15 166.63-0.46 227.32-0.8 242.38l-0.62 27.38-231 129.24-0.56 314 231.56 131c-0.77 207.96-1.38 268.71-1.85 269.17-0.46 0.46-51.09 29.67-112.5 64.93l-116.65 64.1c-0.98 19.22-0.31 90.05-0.36 169.8l-0.1 145 228.46 130.12 0.51 269.88c-4.27 1.97-55.01 30.99-115.51 65.77l-113 63.23c-1.14 51.15-0.37 121.99-0.24 190.41l0.24 124.41 226.46 130.18c0.04 109.35 0.31 122.59 1.29 122.92 1 0.34 1 0.44 0 0.5-0.99 0.06-1.25 15.39-1.25 73.08v73l-226.71 129.5c-1 93.77-0.31 164.43-0.33 217.5l-0.05 96.5 225.16 131-0.07 132.5h31l0.04-132.5c214.91-123.17 226.18-129.39 228.21-128.34 1.24 0.63 51.53 29.72 111.75 64.63 60.23 34.91 109.84 63.75 110.25 64.09 0.41 0.34 0.75 28.18 0.75 61.87v71.25h31l0.5-132.36 225.5-129.64 225.5 130.72-0.5 132.28h31c0-95.32 0.34-132.99 0.75-132.97 0.41 0.02 51.38-29.01 113.25-64.5l112.5-64.53c171.28 99.43 222.08 128.79 223.4 129.4l2.4 1.1-0.8 133 30.5 0.5c0.04-51.54 0.32-89.32 0.64-105 0.32-15.68 0.65-28.57 0.72-28.65 0.08-0.09 49.86-28.71 110.64-63.6 60.78-34.89 111.4-63.94 112.5-64.55 1.73-0.95 17.08 7.66 114.5 64.26l112.5 65.35 0.5 133.19 29.5 0.01c1.19-36.05 1.53-73.61 1.51-94.51-0.02-29.34 0.26-38.26 1.23-39.12 0.69-0.62 50.54-29.38 110.76-63.92 60.22-34.54 110.4-63.36 111.5-64.06 1.79-1.13 13.64 5.5 114.5 64.04l112.5 65.3 0.5 133.26 30.5-0.5 1-132.91c102.3-58.75 152.93-87.85 178.5-102.57l46.5-26.77 225 130.44 0.5 133.31 30.5-0.5 1-132.59c172.82-99.25 223.45-128.43 224-128.87 0.57-0.46 49.37 27.28 113.5 64.51l112.5 65.32 0.5 133.13h31l-0.08-132.5c174.82-100.46 226.09-129.49 226.7-129.31 0.62 0.17 51.47 29.53 113 65.24l111.88 64.93-0.5 132.64h31l-0.06-132.5c173.86-99.98 224.83-129.14 225.45-129.32 0.61-0.18 51.64 29.07 113.4 65l112.29 65.32-0.08 132.5h31l0.05-132.5c171.41-98.43 222.36-127.59 223.81-128.31 2.53-1.25 6.54 0.95 97.64 53.85 52.25 30.34 102.88 59.71 112.5 65.27l17.5 10.11-0.5 132.58h31l0.08-132.5c174.36-99.98 225.55-129 226.26-129 0.7 0 51.78 29.25 113.52 65l112.25 65-1.61 132.5h31.5c0-62.39 0.28-99.95 0.62-111.5l0.62-21c169.73-97.65 220.41-126.76 222.13-127.69l3.13-1.69 225 130.46v132.42h30c1.2-54.64 1.54-92.2 1.53-106.5-0.01-14.3 0.09-26.06 0.22-26.13 0.14-0.08 50.65-29.07 112.25-64.43 61.6-35.36 112.45-64.3 113-64.32 0.55-0.01 50.73 28.84 111.5 64.1 60.77 35.26 111.29 64.37 112.25 64.69 1.64 0.55 1.75 4.41 1.75 62.09v71.5h31l0.04-132.5 225.46-129.5 225.42 130.5 0.08 133.5 30.5-0.5c0.45-118.01 0.58-132.08 2.23-133.29 0.97-0.71 51.7-29.96 112.73-65 61.03-35.04 111.43-63.55 112-63.36 0.57 0.19 50.77 29.17 111.54 64.4 60.77 35.24 111.06 64.56 111.75 65.16 0.99 0.85 1.26 14.46 1.25 62.34v71.25h31l0.5-133.27c173.1-99.38 235.79-128.68 236.32-129.23 0.6-0.63 0.09-59.27 0.32-157.3 0.24-103.36 0.02-156.63-0.64-157.27-0.55-0.53-62.33-30.1-123.85-65.7l-111.85-64.73c0.93-93 1.2-153.64 1.2-194.75v-74.75c172.36-98.81 233.19-128.18 234.16-129 1.66-1.42 1.77-9.95 1.95-158l0.19-156.5c-5.27-3.21-66.03-32.69-126.2-67.57l-109.39-63.43c0.99-134.85 1.28-195.38 1.27-221.5l-0.01-47.5c173.23-99.47 231.08-128.94 231.74-129.67 0.94-1.03 1.26-35.6 1.41-151.83 0.11-82.78 0.24-153.14 0.29-156.36l0.09-5.86-232-130.57c-0.77-114.09-0.66-147.21-0.25-147.21 0.41 0 0.86-27.55 1-61.21l0.25-61.22 230-129.2v-314.65l-229.65-130.22 0.65-269.16c170.5-97.91 224.46-127.23 226.25-128.34l3.25-2 0.06-313.5-228.06-130.5c0-136.01 0.34-196.77 0.75-222.76l0.75-47.26c166.63-95.6 217.36-124.84 220.25-126.67l6.25-3.31-0.04-313.5-225.46-130.15-0.5-167.35-30.5 0.5-1 166.59c-166.62 95.74-217.33 124.86-220.19 126.47l-5.19 2.94c-6.68-3.77-55.64-32.18-113.12-65.55-57.48-33.38-106.19-61.65-108.25-62.82l-3.75-2.13v-167h-31l0.08 166.5c-173.83 99.98-224.81 129.14-225.44 129.31-0.63 0.18-51.54-28.91-113.14-64.63l-112-64.95-0.5-167.23h-31l0.04 166.5c-168.59 96.78-219.56 126.11-222.04 127.61-4.39 2.67-4.56 2.7-7 0.95-1.37-0.98-48.85-28.68-105.5-61.56-56.65-32.88-106.04-61.52-109.75-63.64l-6.75-3.86v-167h-31l-0.06 166.5c-145.98 83.7-196.97 112.95-207.49 119-18.82 10.83-19.15 10.97-21.53 9.31-1.33-0.93-41.12-24.13-88.42-51.55-47.3-27.42-96.85-56.14-110.11-63.81l-24.11-13.95 1.22-166.5h-31.5l-0.06 166.5c-12.74 7.06-57.84 32.88-108.44 61.93-50.6 29.05-97.85 56.19-105 60.32l-13 7.49c-4.85-2.9-55.63-32.31-115.98-67.24l-109.72-63.5 1.2-166.5h-31c0 80.99-0.34 134.08-0.75 145.78l-0.75 21.28c-170.5 97.85-221.12 127.04-222.5 128-2.38 1.67-2.62 1.67-5-0.02-1.37-0.97-51.32-30.14-111-64.82-59.68-34.69-109.33-63.44-110.35-63.89-1.79-0.8-1.84-3.55-1.5-74.08l0.35-83.25h-30c-1.16 79.44-1.51 122.4-1.51 134.5l-0.01 22c-11.22 6.45-61.96 35.59-119.98 68.91l-105.5 60.58c-8.75-5.03-59.47-34.39-118.36-68.49l-107.06-62-0.08-156.5-29.5-0.01c-1.16 17.45-1.5 60.41-1.52 94.51l-0.02 62-225.46 129.5-225.43-130.5-0.07-157.5-30.5 0.5-1 156.97c-37.2 21.27-87.82 50.36-136.5 78.36l-88.5 50.92c-6.97-3.73-57.6-33.05-117-67.57l-108-62.75-0.5-157.43-30.5 0.5-1 156.76c-173.6 99.75-224.68 128.7-225.5 128.69-0.82 0-51.68-29.14-113-64.75l-111.5-64.74-0.5-157.46h-31l-0.5 157.18c-167.4 96.11-218.25 125.32-221 126.91-3 1.74-5.4 2.54-6 2.02-0.55-0.49-49.82-29.24-109.5-63.9-59.68-34.65-109.75-63.61-111.28-64.36l-2.78-1.35 0.06-157.5h-31l0.03 156.5-226.53 130.11c-13.17-7.9-63.8-37.34-121-70.51l-104-60.32 0.5-156.78h-31l-0.05 156.5c-15.07 8.74-62.42 35.91-114.95 66.02-52.53 30.1-99.1 56.87-103.5 59.48-7.84 4.65-8.05 4.71-10.5 3.04-1.37-0.94-52.16-30.47-112.85-65.63l-110.35-63.91 1.7-156.5h-31.5c-0.01 98.81-0.35 141.91-0.76 147.29l-0.74 9.8c-170.5 97.82-221.24 127.05-222.75 128.07-1.51 1.01-2.93 1.5-3.15 1.09-0.22-0.41-50.88-30-112.58-65.75l-112.18-65 0.66-156.5h-30.5c0 39.14-0.34 82.25-0.75 108.84l-0.75 48.33c-17.05 9.66-67.56 38.65-123.25 70.65-55.69 32-101.47 58.18-101.75 58.18-0.27 0-49.89-28.65-110.25-63.67-60.36-35.03-110.98-64.39-112.49-65.25l-2.75-1.58 0.02-156c-8.16-1.15-14.85-1.49-20.12-1.49l-9.6-0.01zm-88.26 220.1c75.04-43.12 103.35-58.92 104.51-58.32 0.88 0.46 51.54 29.83 223.59 129.71l0.32 59.38c0.17 32.66-0.05 91.45-1.32 201.92l-8.5 4.88c-4.67 2.68-51.47 29.5-104 59.61-52.52 30.11-99.21 56.93-103.75 59.61-4.53 2.67-8.47 4.86-8.75 4.86-0.27 0-49.88-28.65-110.25-63.67-60.36-35.02-110.98-64.38-115.23-66.83l0.13-78.5c0.08-43.18 0.41-101.89 1.35-182.46l9.49-5.52c5.22-3.04 55.8-32.14 112.41-64.67zm585.1-58.11l3.5 2c1.93 1.09 48.95 28.34 104.5 60.54 55.55 32.21 101.57 58.59 102.25 58.64 0.69 0.04 1.25 0.42 1.25 0.83 0 0.41 3.15 2.55 14 8.75v117.75c0 64.76-0.34 123.52-1.5 143.38l-7 4.05c-3.85 2.22-54.47 31.29-218 125.12l-5.12-2.9c-2.81-1.59-53.59-31.03-220.54-127.9l0.68-130c0.38-71.5 0.98-130.33 1.33-130.73 0.36-0.39 51.05-29.7 112.65-65.12zm442.37 24.05c21.25-12.22 39.08-22.24 39.63-22.28 0.55-0.04 51.4 29.16 225 129.84l0.46 260.64-9.73 5.64c-5.35 3.1-54.28 31.2-108.73 62.45-54.45 31.24-101.02 57.92-108 61.73l-225.26-130.82 0.26-260.11 73.87-42.44c40.63-23.35 91.25-52.44 112.5-64.65zm408.35 43.53c61.75-35.57 112.85-64.71 113.53-64.75 0.69-0.04 12.64 6.56 26.56 14.67 13.92 8.12 64.43 37.43 199.19 115.55l-0.46 260.2-34.27 19.7c-18.85 10.84-69.82 40.14-192.27 110.53l-5-3.18c-2.75-1.75-53.54-31.27-220.74-128.05l0.62-14c0.34-7.7 0.6-66.2 0.55-246zm595.85-64.49l4.72 2.82c2.59 1.56 53.03 30.96 219.44 127.85l0.28 261.17-111.5 64.03c-61.33 35.22-112.18 64.27-113 64.55-0.85 0.29-50.38-27.84-226.5-129.98l0.5-260.77 3.25-1.64c1.78-0.9 48.47-27.62 103.75-59.37 55.27-31.75 104.67-60.18 109.78-63.19zm368.71 66.45c62-35.6 113.06-64.73 113.47-64.75 0.42-0.02 10.54 5.65 22.5 12.6 11.97 6.94 57.98 33.67 102.25 59.39 44.28 25.71 82.53 47.93 85 49.37 2.48 1.43 7.14 4.07 16.22 9.11l-0.61 15.5c-0.33 8.52-0.6 67.13-0.61 245l-3.25 1.87c-1.78 1.03-52.41 30.05-112.5 64.5-60.08 34.44-109.7 62.63-110.25 62.63-0.55 0-39.58-22.35-86.75-49.66-47.16-27.31-97.45-56.46-137.75-79.89l-0.45-260.95zm489.73-3.2c57.75-33.26 105.49-60.38 106.1-60.28 0.61 0.11 51.54 29.44 225.25 130.19l-0.55 130c-0.39 94.61-0.85 130.3-1.67 131.09-0.62 0.61-30.83 18.13-67.13 38.94-36.3 20.81-86.59 49.68-157.5 90.47l-31.75-18.49c-17.46-10.17-67.98-39.55-192.75-112.08l-0.51-260.93 7.76-4.22c4.26-2.33 55-31.44 112.75-64.69zm475 4.94c61.6-35.42 112.22-64.44 112.5-64.49 0.27-0.05 7.75 4.08 16.61 9.18 8.86 5.11 59.62 34.48 209.47 121.28l-0.65 130.5c-0.36 71.78-0.72 130.54-0.8 130.59-0.07 0.05-50.87 29.19-225.63 129.41l-224.5-130.62-0.25-118.94c-0.14-65.41 0.08-124.24 1.25-142.51zm582.86-56.64c10.18-5.82 12.16-6.63 14-5.68 1.18 0.61 51.19 29.57 111.14 64.36 59.95 34.8 109.79 63.53 110.75 63.85 1.64 0.55 1.75 4.82 1.75 70.83 0 38.64-0.34 97.57-1.5 191.64l-7.5 4.25c-4.13 2.34-54.75 31.38-217.5 124.85l-5.65-3.24c-3.1-1.79-53.83-31.15-219.78-127.25l-0.03-68.5c-0.02-37.67 0.25-96.4 1.23-192.5l2.61-1.58c1.44-0.87 46.72-26.93 100.62-57.91 53.9-30.98 103.34-59.38 109.86-63.12zm381.51 58.89c61.94-35.6 112.88-64.62 113.2-64.5 0.31 0.12 47.33 27.41 104.5 60.64 57.16 33.23 104.45 60.46 105.08 60.5 0.64 0.05 1.01 0.31 0.84 0.58-0.18 0.28 3.02 2.3 14.51 8.5v109.5c0 60.23-0.34 119.04-1.5 151.87l-6.5 3.76c-3.58 2.07-54.2 31.14-218.5 125.44l-20-11.52c-11-6.34-61.63-35.72-205-119.07l-0.34-7.49c-0.18-4.12-0.02-62.84 1.07-253.49zm589.07-60.27c4.9-2.9 5.69-3.09 8-1.92 1.41 0.71 52.07 30.04 222.57 129.04l0.5 8.94c0.27 4.92 0.27 63.59-0.5 251.83l-8.5 4.92c-4.68 2.7-49.68 28.55-100 57.43-50.33 28.88-97.24 55.83-104.25 59.88-7.02 4.06-13.13 7.27-13.59 7.13-0.47-0.14-51.29-29.5-225.03-130.25l0.55-130c0.41-94.63 0.86-130.31 1.69-131.12 0.62-0.62 48.83-28.47 107.13-61.9 58.3-33.42 108.44-62.22 111.43-63.98zm487.57-2.2l4 2.16c2.2 1.19 52.37 30.21 111.5 64.48 59.12 34.28 108.08 62.82 108.79 63.44 1.05 0.91 1.28 25.92 1.18 261.12l-30.24 17.26c-16.63 9.49-67.58 38.78-113.23 65.08-68.64 39.55-83.26 47.62-84.5 46.62-0.83-0.67-51.45-30.14-112.5-65.5-61.05-35.35-111.02-64.31-111.05-64.37-0.02-0.05 0.21-58.76 1.05-260.86l112.5-64.71zm482.32 0.94l224.68 130.52 0.54 260.74-78.27 44.95c-43.05 24.72-93.8 53.88-112.77 64.78-18.98 10.91-35.02 19.7-35.66 19.55-0.64-0.16-51.49-29.52-224.84-130.23l0.21-260.37 96.39-55.25c53.02-30.39 103.89-59.62 113.06-64.97zm368.41 66.59c61.74-35.57 113.02-64.6 113.95-64.5 0.93 0.09 52.16 29.42 225.97 130.17l-0.57 3.5c-0.31 1.92-0.55 60.42-0.5 256.5l-8.79 5.14c-4.84 2.82-55.48 31.96-112.55 64.75-57.06 32.78-104.08 59.62-104.5 59.64-0.41 0.02-47.1-26.82-103.75-59.63-56.65-32.81-107.27-62.19-122-70.9l0.47-260zm591.17-61.56c4.73-2.87 5-2.92 7.5-1.3 1.43 0.92 52.17 30.44 222.9 129.53l-0.3 260-8 4.64c-4.4 2.55-53.68 30.84-109.5 62.86-55.83 32.02-103.08 59.25-108.5 62.81l-226-131.17 0.46-260.14 4.27-2.43c2.35-1.33 51.07-29.29 108.27-62.12 57.2-32.84 106.2-61.05 108.9-62.68zm374.1 63.28c61.6-35.44 112.34-64.46 112.75-64.49 0.41-0.04 3.79 1.68 7.5 3.81 3.71 2.13 49.72 28.82 102.25 59.31 52.52 30.49 100.14 58.11 116.14 67.32l-0.66 130c-0.61 119.43-0.8 130.11-2.32 131.33-0.92 0.74-50.71 29.49-110.66 63.89-59.95 34.4-110.13 63-111.5 63.54-2.25 0.9-13.88-5.61-226.5-129.1l-0.25-129.08c-0.14-71 0.09-129.76 0.5-130.59 0.41-0.84 51.15-30.51 112.75-65.94zm-6991.07 401.12c106.72-61.38 112.06-64.32 114.5-63.08 1.41 0.72 52.07 30.07 222.57 129.1l0.31 91.91c0.17 50.54 0.01 111.25-1.01 177.9l-6.15 3.56c-3.38 1.96-52.28 30.06-108.65 62.43-56.38 32.37-104.3 59.89-110.5 63.41l-225.47-130.4 0.23-73.25c0.16-48.29-0.1-73.28-0.76-73.33-0.55-0.04-0.44-0.27 0.25-0.5 0.98-0.33 1.25-13.46 1.25-61.17 0-33.41 0.34-61.08 0.75-61.48 0.41-0.4 51.12-29.7 112.68-65.1zm483.44 0.24c97.68-56.2 110.8-63.47 112.73-62.5 1.2 0.6 52.07 30.1 223.9 130.02l-0.25 134.78c-0.14 74.13-0.59 134.77-1 134.76-0.41-0.02-51.38 29-225.75 129.02l-4-2.37c-2.2-1.3-51.93-30.16-110.5-64.14-58.58-33.98-107.51-62.27-110.97-63.98l0.59-134.5c0.59-134.25 0.59-134.5 2.65-136 1.13-0.83 51.8-30.12 112.6-65.09zm479.34 2.91c61.76-35.57 112.85-64.71 113.54-64.75 0.69-0.04 51.54 29.13 224.75 129.72l0.44 269.71-113.22 64.86c-85.26 48.84-113.59 64.62-114.72 63.9-0.83-0.52-48.75-28.4-106.5-61.94-57.75-33.55-107.87-62.53-117.73-67.82l0.61-26c0.34-14.3 0.6-74.83 0.54-243zm482.01 0.99c61.75-35.57 113.04-64.6 113.97-64.5 0.93 0.1 52 29.39 225.31 129.99l-0.55 269.2-72.73 41.72c-40 22.95-91.04 52.2-113.42 65-22.39 12.8-40.84 23.03-41 22.72-0.17-0.3-50.59-29.66-223.8-129.94l-0.06-269.5zm482.55 0.96c64.49-37.02 113.37-64.5 114.23-64.2 0.82 0.29 51.77 29.64 224.92 129.92l-0.45 9.5c-0.24 5.22-0.46 65.75-0.51 259.5l-8.23 4.77c-4.53 2.63-55.48 31.92-113.23 65.1-57.75 33.17-105.23 60.02-105.5 59.66-0.28-0.36-5.23-3.35-11-6.64-5.78-3.3-56.08-32.52-213.08-123.89l0.13-269zm482.01 1c61.99-35.59 113.21-64.61 113.82-64.5 0.6 0.12 51.57 29.47 225.42 130.22l-0.57 61.5c-0.31 33.82-0.54 94.46-0.46 208l-112.5 64.5c-61.87 35.47-112.83 64.51-113.25 64.53-0.41 0.02-51.15-29.19-224.75-129.87l-0.43-269.66zm482.72 0.74c61.6-35.42 112.34-64.43 112.75-64.46 0.41-0.04 50.36 28.79 111 64.07 60.64 35.27 111.34 64.63 115.08 66.36l-0.66 80c-0.37 44-0.67 104.64-0.67 189.5l-7.75 4.41c-4.26 2.43-54.55 31.3-111.75 64.17-57.2 32.86-104.68 59.91-105.5 60.12-0.83 0.2-51.9-28.86-225.5-129.54l-0.2-129.83c-0.1-71.41 0.12-132.21 1.2-140.4zm593.9-63.74c0.4-0.4 1.26-0.25 1.91 0.33 0.66 0.59 51.25 30.23 223.68 130.68l0.49 68.35c0.26 37.59 0.15 98.27-0.98 201.31l-111 63.81c-61.05 35.09-111.68 64.2-112.5 64.68-1.09 0.64-32.02-16.83-226.5-129.67l-0.32-59.89c-0.17-32.94-0.01-93.64 1.02-209.89l111.74-64.49c61.45-35.46 112.06-64.81 112.46-65.22zm370.47 65.99c61.94-35.6 112.89-64.63 113.22-64.5 0.32 0.12 50.94 29.44 112.5 65.14 61.55 35.7 112.01 64.95 112.13 65 0.12 0.05 0.24 45.53 0.27 101.08 0.02 55.55-0.26 116.3-1.3 169l-8.09 4.64c-4.46 2.55-53.33 30.61-108.6 62.35-55.28 31.74-102.3 58.74-108.5 62.3l-7.5-4.37c-4.13-2.4-54.75-31.76-217.5-126.16l-0.33-11.88c-0.18-6.53-0.02-67.23 1.06-257.88zm482.08 1.21c106.78-61.41 112.58-64.61 115-63.38 1.41 0.7 52.06 30.03 222.56 129.03l0.5 61.43c0.27 33.79 0.38 94.63 0.25 135.19-0.24 69.32-0.36 73.77-2 74.1-0.97 0.2-51.7 29.06-112.75 64.15-61.05 35.08-111.45 63.78-112 63.77-0.55-0.01-51.4-29.3-225-130.14l0.25-73.06c0.19-57.92-0.01-73.07-1-73.09-0.98-0.01-0.99-0.17-0.03-0.75 0.94-0.56 1.29-14.94 1.78-122.57zm594.47-63.64l3.54 1.79c1.95 0.98 52.59 30.28 221.54 128.41l0.5 8.97c0.27 4.94 0.38 65.68-0.03 260.98l-2.24 1.05c-1.23 0.58-51.96 29.58-112.73 64.44-60.78 34.86-110.95 63.37-111.5 63.35-0.55-0.02-49.6-28.29-109-62.81-59.4-34.53-109.89-63.73-116.41-67.03l0.7-72.78c0.62-64.13 0.53-72.9-0.79-73.74q-1.5-0.94-0.25-0.96c0.98-0.01 1.24-12.82 1.18-121.52l2.22-1.5c1.22-0.82 51.96-30.11 112.75-65.07zm482.39 0.89l225.08 130.26 0.16 270-2.28 1.11c-1.25 0.6-52.11 29.74-223.78 128.39l-225.01-130.5 0.51-269.72 112.66-64.77zm368.42 66.59c61.74-35.57 113.04-64.6 114-64.5 0.95 0.09 52.02 29.36 225.27 129.92l-0.21 9.12c-0.12 5.02-0.24 65.6-0.32 260.13l-94.19 54c-51.81 29.7-102.86 58.95-113.44 65-10.58 6.05-19.37 10.73-19.54 10.41-0.17-0.33-50.59-29.8-223.81-130.41l-0.03-269zm482.92 0.57c113.04-65.02 113.16-65.09 115.75-63.43 1.43 0.92 52.27 30.44 223.36 129.53l-0.63 31.5c-0.35 17.32-0.63 77.85-0.62 237.5l-74.76 42.93c-41.11 23.62-91.85 52.81-150.75 86.81l-225.56-130.74 0.04-269zm481.61 1.35c62.01-35.61 113.19-64.74 113.74-64.72 0.55 0.01 51.56 29.37 225.71 130.46l-0.6 69.5c-0.33 38.23-0.6 98.75-0.58 199.5l-6.26 3.67c-3.45 2.02-54.19 31.22-219.27 126.08l-5-2.74c-2.75-1.5-53.49-30.92-220.54-128.01l0.06-269zm-6888.38 351.04c5.57-3.14 10.38-5.61 10.7-5.5 0.32 0.11 51.04 29.46 224.84 130.21l0.04 103c0.02 56.65-0.25 115.37-1.22 158l-106.99 61.5c-58.85 33.82-109.53 62.94-118.25 67.92l-112-64.91c-61.6-35.7-112.39-65.49-112.86-66.21-0.48-0.72-0.55-58.84 0.55-260.3l102.54-59c56.39-32.45 107.08-61.57 112.65-64.71zm379.53 60c61.93-35.59 112.86-64.62 113.2-64.5 0.33 0.11 51.06 29.46 224.86 130.21l0.03 260.5-6.75 3.9c-3.71 2.15-54.56 31.4-219.25 126.1l-111.75-64.64c-61.46-35.55-112.31-65.14-113-65.75-0.99-0.88-1.11-27.75 0.08-261.11zm588.08-59.79c3.58-2.16 6.95-3.76 7.5-3.56 0.55 0.21 51.18 29.57 224 130.11l0.5 8.98c0.28 4.93 0.28 63.61-0.5 251.83l-5 2.96c-2.75 1.63-53.6 30.82-221 126.79l-13-7.55c-7.15-4.15-57.73-33.54-211.8-123.06l0.22-130.5c0.12-71.78 0.52-130.61 0.9-130.75 0.38-0.13 47.48-27.11 104.68-59.94 57.2-32.84 104.11-60.07 104.25-60.51 0.14-0.44 0.81-0.82 1.5-0.84 0.69-0.02 4.18-1.8 7.75-3.96zm375.5 62.42c61.6-35.4 112.68-64.36 113.5-64.36 0.83 0 51.77 29.12 224.93 129.44l0.01 261-113.22 65.05c-70.7 40.63-113.59 64.72-114.22 64.15-0.55-0.5-50.95-29.86-223-129.6v-261.32zm539.34-31.75c51.69-29.77 56.52-32.34 58.5-31.14 1.19 0.72 51.21 29.76 111.16 64.54 59.95 34.77 109.68 63.41 110.5 63.63 1.22 0.33 1.46 2.2 1.28 10.1-0.12 5.34-0.23 64.15-0.26 251.7l-9.76 5.64c-5.37 3.1-55.21 31.74-110.76 63.65-55.55 31.9-102.12 58.53-103.5 59.17-2.32 1.08-10.69-3.59-227.5-129.46l0.01-260.31 57-32.54c31.34-17.9 82.35-47.14 113.33-64.98zm424.81 34.06c62.07-35.61 113.3-64.73 113.85-64.71 0.55 0.01 2.8 1.08 5 2.36 2.2 1.29 49.11 28.5 104.25 60.48 61.57 35.71 100.73 57.85 101.49 57.39q1.24-0.74 0.5 0.5c-0.5 0.86 1.7 2.6 14.64 9.75l-0.69 41c-0.38 22.55-0.67 81.05-0.61 219l-112.23 64.5c-61.73 35.48-112.94 64.5-113.81 64.5-0.86 0-51.86-29.25-225.1-130l-0.14-260.03zm595.37-64.24l21.74 12.52c11.96 6.89 62.83 36.37 204.37 118.49l-0.63 260.28-9.5 5.34c-5.22 2.94-56.09 32.13-216.58 124.38l-113.09-65.5c-62.2-36.02-112.95-65.72-112.77-66 0.17-0.27 0.31-58.81 0.29-259.67l105.29-60.41c57.92-33.23 108.81-62.45 113.09-64.93zm482.48 1.02l103 59.85c56.65 32.92 107.41 62.39 122.58 71.15l-0.18 74.5c-0.1 40.98-0.46 99.68-1.4 186.38l-225 129.35-3.5-1.99c-1.92-1.1-52.73-30.62-222.31-129.24l0.81-260.18 113-64.91zm468 9.21c7.15-4.15 13.34-7.58 13.75-7.63 0.41-0.04 51.38 29.28 225.75 130.42l-0.13 104c-0.07 57.2-0.41 115.9-1.37 156.9l-8.5 4.91c-4.67 2.7-54.4 31.25-110.5 63.45-56.1 32.2-102.9 59.11-104 59.8-1.79 1.12-13.77-5.57-227-129.3l-0.33-13.38c-0.18-7.36 0.05-66.16 1.33-247.95l99-56.84c54.45-31.27 104.85-60.24 112-64.38zm383 57.96c61.6-35.45 112.34-64.51 112.75-64.56 0.41-0.06 51.39 29.25 225.8 130.39l-0.55 260.68-226 129.71-3-1.81c-1.65-1-6.15-3.62-10-5.82-3.85-2.2-52.9-30.66-109-63.23-56.1-32.58-102.35-59.52-102.77-59.88-0.42-0.36-0.42-59.23 0.77-261.02zm590-60.78c2.75-1.58 5.23-2.87 5.5-2.86 0.28 0 51.01 29.36 224.97 130.47l-0.47 260.82-87 49.9c-47.85 27.45-98.7 56.62-139 79.73l-225-130.83v-19.06c0-10.48 0.12-69.12 0.54-241.56l103.59-59.5c56.98-32.73 105.46-60.57 107.74-61.87 2.27-1.31 6.38-3.67 9.13-5.24zm374.5 62.93c61.88-35.58 112.8-64.61 113.18-64.5 0.37 0.1 51.11 29.43 224.83 130.18l-0.51 260.87-9 5.21c-4.95 2.87-55.69 32.04-216.5 124.42l-225.04-130.5 0.54-260.99zm494-5.75c55.28-31.82 100.61-57.91 100.75-57.96 0.14-0.06 50.87 29.25 225.21 130.39l0.27 9c0.15 4.95 0.14 63.68-0.33 252l-45.7 26.14c-25.13 14.38-75.96 43.51-180.2 103.36l-82.25-47.67c-45.24-26.23-95.87-55.59-142.77-82.83l0.52-260.92 12-6.82c6.6-3.75 57.23-32.86 112.5-64.69zm582.99-56.81l7.75 4.3c4.27 2.37 55.01 31.76 217.76 126.34v20.55c0 11.3-0.12 69.94-0.52 240.05l-72.74 41.72c-40.01 22.95-91.05 52.2-113.44 65-22.38 12.81-40.83 23-41 22.66-0.16-0.35-50.6-29.82-223.87-130.38l-0.25-260.31 113.15-64.96zm470.98 7.59c10.15-5.93 11.7-6.56 13.5-5.44 1.12 0.7 51.54 29.96 112.04 65.04 60.5 35.07 110.33 64.06 110.74 64.41 0.41 0.35 0.41 59.28-0.74 261.25l-6.5 3.63c-3.58 1.99-54.2 31.05-218.5 125.51l-5.14-2.88c-2.82-1.58-53.57-31-220.41-127.87l-0.01-260 101.78-58.48c55.98-32.16 106.93-61.49 113.24-65.17zm493.14-5.54l15.2 8.69c8.36 4.79 55.47 32.1 104.7 60.69 49.22 28.6 93.28 54.2 106.33 61.81l-0.83 260.03-112.39 64.48c-61.81 35.47-113.11 64.47-114 64.44-0.89-0.02-49.31-27.75-107.61-61.62-58.3-33.86-108.65-63.09-117.78-68.33l0.78-260.47 112.8-64.86zm-7103.61 466.19c61.6-35.43 112.28-64.33 112.63-64.21 0.34 0.12 51.07 29.46 224.82 130.21l0.03 135.25c0.02 128.02-0.07 135.27-1.73 135.6-0.96 0.19-51.7 29.04-112.75 64.12-61.05 35.07-111.45 63.76-112 63.76-0.55 0-43.3-24.62-95-54.7-51.7-30.09-102.21-59.39-130.5-75.53l0.65-134.75c0.35-74.11 0.92-134.88 1.25-135.04 0.33-0.16 51-29.28 112.6-64.71zm481.3 1.31c61.99-35.59 113.01-64.61 113.38-64.5 0.37 0.1 51.1 29.44 224.79 130.19l0.02 61.25c0.01 48.28 0.28 61.27 1.26 61.33 1 0.06 1 0.16 0 0.5-0.98 0.33-1.25 15.91-1.25 146.42l-112.5 64.5c-61.87 35.48-112.87 64.61-113.33 64.75-0.45 0.14-51.53-29.11-226.17-130.25l0.57-73.25c0.31-40.29 0.55-100.92 0.52-196.25zm481.71 1.57c69.31-39.85 112.76-64.27 114-64.06 1.1 0.18 51.5 29.04 112 64.13 60.5 35.08 110.56 64.3 111.25 64.92 0.98 0.89 1.25 14.43 1.25 61.89 0 47.89 0.26 60.76 1.25 60.82 1 0.07 1 0.17 0 0.5-0.99 0.34-1.25 15.95-1.2 146.93l-2.78 1.34c-1.52 0.74-22.57 12.73-46.77 26.63-24.2 13.91-73.82 42.44-176.5 101.53l-224.95-130.5-0.03-73.25c-0.02-57.92-0.29-73.26-1.27-73.27-0.98-0.01-0.99-0.18-0.03-0.75 0.94-0.56 1.29-14.93 1.78-122.46zm595.53-64.16l9.23 5.33c5.08 2.94 55.63 32.3 215.45 125.17l0.14 134.89c0.07 74.19-0.2 135.01-0.61 135.15-0.41 0.15-51.26 29.28-225.24 129.24l-225-130.5v-73.25c0-57.92-0.27-73.25-1.25-73.26-0.98-0.01-0.99-0.18-0.03-0.75 0.94-0.56 1.29-14.92 1.78-122.39l112.76-64.82zm481.96 1.06l13.28 7.61c7.3 4.19 58.21 33.72 212.99 123.62l-0.63 28.5c-0.35 15.68-0.65 76.2-0.7 240.5l-7.21 4.08c-3.97 2.25-54.81 31.38-218.72 125.42l-21.25-12.26c-11.69-6.75-62.31-36.11-203.73-118.24l-0.36-269.29 113.16-64.97zm482.02 1.19l21.75 12.54c11.96 6.9 62.87 36.38 204.52 118.5l-0.63 66c-0.34 36.3-0.63 96.83-0.62 203l-112.26 64.42c-61.75 35.44-112.6 64.57-113.01 64.75-0.42 0.18-51.39-29.03-225.82-130.17l-0.33-269.02 113.2-65.01zm482.03 1.03l63.73 36.85c35.05 20.27 85.8 49.71 161.81 93.98l0.21 48.59c0.12 26.73-0.12 87.41-1.29 221.13l-8.5 4.87c-4.67 2.67-47.65 27.35-95.5 54.84-47.85 27.49-94.65 54.34-104 59.68-12.21 6.98-17.46 9.48-18.63 8.89-0.91-0.45-51.65-29.84-223.89-129.82l0.15-101.5c0.09-55.82 0.43-116.52 1.37-168.26l112.27-64.63zm480.68 2c0.95-0.97 3.08-0.13 10 3.94 4.83 2.84 55.7 32.37 217.29 126.08l-0.15 101c-0.07 55.55-0.41 116.19-1.35 168.51l-112.5 64.56c-82.47 47.33-112.94 64.35-114.14 63.75-0.89-0.45-51.63-29.85-223.85-129.82l-0.01-54.5c0-29.98 0.33-90.61 1.5-214.96l111-63.67c61.05-35.01 111.54-64.22 112.21-64.89zm370.79 65.18c61.6-35.45 112.45-64.49 113-64.53 0.55-0.03 51.52 29.28 225.55 130.37l-0.08 135c-0.05 104.3-0.34 135.03-1.27 135.13-0.66 0.07-51.6 29.03-113.2 64.37-94.99 54.48-112.31 64.08-114 63.21-1.1-0.56-51.28-29.65-111.5-64.64-60.23-34.98-110.09-63.94-110.81-64.34-1.06-0.6-1.15-25.22 0.31-270.11zm594.14-63.73c0.09-0.37 38.56 21.58 85.5 48.78 46.95 27.2 97.83 56.71 140.78 81.69l0.09 269.1-226.43 130-27.54-16.02c-15.15-8.81-65.97-38.28-198.32-114.98l0.64-48.5c0.35-26.68 0.63-87.2 0.63-220.5l112.25-64.45c61.74-35.45 112.32-64.76 112.4-65.12zm370.86 65.62c61.6-35.43 112.31-64.33 112.7-64.23 0.38 0.1 51.1 29.43 224.72 130.18l0.29 9c0.16 4.95 0.17 65.59-0.21 260.5l-7.75 4.33c-4.27 2.38-52.08 29.78-106.25 60.89-54.18 31.11-101.65 58.34-112.5 64.5l-97-56.47c-53.35-31.06-103.53-60.23-111.5-64.83-7.98-4.6-14.95-8.38-15.5-8.39-0.67-0.02-0.91-45.6-0.71-135.28 0.15-74.39 0.6-135.37 1-135.52 0.39-0.14 51.11-29.25 112.71-64.68zm481.5 1.32c61.87-35.59 112.61-64.75 112.75-64.79 0.13-0.05 50.87 29.28 225.25 130.42v61.25c0 48.33 0.26 61.25 1.25 61.26 0.97 0.02 0.98 0.18 0.02 0.75-0.94 0.57-1.29 17.44-1.77 146.44l-226 129.56-88.5-51.48c-48.68-28.32-99.17-57.63-135.9-78.78l-0.3-73.5c-0.17-40.43-0.08-101.16 0.7-196.41zm595.08-63.66l8.21 4.76c4.51 2.61 54.89 31.81 111.96 64.89 57.06 33.07 104.08 60.13 104.5 60.14 0.41 0 0.59 27.56 0.41 61.25-0.28 50.39-0.11 61.37 1 61.98 0.98 0.54 1.01 0.74 0.09 0.75-0.99 0.01-1.25 15.29-1.25 146.01l-5.75 3.36c-3.17 1.85-53.45 30.76-111.75 64.25-63.2 36.3-107.01 60.89-108.5 60.89-1.43-0.01-17.16-8.53-36.5-19.76-18.7-10.86-68.65-39.88-188-109.24l-0.28-73c-0.21-56.26-0.56-73.16-1.5-73.73-0.96-0.57-0.95-0.74 0.03-0.75 0.98-0.01 1.21-12.79 0.93-121.82l113.2-64.99zm369.31 65.86c62.1-35.69 113.4-64.61 114-64.26 0.61 0.35 51.28 29.76 224.1 130.09l-0.25 61.3c-0.13 33.71-0.26 94.37-0.31 208.29l-225.94 129.5-224.93-130.5-0.28-73.5c-0.16-40.42-0.06-101.07 0.71-196.02zm594.9-63.86l4.1 2.34c2.26 1.28 52.93 30.66 221.1 128.25l0.34 7.85c0.18 4.31 0.02 64.99-1.07 261.84l-82.6 47.5c-45.44 26.13-96.12 55.26-142.67 82l-83-48.08c-45.65-26.45-96.41-55.81-142.62-82.42l0.31-134.92c0.21-88.75 0.65-135.03 1.31-135.27 0.55-0.2 51.36-29.32 112.9-64.72zm-7068.3 454.37c50.89-29.33 76.15-43.36 77.5-43.05 1.1 0.26 52.07 29.6 224.52 129.96l0.01 260-6.77 3.94c-3.72 2.17-54.46 31.34-112.76 64.82-58.3 33.48-106.26 60.95-106.58 61.05-0.32 0.1-51.31-29.29-226.03-130.81l0.61-260 37-21.2c20.35-11.65 70.98-40.77 112.5-64.71zm445.64 22.14c62.07-35.61 113.09-64.73 113.36-64.7 0.28 0.02 51.03 29.38 225.07 130.47l-0.07 260.5-35.75 20.41c-19.66 11.23-70.62 40.44-190.75 109.4l-9-5.35c-4.95-2.94-55.57-32.35-216-125.35v-27.06c0-14.88 0.06-73.52 0.28-233.57zm592.25-62.28c1.87-1.21 3.67-1.88 4-1.5 0.34 0.39 50.9 29.92 224.13 130.54l0.24 9c0.13 4.95 0.02 63.61-0.76 251.73l-7.5 4.3c-4.12 2.36-54.97 31.56-113 64.87-95.44 54.8-105.69 60.45-107.5 59.27-1.1-0.72-51.72-30.18-223-129.61l0.19-4.78c0.1-2.63 0.22-61.26 0.33-255.78l3.74-2.11c2.06-1.15 49.09-28.15 104.51-60 55.42-31.84 103.12-59.2 106-60.81 2.88-1.6 6.76-3.9 8.62-5.12zm372.11 64.41c61.88-35.59 112.61-64.75 112.75-64.79 0.14-0.04 3.29 1.6 7 3.66 3.71 2.06 7.94 4.42 9.4 5.25 1.46 0.83 49.05 28.51 208.88 121.51l-0.53 260.9-225.5 129.6-225.02-130.5 0.52-260.91zm587-59.31c4.13-2.4 7.95-4.24 8.5-4.1 0.55 0.15 51.18 29.37 112.5 64.93 61.33 35.56 111.95 64.65 112.5 64.63 0.66-0.02 0.75 9.38 0.25 27.72-0.41 15.27-0.75 74.11-0.76 233.76l-8.75 4.93c-4.8 2.71-51.94 29.75-104.74 60.09-52.8 30.34-99.71 57.26-112.5 64.48l-19.3-11.25c-10.61-6.19-61.24-35.55-205.69-119.25l0.49-260.72 105-60.43c57.75-33.24 108.38-62.4 112.5-64.79zm490.34-3.55l4.08 2.38c2.25 1.31 52.68 30.59 112.08 65.08 59.4 34.49 108.34 63.01 108.74 63.37 0.41 0.36 0.47 59.16-0.49 260.66l-81.63 46.93c-44.89 25.81-95.68 54.95-144.12 82.57l-105.75-61.37c-58.16-33.75-108.79-63.11-119.28-69.13l0.53-260.78 112.92-64.85zm481.94 1.18l4.11 2.34c2.26 1.29 52.94 30.68 221.11 128.27l0.33 11.35c0.18 6.23-0.04 65.01-1.33 249.88l-8.5 4.86c-4.67 2.68-47.65 27.35-95.5 54.85-47.85 27.49-94.65 54.35-104 59.68-12.22 6.98-17.46 9.48-18.64 8.89-0.9-0.45-51.69-29.85-224.08-129.82l0.72-260.61 4-2.26c2.2-1.24 51.25-29.38 109-62.54 57.75-33.15 106.75-61.32 108.89-62.59zm370.16 65.76c99.52-57.52 112.25-64.61 114.04-63.53 1.11 0.66 51.89 30.14 223.64 129.8l-0.06 78.64c-0.03 43.25-0.4 101.93-1.56 182.17l-17 9.85c-9.35 5.43-59.97 34.51-208 119.39l-5-2.82c-2.75-1.55-49.55-28.69-104-60.32-54.45-31.63-102.94-59.78-116.53-67.63l0.16-81.5c0.08-44.83 0.63-103.51 2.28-179.31zm485.06-0.86c75.28-43.29 108.61-61.95 110-61.59 1.1 0.28 52.1 29.65 224.67 130l-0.38 260-10.14 5.86c-5.58 3.22-56.38 32.35-112.9 64.75-56.51 32.39-103.31 58.72-104 58.52-0.68-0.2-49.62-28.46-108.75-62.81-59.12-34.34-109.44-63.54-116.15-67.32l0.65-260 4.5-2.66c2.48-1.46 53.1-30.6 112.5-64.75zm588.46-60.19c2.07-1.49 2.78-1.57 4.5-0.49 1.12 0.7 50.42 29.33 109.54 63.61 59.13 34.29 109.08 63.27 114.5 66.48l-0.47 260-35.27 20.24c-19.39 11.13-70.36 40.42-191.26 109.91l-8.5-5.12c-4.67-2.81-55.48-32.32-217.3-126.03l0.65-51c0.36-28.05 0.66-86.66 0.65-209.5l110.25-63.16c60.64-34.74 111.36-63.96 112.71-64.94zm403.04 46.69c44.28-25.52 81.07-46.44 81.75-46.49 0.69-0.06 51.54 29.1 224.75 129.67l0.58 260.73-25.29 14.65c-13.91 8.07-64.55 37.2-112.54 64.75-47.98 27.56-87.81 50.09-88.5 50.08-0.68 0-51.79-29.37-225.89-130.48l0.59-3c0.32-1.65 0.56-60.15 0.48-257l31.79-18.26c17.48-10.04 68.01-39.14 112.28-64.65zm450.78 19.18c62-35.6 112.95-64.73 113.22-64.72 0.28 0 3.77 1.8 7.75 3.98 3.99 2.18 7.25 3.63 7.24 3.22-0.01-0.41 0.55-0.01 1.25 0.88 0.69 0.9 47.95 28.69 208.76 121.87l-0.5 261.11-226 129.58-53.5-31.14c-29.42-17.13-80.05-46.53-171.5-99.53l0.55-260.52zm482.02 1.03c61.99-35.59 113.18-64.61 113.76-64.5 0.58 0.11 51.53 29.42 225.42 130.06l-0.52 129.57c-0.29 71.26-0.66 130.02-0.83 130.57-0.16 0.55-3.41 2.76-7.21 4.92-3.8 2.16-54.5 31.3-218.41 125.58l-224.5-130.51-0.41-260.99zm481.99 1c61.99-35.58 112.94-64.72 113.21-64.74 0.28-0.03 5.45 2.78 11.5 6.24 6.05 3.45 56.23 32.54 111.5 64.63 55.28 32.09 101.05 58.85 101.72 59.46 0.95 0.87 1.07 29.7-0.07 261.11l-225.65 129.5-110.25-64.13c-60.63-35.27-111.27-64.63-114.81-66.37l0.14-261zm560.06-43.46c31.16-17.86 35.6-20.13 37.5-19.14 1.18 0.62 50.98 29.47 110.65 64.1 59.68 34.63 109.53 63.47 113.06 65.2l-0.03 34c-0.02 18.7-0.37 77.51-1.53 227.39l-7.5 4.23c-4.12 2.32-52.27 29.94-107 61.37-54.72 31.43-101.97 58.57-110.5 63.48l-108-62.59c-59.4-34.43-110.13-63.79-117.47-67.88l-0.01-107.5c-0.01-59.13 0.32-117.94 1.48-153.92l77-44.23c42.35-24.33 92.91-53.36 112.35-64.51zm517.52-19.26l4.07 2.26c2.23 1.25 51.99 30.09 110.56 64.09 58.58 34 107.51 62.43 111 64.57v73.25c0 40.29-0.28 98.9-1.27 187.25l-2.61 1.6c-1.44 0.88-50.99 29.38-110.12 63.35-59.12 33.96-108.74 62.38-110.25 63.15-2.69 1.37-5.09 0.04-114-63.22-61.19-35.55-111.83-65.13-112.54-65.75-1.04-0.91-1.29-15.78-1.25-75.13 0.02-40.7 0.33-99.2 1.32-186l112.55-64.71zm-7104.73 466.65c62.07-35.61 113.08-64.73 113.36-64.72 0.27 0.02 51.02 29.39 225.03 130.49l-0.08 269-9.73 5.63c-5.35 3.1-52.7 30.28-105.22 60.39-52.53 30.11-99.1 56.9-103.5 59.53-4.68 2.8-8.42 4.44-9 3.95-0.55-0.47-47.8-28.02-105-61.23-57.2-33.21-107.56-62.38-119.8-69.27l0.65-53c0.35-29.15 0.6-89.68 0.44-216.04zm482.11 1.03c67.64-38.84 113.34-64.51 114.24-64.17 0.83 0.32 51.58 29.68 224.07 129.92l-0.04 269-226.53 130.11-8.5-5.1c-4.67-2.8-55.46-32.3-217.23-126.01l0.62-15c0.34-8.25 0.62-68.78 0.62-254zm482.75 0.82c61.6-35.43 112.11-64.45 112.25-64.5 0.14-0.04 50.86 29.29 225.2 130.42l0.27 9c0.15 4.95 0.18 65.48-0.15 260l-36.79 21.2c-20.23 11.66-71.21 40.97-189.78 109.09l-3-1.96c-1.65-1.07-52.05-30.43-221-128.51l-0.25-135.16c-0.14-74.33 0.09-135.16 0.5-135.16 0.41 0 51.15-28.99 112.75-64.42zm481.5 1.34c61.87-35.6 112.72-64.76 113-64.79 0.27-0.04 51.07 29.28 225.25 130.37l-0.19 134.5c-0.1 73.98-0.49 134.81-0.87 135.18-0.38 0.38-51.2 29.74-225.19 129.82l-18.75-11c-10.31-6.05-60.83-35.43-205.75-119.54v-269.82zm484.5-0.32c60.5-34.85 110.45-63.26 111-63.13 0.55 0.14 50.5 28.95 111 64.04 60.5 35.09 111.08 64.3 114.81 66l-0.65 61.25c-0.53 48.68-0.41 61.25 0.59 61.27 0.97 0.01 0.98 0.17 0.02 0.75-0.94 0.56-1.28 17.45-1.77 146.62l-6.25 3.56c-3.44 1.95-6.59 4-7 4.55-0.41 0.55-1.43 1.15-2.25 1.32-0.83 0.18-27.83 15.45-60 33.94-32.18 18.49-78.98 45.4-149.5 86l-225-130.33-0.51-269.93 2.75-1.27c1.52-0.7 52.26-29.79 112.76-64.64zm592.88-62.39l3.06 1.8c1.68 0.99 52.11 30.23 112.06 64.99 59.95 34.76 109.32 63.49 109.72 63.85 0.4 0.36 0.68 28.34 0.63 62.16-0.06 33.83-0.32 94.35-1.05 207.5l-225.3 129.51-112-65.05c-61.6-35.78-112.33-65.37-112.74-65.76-0.4-0.38-0.72-48.17-0.71-106.2 0-58.02 0.26-118.55 1.13-163.5l112.6-64.65zm370.04 65.43c80.38-46.24 112.37-64.15 113.5-63.57 0.87 0.44 51.53 29.81 223.58 129.7l0.31 45.87c0.18 25.23 0.02 85.92-1.03 223.87l-112.45 64.5c-61.84 35.48-112.98 64.35-113.64 64.17-0.66-0.18-51.37-29.39-112.69-64.91-61.33-35.52-111.6-64.62-111.72-64.67-0.12-0.05-0.2-33.39-0.18-74.09 0.01-40.7 0.27-101.22 0.56-134.5 0.29-33.27 0.82-60.83 1.18-61.24 0.36-0.41 51.02-29.72 112.58-65.13zm594.08-63.38l3 1.69c1.65 0.93 52.45 30.39 222.78 129.28l-0.14 116.14c-0.08 63.88-0.43 124.47-1.38 153.14l-112.13 64.44c-61.67 35.44-112.42 64.92-112.77 65.5-0.46 0.75-0.75 0.75-1 0-0.2-0.58-50.09-29.91-110.86-65.17-60.78-35.27-111.35-64.49-112.38-64.94-1.83-0.8-1.86-4.35-1.14-135.33 0.41-73.97 1.03-134.82 1.38-135.22 0.35-0.39 51.04-29.7 112.64-65.13zm479.4 2.69c1.32-0.96 2.89-1.47 3.5-1.12 0.6 0.35 51.27 29.75 224.1 130.05l0.45 269.64-8.23 4.56c-4.52 2.5-49.62 28.32-100.22 57.37-50.6 29.05-97.85 56.2-105 60.33-9.69 5.6-13.39 7.27-14.5 6.55-0.83-0.53-49.2-28.67-107.5-62.52-58.3-33.85-108.41-62.84-116.69-67.29l0.62-73.5c0.34-40.42 0.61-101.06 0.57-196l110.25-63.16c60.63-34.74 111.33-63.95 112.65-64.91zm371.31 64.87c61.76-35.58 113.01-64.6 113.9-64.5 0.89 0.11 51.97 29.42 225.39 130.06l-0.57 269.14-94.18 54c-51.8 29.7-102.83 58.95-113.41 65-14.79 8.47-19.52 10.74-20.53 9.88-0.72-0.62-48.11-28.25-105.31-61.4-57.2-33.16-107.31-62.13-118.68-68.48l0.59-24c0.32-13.2 0.57-73.72 0.51-245zm482.56 0.96c66.14-37.97 113.35-64.5 114.23-64.18 0.82 0.31 51.58 29.66 224.08 129.92l-0.12 269-6.23 3.63c-3.43 2-8.48 4.89-11.23 6.42-2.75 1.53-49.78 28.51-104.5 59.96-54.73 31.46-100.51 57.71-101.75 58.34-1.9 0.97-3.14 0.67-8-1.96-3.16-1.72-53.79-30.97-219.25-126.89l0.03-269.5zm482.01 1c62-35.6 113.2-64.62 113.78-64.5 0.58 0.13 51.56 29.48 225.51 130.23l-0.54 4.5c-0.3 2.48-0.52 63-0.45 264.5l-112.54 64.75c-61.89 35.62-112.98 64.75-113.53 64.75-0.55 0-51.29-29.19-224.5-129.76l-0.45-269.74zm482.01 1.03c61.99-35.58 113.05-64.72 113.46-64.75 0.41-0.02 49.91 28.58 110 63.57 60.09 34.98 110.75 64.35 115.93 66.88l-0.64 61.5c-0.35 33.83-0.61 94.47-0.54 208l-62.25 35.69c-34.24 19.63-84.86 48.65-112.5 64.5-27.64 15.85-50.59 28.82-51 28.83-0.41 0.01-39.67-22.53-87.25-50.1-47.57-27.56-98.09-56.82-138-79.92l0.08-269.5zm595.49-63.73l3.61 2.01c1.99 1.11 52.66 30.47 221.61 128.51l-0.36 134.46c-0.26 98.93-0.66 134.74-1.5 135.55-0.63 0.61-32.41 19.03-70.64 40.94-38.22 21.91-88.4 50.72-153.5 88.22l-225-130.41 0.1-269.5 112.84-64.89zm482.09 1.01l6.07 3.39c3.33 1.87 53.76 31.09 112.06 64.95 58.3 33.85 106.34 61.67 106.75 61.82 0.41 0.14 0.69 37.39 0.63 82.76-0.07 45.38-0.41 106.12-1.38 187.49l-112.5 64.65c-80.37 46.19-112.93 64.41-114 63.81-0.82-0.46-51.45-29.81-223.5-129.62v-125.41c0-68.98 0.14-129.69 0.62-144.42l112.62-64.71zm-6992.98 410.85c0.49-0.49 2.45 0.01 4.5 1.15 1.99 1.11 52.66 30.48 221.61 128.53l0.46 260.89-9.73 5.63c-5.35 3.1-54.28 31.2-108.73 62.45-54.45 31.25-101.02 57.93-108 61.74l-225.26-130.82 0.5-130c0.27-71.5 0.78-130.3 1.13-130.66 0.35-0.37 50.58-29.33 111.63-64.36 61.05-35.03 111.4-64.08 111.89-64.55zm369.83 65.89c61.75-35.57 112.85-64.71 113.53-64.75 0.69-0.04 7.7 3.64 15.58 8.18 7.88 4.54 58.4 33.86 210.17 122.06l-0.48 260.19-52.76 30.28c-29.01 16.65-79.98 45.92-173.76 99.81l-5-3.11c-2.75-1.71-53.54-31.2-220.74-127.98l0.62-15c0.35-8.25 0.61-66.75 0.55-245zm595.85-64.49l4.72 2.82c2.59 1.56 53.04 30.95 219.47 127.84l0.75 261.01-9.25 5.18c-5.09 2.84-46.83 26.76-92.75 53.14-45.93 26.38-92.39 53.07-103.25 59.32-10.87 6.25-20.32 11.35-21 11.33-0.69-0.01-51.65-29.32-225.25-130.22l0.5-260.75 3.25-1.64c1.78-0.91 48.47-27.62 103.75-59.37 55.27-31.75 104.67-60.18 109.78-63.19zm368.17 66.52c61.74-35.55 112.83-64.69 113.51-64.75 0.69-0.06 47.27 26.62 103.5 59.28 56.24 32.67 104.28 60.56 106.75 61.99 2.48 1.43 7.15 4.07 16.25 9.13l-0.62 14c-0.34 7.7-0.62 66.31-0.63 246.5l-3.25 1.87c-1.78 1.03-52.41 30.05-112.5 64.5-60.08 34.44-109.7 62.63-110.25 62.63-0.55 0-50.38-28.64-110.75-63.63-60.36-35-110.76-64.25-114.25-66.37l-0.03-260.5zm487.27-1.74c59.4-34.16 108.49-61.99 109.1-61.86 0.61 0.13 51.53 29.49 225.24 130.24l-0.54 130c-0.4 94.67-0.85 130.3-1.67 131.09-0.62 0.6-30.83 18.12-67.13 38.93-36.3 20.82-86.48 49.64-157 90.25l-106.5-61.69c-58.58-33.93-109.2-63.26-118.5-68.71l-0.48-260.87 4.74-2.64c2.61-1.45 53.34-30.59 112.74-64.74zm478 3.41c61.6-35.42 112.34-64.43 112.75-64.47 0.41-0.03 38.89 22.13 85.5 49.24 46.61 27.11 97.26 56.48 140.34 81.2l-0.66 130c-0.37 71.5-0.77 130.23-0.9 130.5-0.13 0.28-2.22 1.66-4.64 3.08-2.41 1.42-52.77 30.39-111.89 64.38-59.13 33.99-107.95 61.82-108.5 61.84-0.55 0.02-5.95-2.8-12-6.28-6.05-3.48-55.55-32.2-110-63.82-54.45-31.62-100.01-58.11-103.5-60.2l0.1-122.25c0.05-67.24 0.39-125.98 1.4-138.83zm582.86-56.63c10.17-5.82 12.17-6.63 14-5.69 1.18 0.61 51.19 29.57 111.14 64.37 59.95 34.79 109.79 63.52 110.75 63.84 1.64 0.55 1.75 4.68 1.75 67.84 0 36.99-0.3 95.82-1.3 194.25l-7.1 4.07c-3.91 2.24-54.35 31.22-112.1 64.4-57.75 33.18-105.45 60.34-106 60.36-0.55 0.02-51.5-29.18-225.42-129.83l-0.04-70c-0.02-38.5 0.25-97.23 1.23-191l2.61-1.59c1.44-0.87 46.72-26.93 100.62-57.91 53.9-30.98 103.34-59.37 109.86-63.11zm381.51 58.88c61.94-35.6 112.83-64.73 113.08-64.75 0.24-0.01 37.59 21.62 83 48.06 45.4 26.45 95.92 55.81 141.98 82.42l0.03 109c0.02 59.95-0.3 118.77-1.46 152.42l-4 2.23c-2.2 1.22-52.83 30.27-221 126.88l-225-130.53-0.33-9.5c-0.19-5.23-0.02-63.95 1.06-251.5zm482.64 0.78c61.6-35.44 112.11-64.45 112.25-64.49 0.13-0.04 50.76 29.32 224.75 130.55l0.5 8.94c0.27 4.92 0.27 63.6-0.5 251.84l-8.5 4.92c-4.68 2.7-49.68 28.54-100 57.42-50.33 28.89-97.24 55.84-117 67.27l-9.75-5.44c-5.37-2.98-54.3-31.31-108.75-62.93-54.45-31.63-100.92-58.66-107.5-62.63l0.64-130.25c0.36-71.64 0.92-130.37 1.25-130.52 0.33-0.15 51.01-29.25 112.61-64.68zm594-63.25l4 2.16c2.2 1.19 52.37 30.2 111.5 64.48 59.12 34.27 108.08 62.82 108.79 63.44 1.05 0.9 1.28 25.92 1.18 261.12l-30.24 17.25c-16.63 9.5-67.58 38.78-113.23 65.09-68.55 39.49-83.27 47.61-84.5 46.61-0.83-0.67-51.45-30.14-112.5-65.49-61.05-35.35-111.03-64.32-111.05-64.37-0.03-0.05 0.2-58.77 1.05-260.87l112.5-64.71zm482.31 0.94l225.09 130.26 0.12 261-6.26 3.63c-3.45 2-8.51 4.88-11.26 6.41-2.75 1.53-48.2 27.61-101 57.96-52.8 30.35-98.7 56.66-108 61.77l-101.5-58.98c-55.83-32.43-106.45-61.85-123.5-71.79l0.18-260.32 96.41-55.25c53.02-30.38 103.9-59.62 113.07-64.97zm368.41 66.57c64.83-37.35 113.11-64.58 114.27-64.43 1.1 0.14 52.33 29.47 225.7 130.12l-0.6 6.5c-0.32 3.57-0.58 62.07-0.55 253.5l-112.24 64.5c-61.73 35.47-112.7 64.63-113.27 64.8-0.58 0.17-50.77-28.58-111.54-63.88-60.78-35.29-111.4-64.59-112.5-65.09-1.99-0.92-2-1.78-1.53-261.33zm593.17-62.76c2.72-1.63 3.07-1.64 5.5-0.08 1.43 0.92 52.16 30.44 222.91 129.53l-0.32 260-108.5 62.3c-59.67 34.27-110.52 63.55-117.5 67.83l-226-130.97 0.06-260.25 5.47-3.03c3.01-1.66 52.72-30.15 110.47-63.31 57.75-33.15 106.31-61.06 107.91-62.02zm371.37 64.67c62-35.62 113.4-64.6 114.22-64.4 0.83 0.21 47.18 26.91 103 59.34 55.83 32.43 106.15 61.63 122.15 70.84l-0.66 130c-0.61 119.48-0.8 130.1-2.33 131.33-0.91 0.73-51.16 29.73-111.66 64.45-60.5 34.72-110.95 63.14-112.12 63.17-1.16 0.02-52.52-29.2-114.13-64.95-61.6-35.75-111.83-65.34-111.63-65.75 0.21-0.42 0.4-58.92 0.44-259.25zm482.72 0.74c61.6-35.42 112.54-64.31 113.2-64.19 0.66 0.12 51.62 29.47 225.28 130.22l0.01 59.5c0.01 32.72-0.32 91.38-1.49 201.2l-6 3.54c-3.3 1.94-53.02 30.53-110.5 63.53-57.47 33-105.4 60.59-106.5 61.31-1.74 1.15-2.64 0.94-7-1.61-2.75-1.61-53.37-30.99-220-127.64l-0.23-81.42c-0.13-44.77 0.1-103.6 1.23-180.03zm481.82 1.36c61.7-35.56 112.52-64.7 112.93-64.75 0.42-0.05 43.17 24.5 95 54.54 51.84 30.05 102.47 59.42 130.76 75.87v99c0 54.45-0.29 113.18-1.29 162l-4.61 2.64c-2.53 1.46-53.21 30.56-112.61 64.68-104.37 59.94-108.08 61.98-110.5 60.59-1.37-0.8-52-30.18-222.5-129.16l-0.32-20.38c-0.18-11.2-0.03-69.87 0.96-240.37zm-6992.11 401.98c61.76-35.57 112.85-64.71 113.54-64.75 0.69-0.04 51.54 29.13 224.75 129.72l0.43 269.71-9.71 5.41c-5.35 2.97-48.64 27.77-96.22 55.11-47.57 27.34-94.04 54.05-120 68.98l-8.25-4.64c-4.54-2.56-54.37-31.45-110.75-64.2-56.37-32.75-103.57-60.02-107.24-61.66l0.62-26c0.34-14.3 0.6-74.82 0.54-243zm482.01 1c61.76-35.58 113.04-64.6 113.97-64.5 0.93 0.1 52.01 29.38 225.31 129.99l-0.55 269.19-72.72 41.72c-40 22.95-91.04 52.2-113.43 65-22.38 12.8-40.83 23.03-41 22.74-0.16-0.3-50.59-29.66-223.8-129.96l-0.06-269.5zm482.02 1.01c61.74-35.57 113.05-64.59 114-64.5 0.96 0.09 52.15 29.42 225.76 130.17l-0.46 9.5c-0.26 5.22-0.49 65.75-0.57 259.5l-8.24 4.77c-4.52 2.63-55.48 31.92-113.23 65.1-57.75 33.17-105.22 60-105.5 59.62-0.27-0.38-48.87-28.75-108-63.03-59.12-34.29-109.41-63.38-116-66.96l-0.03-269.5zm482.55 0.95c62-35.59 113.21-64.61 113.82-64.5 0.61 0.12 51.61 29.47 225.58 130.22l-0.59 42c-0.33 23.1-0.59 83.74-0.59 227.5l-112.5 64.5c-61.88 35.47-112.84 64.51-113.25 64.53-0.41 0.02-51.15-29.19-224.75-129.87l-0.43-269.66zm482.71 0.73c61.6-35.43 112.52-64.33 113.16-64.22 0.63 0.11 51.64 29.45 225.56 130.2l-0.61 83c-0.33 45.65-0.6 106.29-0.61 186.5l-7.75 4.42c-4.26 2.42-54.55 31.3-111.75 64.16-57.2 32.86-104.67 59.91-105.5 60.12-0.82 0.2-51.9-28.86-225.5-129.54l-0.19-129.83c-0.11-71.41 0.11-132.21 1.19-140.4zm593.91-63.72c0.4-0.41 1.26-0.26 1.91 0.32 0.65 0.59 51.26 30.23 223.73 130.68l0.46 58.35c0.25 32.1 0.13 92.72-1.01 211.07l-87 49.95c-47.85 27.46-98.47 56.56-138 79.39l-225.58-131.05 0.04-77c0.03-42.35 0.33-102.88 1.32-192l111.7-64.49c61.43-35.47 112.03-64.82 112.43-65.22zm370.59 65.86c61.88-35.53 112.77-64.51 113.09-64.38 0.32 0.12 51.04 29.48 224.84 130.23l0.04 103.5c0.02 56.92-0.26 117.67-1.28 166.5l-8.09 4.55c-4.45 2.5-54.22 31.03-110.6 63.4-56.37 32.37-103.4 59.42-104.5 60.12-1.78 1.13-5.15-0.58-31.5-15.94-16.22-9.47-67.02-39.02-196.29-114.13l0.75-134.5c0.41-73.98 0.82-134.56 0.9-134.62 0.08-0.06 50.77-29.19 112.64-64.73zm482.5 0.85c61.6-35.44 112.28-64.33 112.63-64.22 0.34 0.12 51.06 29.47 224.81 130.22l0.28 61c0.16 33.55 0.17 94.41 0.03 135.25-0.23 69.79-0.35 74.27-2 74.6-0.96 0.19-51.7 29.06-112.75 64.14-61.05 35.09-111.45 63.79-112 63.77-0.55-0.01-51.4-29.29-225-130.13l0.4-134.82c0.21-74.15 0.66-134.94 1-135.1 0.33-0.16 51-29.28 112.6-64.71zm594-63.2l4 2.15c2.2 1.19 52.38 30.21 111.5 64.48 59.13 34.28 108.07 62.83 108.76 63.45 0.98 0.87 1.25 14.4 1.25 61.87-0.01 47.89 0.26 60.76 1.24 60.83 1 0.06 1 0.16 0 0.5-0.98 0.33-1.25 15.98-1.3 146.92l-3.22 1.61c-1.77 0.89-52.05 29.63-111.73 63.87-59.67 34.23-109.06 62.64-109.75 63.13-0.84 0.6-37.53-20.18-226.75-130.02l0.5-72.59c0.44-63.79 0.32-72.69-1-73.53q-1.49-0.94-0.25-0.96c0.99-0.01 1.25-12.82 1.18-121.51l2.23-1.5c1.22-0.83 51.97-30.12 112.78-65.1zm482.33 0.93l225.07 130.26 0.16 270-2.28 1.11c-1.25 0.61-52.12 29.75-223.78 128.39l-225.01-130.5v-73.25c0.01-57.92-0.25-73.25-1.24-73.26-0.97-0.01-0.98-0.18-0.03-0.75 0.94-0.56 1.29-14.93 1.78-122.46l112.66-64.77zm369.51 65.78c104.24-59.91 112.99-64.74 115-63.51 1.19 0.73 51.44 29.99 111.67 65.03 60.22 35.03 109.95 63.72 110.5 63.75 0.61 0.03 0.92 3.79 0.79 9.63-0.12 5.27-0.25 66.06-0.38 260.58l-45.7 26.14c-25.14 14.38-75.97 43.52-180.21 103.36l-18.75-10.77c-10.31-5.92-60.94-35.28-206.26-119.73l0.51-269.64zm481.82 1.39c113.02-65.01 113.17-65.09 115.76-63.43 1.42 0.92 52.2 30.43 223.08 129.52l-0.56 61c-0.3 33.55-0.52 94.08-0.42 208l-74.76 42.94c-41.11 23.61-91.85 52.8-150.75 86.81l-225.55-130.75 0.03-269zm481.61 1.35c62.01-35.6 113.19-64.73 113.74-64.72 0.55 0.02 51.58 29.38 225.8 130.47l-0.65 72c-0.36 39.6-0.64 100.12-0.62 197l-6.26 3.67c-3.45 2.02-54.19 31.21-219.27 126.08l-5.13-2.88c-2.82-1.58-53.57-31-220.41-127.87l0.05-269zm593.46-63.04c1.5-1.21 2.68-0.81 9.52 3.2 4.3 2.52 55.16 32.03 218.24 126.58l-0.13 72.5c-0.07 39.88-0.4 100.56-1.34 197.19l-107 61.44c-58.85 33.79-109.48 62.91-118 67.98l-225.51-131.11 0.01-89c0-48.95 0.34-109.59 1.5-180.53l110.5-63.44c60.77-34.9 111.27-64.06 112.21-64.81zm371.49 64.98c61.49-35.49 112.13-64.56 112.55-64.61 0.41-0.05 51.37 29.27 225.75 130.41v92c0 50.6-0.34 111.27-1.5 177.62l-7 4.05c-3.85 2.23-54.37 31.23-112.25 64.45-57.89 33.21-105.59 60.37-106 60.36-0.42-0.02-51.28-29.38-225.33-130.48l0.18-72c0.1-39.6 0.54-100.19 1.79-197.28zm-6885.69 349.3c3.57-2.15 6.8-3.82 7.17-3.71 0.37 0.12 51.09 29.46 224.74 130.21l0.29 9c0.16 4.95 0.07 63.66-0.7 251.94l-24.5 14.04c-13.48 7.72-63.65 36.49-111.5 63.94-47.85 27.45-87.45 50.44-88 51.09-0.75 0.89-4.47-0.83-14.5-6.67-7.43-4.32-58.24-33.84-212.33-123.34l0.24-130.5c0.13-71.77 0.54-130.61 0.91-130.74 0.37-0.14 47.48-27.12 104.68-59.95 57.2-32.84 104.11-60.06 104.25-60.5 0.13-0.45 0.81-0.82 1.5-0.85 0.68-0.02 4.17-1.8 7.75-3.96zm488.99-2.82l19.38 11.16c10.65 6.14 61.26 35.46 205.56 119.16l0.01 261-112.57 64.5c-61.91 35.48-113.09 64.47-113.72 64.43-0.64-0.04-50.43-28.67-110.65-63.62-60.23-34.95-110.52-64.05-114-65.81l0.5-261.22 112.74-64.8zm481.87 1.03l40.87 23.64c22.47 13.01 73.1 42.33 184.15 106.65l0.31 9c0.17 4.95 0.19 63.68-0.19 252l-9.75 5.64c-5.37 3.1-55.2 31.72-110.75 63.61-55.55 31.88-102.02 58.49-103.25 59.11-2.03 1.03-12.86-4.99-108-60.07-58.17-33.66-108.81-63.03-119.34-69.29l0.09-260.5 17.25-9.92c9.48-5.45 60.3-34.66 112.93-64.89zm482.21 1.03l4.71 2.7c2.59 1.49 49.83 28.89 104.96 60.89 61.36 35.6 100.74 57.89 101.5 57.43q1.25-0.73 0.5 0.5c-0.51 0.85 1.7 2.6 14.63 9.74l-0.69 41c-0.37 22.55-0.67 81.05-0.61 219l-112.23 64.5c-61.73 35.48-112.94 64.5-113.8 64.5-0.87 0-51.87-29.25-225.11-130l-0.27-260.29 113.2-64.99zm481.95 1.25l21.74 12.53c11.96 6.89 62.87 36.37 204.53 118.49l-0.64 80c-0.36 44-0.65 102.61-0.65 180.5l-7.75 4.32c-4.26 2.37-52.3 29.89-106.75 61.15-54.45 31.26-101.7 58.48-111 64.11l-113.13-65.54c-62.23-36.05-112.99-65.76-112.81-66.04 0.18-0.27 0.3-58.81 0.22-259.66l105.33-60.42c57.93-33.23 108.83-62.45 113.12-64.93zm369.42 65.86c62.11-35.73 113.41-64.66 114-64.28 0.58 0.38 49.43 28.73 108.56 63 59.12 34.27 109.49 63.47 116.36 67.44l-0.86 260.25-45.89 26.38c-25.24 14.5-76.09 43.71-180.11 103.45l-5.5-3.14c-3.03-1.72-53.83-31.22-220.3-127.94l0.8-260.19zm590.56-61.21c1.93-1.2 4.18-2.02 5-1.84 0.83 0.19 51.83 29.57 225.2 130.21l-0.7 260.37-8.5 4.88c-4.67 2.69-54.62 31.36-111 63.71-56.37 32.35-103.4 59.39-104.5 60.09-1.78 1.14-3.92 0.15-19.5-8.94-9.62-5.61-60.43-35.16-208.31-121.11l0.81-260 109-62.6c59.95-34.43 110.58-63.58 112.5-64.77zm374.5 63.01c61.05-35.16 111.34-63.98 111.75-64.03 0.42-0.06 51.39 29.25 225.8 130.39l-0.05 260.5-9.25 5.19c-5.08 2.85-55.82 31.95-112.75 64.67-56.92 32.72-103.95 59.46-104.5 59.43-0.55-0.04-38.35-21.75-84-48.26-45.65-26.5-96.16-55.8-141.5-82.03l0.64-130.25c0.47-93.6 0.96-130.45 1.75-130.96 0.61-0.39 51.06-29.48 112.11-64.65zm589-60.25c2.75-1.58 5.23-2.87 5.5-2.86 0.28 0.01 51.02 29.36 225.04 130.47l-0.04 260.5-7.75 4.4c-4.26 2.42-52.75 30.23-107.75 61.81-55 31.58-102.47 58.82-111 63.63l-225-130.72v-19.56c0-10.76 0.12-69.4 0.54-241.06l103.6-59.5c56.98-32.72 105.46-60.57 107.73-61.87 2.27-1.31 6.38-3.67 9.13-5.24zm374.5 62.93c61.88-35.58 112.95-64.55 113.5-64.37 0.55 0.18 10.26 5.66 21.57 12.19 11.31 6.52 61.59 35.71 202.93 117.86v260.5l-2.25 1.38c-1.23 0.76-52.2 29.99-224.25 128.52l-4.55-2.7c-2.51-1.48-53.03-30.82-219.99-127.7l0.54-260.98zm487.38-1.97c58.92-33.9 107.57-61.52 108.12-61.37 0.55 0.15 51.18 29.4 112.5 64.99 61.33 35.59 111.61 64.78 111.73 64.86 0.13 0.09 0.24 58.89 0.25 130.66 0.01 71.78-0.32 130.62-0.73 130.77-0.41 0.15-51.26 29.29-225.25 129.23l-225.01-130.5 0.51-260.91 5.38-3.04c2.95-1.68 53.58-30.79 112.5-64.69zm476.62 4.07c61.88-35.6 112.95-64.61 113.5-64.46 0.55 0.15 51.4 29.56 225 130.44v21.55c0 11.85-0.12 70.48-0.52 239.04l-72.74 41.73c-40.01 22.95-91.05 52.2-113.44 65-22.38 12.8-40.83 23-41 22.65-0.16-0.34-49.35-29.09-109.3-63.88-59.95-34.8-110.24-64-114.53-66.5l0.53-260.84zm482.45 1.04c102.55-58.91 113.14-64.76 115-63.58 1.13 0.71 51.55 29.99 112.05 65.07 60.5 35.07 110.34 64.05 110.75 64.41 0.42 0.35 0.42 59.27-0.75 261.25l-6.5 3.62c-3.57 2-54.2 31.06-218.5 125.51l-5.13-2.87c-2.82-1.58-53.57-31-220.42-127.87l0.55-260.65zm594.94-63.77l3.06 1.81c1.68 0.99 48.73 28.32 104.55 60.74 55.83 32.42 105.22 61.03 118 68.25v44.25c0 24.34-0.33 83.09-1.5 216.86l-4 2.26c-2.2 1.25-52.82 30.29-112.5 64.54-90.4 51.89-108.83 62.12-110.5 61.31-1.1-0.53-47.9-27.62-104-60.21-56.1-32.59-105.98-61.56-119.7-69.51l0.95-260.45 112.82-64.92zm451.08 19.04c16.52-9.49 30.71-17.11 31.53-16.93 0.83 0.18 51.86 29.54 225.31 130.19l-0.81 260-7 4.06c-3.85 2.24-53.12 30.55-109.5 62.91-56.37 32.36-104.03 59.77-109.31 63.03l-225.92-131 0.73-260.26 82.47-47.37c45.36-26.06 95.99-55.14 112.5-64.63zm511.2-15.85c1.05-0.85 4.99 0.99 17.21 8 8.72 5.01 59.73 34.53 113.37 65.61 53.64 31.07 97.38 56.72 97.2 57-0.18 0.27-0.39 58.77-0.64 259.5l-7.65 4.55c-4.21 2.5-8.33 4.84-9.16 5.19-0.82 0.35-48.3 27.59-209.5 120.42l-7-4.22c-3.85-2.32-53.8-31.34-111-64.48-57.2-33.14-104.81-60.75-105.81-61.36-1.75-1.06-1.81-6.36-1.19-261.17l111.4-63.97c61.27-35.18 112.01-64.46 112.77-65.07zm-7102.17 465.16c61.6-35.44 112.12-64.46 112.25-64.49 0.14-0.04 50.77 29.27 112.5 65.11 61.74 35.85 112.36 65.22 112.49 65.25 0.13 0.04 0.25 27.64 0.25 61.33 0.01 48.28 0.28 61.26 1.26 61.32 1 0.07 1 0.17 0 0.5-0.98 0.34-1.25 15.92-1.25 146.43l-7.75 4.41c-4.26 2.43-55.11 31.68-218.25 125.59l-15.75-9.14c-8.66-5.02-59.06-34.27-112-65-52.93-30.72-96.58-55.86-97-55.86-0.41 0-0.64-32.97-0.5-73.25 0.19-57.58-0.02-73.41-1-73.99-0.99-0.58-0.99-0.74 0-0.75 0.99-0.01 1.25-12.99 1.25-61.51 0-33.83 0.34-61.51 0.75-61.51 0.42-0.01 51.15-29.01 112.75-64.44zm594.42-63.3l43.29 25.04c23.81 13.78 74.39 43.14 181.51 105.45l0.14 134.88c0.07 74.18-0.2 134.99-0.61 135.14-0.41 0.14-51.26 29.28-225.25 129.24l-224.99-130.5v-73.25c-0.01-57.93-0.27-73.26-1.26-73.27-0.97-0.01-0.98-0.18-0.02-0.75 0.94-0.56 1.28-14.92 1.77-122.39l112.71-64.8zm482.1 1.01l14.24 8.19c7.83 4.5 58.76 34.03 212.09 123.05l-0.67 27.5c-0.37 15.13-0.68 75.65-0.73 241.5l-8.22 4.64c-4.53 2.56-51.65 29.6-104.73 60.1-53.07 30.49-100.21 57.54-113 64.76l-224.98-130.5-0.35-269.29 113.17-64.98zm482 1.21l21.75 12.53c11.96 6.9 62.87 36.38 204.52 118.51l-0.63 67.5c-0.35 37.12-0.65 97.65-0.7 201.5l-79.19 45.5c-43.56 25.02-94.28 54.21-146.26 84.22l-225.47-130.72-0.46-269.02 113.22-65.01zm482.03 1.03l63.73 36.85c35.05 20.27 85.8 49.7 161.81 93.98l0.21 50.09c0.12 27.55-0.13 88.2-1.29 219.5l-112 64.2c-61.6 35.32-112.33 64.36-112.75 64.55-0.41 0.19-51.43-29.02-225.99-130.16l1-269 2.31-1.5c1.28-0.83 51.97-30.08 112.65-65.01zm482.11 0.88l10.67 6.13c5.87 3.36 56.65 32.82 214.98 124.77l0.1 88.11c0.05 48.47-0.24 109.16-1.4 181.63l-112.5 64.57c-82.45 47.31-112.94 64.34-114.13 63.74-0.9-0.45-51.69-29.84-224.09-129.82l0.72-269.12 107.88-61.94c59.33-34.06 110.1-63.32 112.82-65zm370.35 65.77c61.05-35.16 111.45-63.96 112-64 0.55-0.04 51.53 29.28 225.57 130.36l-0.1 135c-0.07 103.44-0.37 135.03-1.28 135.13-0.65 0.07-49.56 27.9-108.69 61.84-59.12 33.95-109.52 62.99-112 64.55-2.55 1.6-4.93 2.47-5.5 2-0.55-0.45-49.37-28.91-108.5-63.23-59.12-34.33-109.45-63.51-116.18-67.29l0.72-134.5c0.53-97.12 1.04-134.7 1.85-135.21 0.61-0.4 51.06-29.49 112.11-64.65zm593.15-63.21c0.08-0.37 38.56 21.58 85.5 48.78 46.94 27.2 97.82 56.71 140.78 81.69l0.08 269.1-226.41 130-27.55-16.02c-15.15-8.81-65.97-38.28-198.32-114.98l0.64-49.5c0.35-27.23 0.63-87.75 0.62-219.5l112.26-64.45c61.74-35.44 112.32-64.75 112.4-65.12zm370.15 65.89c61.99-35.58 113.02-64.6 113.41-64.5 0.39 0.1 51.11 29.43 224.72 130.18l0.28 9c0.16 4.95 0.19 65.47-0.18 260l-226.53 130.24-3.5-2.24c-1.92-1.23-52.71-30.76-222.21-129l0.6-8c0.33-4.4 0.62-64.93 0.71-261zm482.2 1.05c61.87-35.59 112.61-64.75 112.75-64.79 0.14-0.04 50.88 29.28 225.26 130.42l-0.51 269.7-226 129.56-62.5-36.4c-34.38-20.01-84.87-49.32-161.92-93.86l0.42-269.93zm487-1.79c59.12-34.04 107.95-61.76 108.5-61.61 0.55 0.15 51.17 29.37 112.5 64.93 61.32 35.57 111.72 64.65 112 64.64 0.27-0.02 0.27 27.44 0 61.01-0.44 53.53-0.32 61.15 1 61.98q1.49 0.95 0.25 0.96c-0.99 0.01-1.25 15.29-1.25 146.02l-6.75 3.91c-3.71 2.16-53.55 30.81-110.75 63.68-57.2 32.87-105.13 60.2-106.5 60.74-2.23 0.88-6.9-1.56-42.5-22.17-22-12.74-72.4-41.95-184-106.66l-0.5-270 5.25-2.77c2.89-1.52 53.62-30.62 112.75-64.66zm477.4 4c62.1-35.69 113.4-64.6 114-64.25 0.61 0.35 51.27 29.75 224.1 130.07l-0.26 60.8c-0.2 47.95 0.01 60.96 1 61.54 1 0.59 1 0.74 0.01 0.75-0.99 0.01-1.26 15.36-1.32 146.52l-225.93 129.5-224.5-130.61-0.5-73.58c-0.28-40.48-0.28-101.1 0.5-195.85zm594.9-63.85l4.1 2.33c2.25 1.29 52.92 30.67 221.1 128.26l0.33 7.84c0.19 4.32 0.02 65-1.07 261.85l-7.13 4.05c-3.92 2.24-51.68 29.63-106.13 60.88-54.45 31.26-101.93 58.57-112 64.57l-83-48.09c-45.65-26.44-96.37-55.81-142.43-82.41l-0.07-73.5c-0.03-40.43-0.05-85.43-0.03-100 0.02-14.58 0.31-42.25 0.65-61.5 0.34-19.25 0.9-35.13 1.25-35.28 0.34-0.15 50.98-29.23 112.53-64.64zm370.01 65.73c99.43-57.39 112.38-64.6 114.17-63.54 1.11 0.66 51.9 30.15 223.7 129.88l-0.09 78.61c-0.05 43.23-0.38 103.8-1.37 190.6l-112.11 64.43c-61.66 35.43-112.56 64.43-113.11 64.44-0.55 0.02-51.49-29.2-225.41-129.87l0.1-80c0.05-44 0.51-104.71 1.98-189.81zm592.94-62.94c0.42-0.45 7.4 3.01 15.5 7.68 8.11 4.68 58.93 34.16 211.12 122.52l0.06 118.15c0.04 64.98-0.27 125.7-1.44 151.76l-6.5 3.61c-3.57 1.98-6.61 3.98-6.75 4.44-0.14 0.46-0.7 0.83-1.25 0.83-0.55 0-46.79 26.27-102.75 58.38-55.96 32.1-103.1 59.15-107.75 61.84l-107.5-62.44c-59.12-34.34-109.9-63.75-118.18-68.28l0.69-134.5c0.39-73.97 0.99-134.79 1.34-135.14 0.36-0.35 50.6-29.3 111.65-64.33 61.05-35.03 111.34-64.07 111.76-64.52zm-6995.38 412.51c2.96-1.76 5.66-2.89 6-2.52 0.34 0.37 50.92 29.88 224.19 130.5l-0.07 260.5-6.75 3.86c-3.71 2.12-54.56 31.37-219.25 126.14l-225.5-130.92 0.53-260.58 4.23-2.38c2.33-1.32 50.82-29.17 107.74-61.9 56.93-32.73 105.92-60.94 108.88-62.7zm373.89 63.26c62-35.6 112.96-64.73 113.23-64.73 0.28 0 3.43 1.66 7 3.7 3.58 2.03 7.69 4.39 9.15 5.23 1.46 0.83 49.05 28.52 208.87 121.52l-0.52 260.9-225.5 129.6-224.93-130.5-0.03-261zm589.37-60.43c2.95-1.74 5.81-3.04 6.36-2.89 0.55 0.16 51.18 29.38 112.5 64.94 61.33 35.56 111.95 64.65 112.5 64.63 0.66-0.02 0.75 9.39 0.25 27.73-0.41 15.26-0.75 74.1-0.76 233.75l-8.75 4.92c-4.81 2.71-53.74 30.77-108.74 62.35-55 31.59-101.91 58.51-108.5 62.23l-19.3-11.25c-10.62-6.19-61.24-35.55-205.69-119.25l0.49-260.97 107.14-61.52c58.93-33.83 109.55-62.93 112.5-64.67zm374.86 62.63c61.88-35.62 112.95-64.64 113.5-64.51 0.55 0.14 51.18 29.38 112.5 64.99 61.33 35.6 111.83 65.03 112.24 65.39 0.4 0.36 0.45 59.16-0.52 260.66l-7.11 4.14c-3.91 2.28-54.81 31.53-113.11 65-90.55 51.99-106.22 60.67-107.5 59.53-0.82-0.73-48.07-28.33-105-61.33-56.92-33-106.76-61.88-117.98-68.34l0.48-260.78zm595.28-63.77l4.11 2.34c2.26 1.3 52.94 30.69 221.11 128.28l0.33 11.34c0.18 6.24 0.03 64.89-0.98 249.34l-109.57 63c-60.26 34.65-110.97 63.84-115.78 66.71l-225.63-130.71 0.63-260.61 4-2.26c2.2-1.24 51.25-29.38 109-62.54 57.75-33.15 106.75-61.32 108.89-62.59zm370.09 65.78c80.66-46.62 112.42-64.49 113.56-63.91 0.86 0.45 51.52 29.8 223.57 129.61l0.31 68.42c0.18 37.62-0.05 96.43-1.31 192.95l-8.5 4.87c-4.68 2.67-55.19 31.69-112.25 64.48-57.06 32.78-103.98 59.61-104.25 59.61-0.28 0-49.89-28.66-110.25-63.68-60.36-35.02-110.99-64.38-115.24-66.82l0.14-83c0.07-45.65 0.61-104.33 2.23-177.81zm588.07-60.13c5.39-3.23 6.17-3.44 8.5-2.25 1.41 0.72 52.06 30.06 222.56 129.08l0.3 260.83-10.15 5.83c-5.58 3.21-56.5 32.42-216.15 123.97l-5-2.84c-2.75-1.57-51.57-29.9-108.5-62.97-56.92-33.06-105.45-61.21-112.16-64.99l0.67-130c0.62-119.38 0.81-130.11 2.34-131.33 0.91-0.72 48.9-28.42 106.65-61.55 57.75-33.13 107.67-61.83 110.94-63.78zm485.46-0.91c1.32-0.97 2.67-1.63 3-1.47 0.33 0.15 46.73 27.06 103.1 59.8 56.38 32.73 107 62.15 122.5 71.24l-0.43 260-5.78 3.26c-3.18 1.79-7.81 4.43-10.29 5.87-2.47 1.43-50.4 28.94-106.5 61.13-56.1 32.19-102.56 58.69-103.25 58.88-0.68 0.2-51.94-29-226.54-130.14l0.65-50c0.35-27.5 0.64-86.11 0.64-210.5l110.25-63.16c60.64-34.74 111.33-63.95 112.65-64.91zm403.1 46.66c44.28-25.52 81.07-46.44 81.75-46.49 0.69-0.06 51.54 29.1 224.75 129.67l0.5 261.23-6.75 3.68c-3.71 2.03-54.45 31.09-112.75 64.58-58.3 33.49-106.67 60.71-107.5 60.49-0.82-0.22-51.67-29.55-224.5-129.94l0.19-5.16c0.11-2.83 0.2-61.4 0.24-255.15l31.79-18.26c17.48-10.04 68.01-39.14 112.28-64.65zm450.5 19.02c61.6-35.43 112.68-64.45 113.5-64.49 0.83-0.03 3.98 1.47 7 3.33 3.03 1.86 6.18 3.53 7 3.72 0.82 0.18 1.95 0.84 2.5 1.46 0.55 0.63 44.65 26.46 98 57.4 53.35 30.95 100.15 58.11 111 64.47l-1 260.61-113 64.87c-64.14 36.82-113.43 64.53-114 64.07-0.55-0.44-49.82-29.14-109.5-63.79-59.67-34.65-109.85-63.69-114.5-66.05l1-261.16zm517.5-19.08c42.63-24.5 77.98-44.42 78.56-44.29 0.58 0.14 51.43 29.47 113 65.18 61.57 35.7 111.95 64.95 111.95 65 0.01 0.04-0.22 58.77-1.01 260.94l-5.5 3.16c-3.02 1.74-45.32 26.03-94 53.98-48.67 27.95-96.82 55.65-125.5 72.3l-110.5-63.97c-60.77-35.18-111.51-64.61-115-66.84l0.01-260.5 35.25-20.22c19.38-11.12 70.12-40.25 112.74-64.74zm446.8 21.26c61.98-35.58 112.93-64.73 113.2-64.78 0.28-0.04 5.45 2.77 11.5 6.26 6.05 3.48 56.23 32.59 111.5 64.67 55.28 32.08 101.05 58.83 101.72 59.44 0.94 0.87 1.05 29.79-0.22 260.97l-5 2.94c-2.75 1.62-53.48 30.79-220.5 126.7l-110.25-64.13c-60.63-35.27-111.27-64.63-114.8-66.37l0.14-261zm595.49-63.76l5.61 3.19c3.08 1.75 53.53 30.99 112.11 64.98 58.57 33.98 106.88 61.9 107.36 62.04 0.48 0.14 0.54 57.72-0.61 261.25l-7.13 4.06c-3.92 2.23-53.02 30.41-109.12 62.62-56.1 32.22-103.58 59.53-109 62.82l-108-62.61c-59.4-34.44-110.14-63.8-117.48-67.89l-0.01-106c0-58.3 0.33-117.12 1.49-155.42l77-44.23c42.35-24.33 92.92-53.37 112.39-64.52zm482.09 1.03l5.71 3.21c3.14 1.77 53.89 31.12 219.84 127.22l0.03 73c0.02 40.15-0.25 98.87-1.23 188l-2.61 1.59c-1.44 0.88-52.12 30-112.62 64.72-95.6 54.85-110.26 62.96-112 61.99-1.1-0.62-51.27-29.68-111.5-64.58-60.22-34.9-110.08-63.97-110.79-64.59-1.04-0.91-1.29-16.05-1.25-76.63 0.02-41.53 0.33-100.03 1.32-184.5l112.55-64.72zm417.48 38.22c35.55-20.46 64.64-37.24 64.64-37.27 0-0.04 50.62 29.35 225 130.68l0.31 105.4c0.17 57.97 0.03 116.65-0.95 155.4l-6.68 3.96c-3.67 2.18-6.79 4.32-6.93 4.75-0.14 0.43-0.7 0.79-1.25 0.79-0.55 0-46.79 26.27-102.75 58.37-55.96 32.11-103.1 59.16-107.75 61.85l-112-65.1c-61.6-35.8-112.38-65.21-112.85-65.36-0.46-0.14-0.51-58.99 0.65-261.26l47.96-27.5c26.38-15.13 77.05-44.24 112.6-64.71zm436 27.61c105.02-60.41 110.67-63.52 113.09-62.3 1.4 0.71 52.05 30.02 222.55 128.96l0.48 260.94-5.74 3.23c-3.16 1.77-6.87 3.89-8.24 4.7-1.38 0.82-49.3 28.36-106.5 61.21-57.2 32.85-104.68 59.75-105.5 59.79-0.83 0.04-52-29.18-225.93-129.93l0.58-130c0.57-129.57 0.58-130.01 2.62-131.5 1.13-0.83 51.79-30.12 112.59-65.1z"/>
</svg>