<svg version="1.2" xmlns="http://www.w3.org/2000/svg" viewBox="0 0 1120 1120" width="1120" height="1120">
	<defs>
		<linearGradient id="g1" x2="1" gradientUnits="userSpaceOnUse" gradientTransform="matrix(-729.58,309.689,-276.568,-651.554,976.514,483.576)">
			<stop offset="0" stop-color="#c79335"/>
			<stop offset=".243" stop-color="#ffc400"/>
			<stop offset=".509" stop-color="#c79334"/>
			<stop offset=".769" stop-color="#fec301"/>
			<stop offset="1" stop-color="#c79334"/>
		</linearGradient>
	</defs>
	<style>
		.s0 { fill: url(#g1) } 
		.s1 { fill: #2a2929 } 
		.s2 { fill: #282827 } 
	</style>
	<g id="Logo">
		<path id="Path 0" fill-rule="evenodd" class="s0" d="m465 105.68c-2.48 1.46-28.46 18.56-57.75 37.99-29.29 19.43-53.88 36.34-54.65 37.58-0.77 1.24-1.7 3.6-2.07 5.25-0.36 1.65 0.05 9.07 0.92 16.5 0.86 7.43 1.94 20.7 2.39 29.5 0.45 8.8 1.34 17.01 1.99 18.25 0.64 1.24 2.63 3.15 4.42 4.25 1.79 1.09 4.37 2 5.75 2 1.37 0.01 3.4-0.59 4.5-1.33 1.1-0.74 3.12-3.1 4.5-5.26 2.45-3.83 2.51-4.43 3-27.94 0.49-23.35 0.57-24.17 3.06-29 1.83-3.54 3.96-5.83 7.44-7.97q4.88-3 9.94-3.38c2.78-0.21 6.86 0.22 9.06 0.96 2.2 0.73 5.3 2.48 6.89 3.88 1.59 1.39 4.06 4.79 5.5 7.54l2.61 5c-0.49 38.25-0.21 48.02 0.45 49.75 0.58 1.51 2.74 4.61 4.8 6.87 2.06 2.27 6 5.26 8.75 6.65 3.77 1.9 6.6 2.53 11.5 2.56 5.17 0.04 7.42-0.48 11-2.5 2.48-1.39 6.16-4.52 8.18-6.93 2.02-2.42 4.9-7.1 6.4-10.4 2.53-5.59 2.69-6.69 2.22-16-0.44-8.68-1.06-11.45-4.75-21-2.33-6.05-5.58-14.6-7.22-19-1.65-4.4-3.24-10.93-3.54-14.5-0.38-4.46-0.06-8.23 1.04-12 0.88-3.03 3.08-7.27 4.89-9.43 1.8-2.16 5.08-4.74 7.28-5.73 2.2-0.99 5.91-1.81 8.25-1.82 2.34-0.01 6.16 0.75 8.5 1.69 2.34 0.94 8.86 5.22 14.5 9.5 5.64 4.28 12.39 8.92 15 10.3 2.61 1.38 6.55 2.78 8.75 3.12 2.2 0.33 5.69 0.33 7.75-0.01 2.81-0.46 4.25-1.44 5.75-3.87 1.22-1.98 1.99-5 1.99-7.75 0-2.48-0.5-6.3-1.1-8.5-0.82-2.98-3.3-6.17-9.75-12.5-7.14-7.02-11.16-9.93-23.14-16.7-7.98-4.51-19-10.48-24.5-13.27-5.58-2.83-11.33-5.06-13-5.04-1.65 0.02-5.02 1.23-7.5 2.69zm10.5 50.32c-1.65 1.09-2.44 1.99-1.75 1.99 0.79 0.01 1.16 1.18 1 3.19-0.23 2.93 0.05 3.25 3.5 4 2.06 0.45 8.7 3.29 14.75 6.32 6.05 3.02 11.56 5.51 12.25 5.53 0.69 0.01 2.6 1.09 4.25 2.39 1.65 1.29 9.08 5.62 16.5 9.6 7.42 3.99 15.19 8.31 17.25 9.62 2.06 1.3 4.87 3.82 6.23 5.61 1.41 1.85 2.88 5.61 3.41 8.75 0.51 3.02 1.47 20.8 2.13 39.5 0.89 25.11 0.92 35.11 0.09 38.25-0.61 2.34-2.57 5.81-4.36 7.71-1.79 1.9-3.81 3.48-4.5 3.5-0.81 0.03-0.34-1.64 1.31-4.71l2.56-4.75c-1.73-46.5-2.59-64.5-3.01-70-0.64-8.18-1.22-10.62-3.19-13.42-1.33-1.88-4.33-4.69-6.67-6.25-2.34-1.56-4.36-2.83-4.5-2.83-0.14 0-10.6-5.64-23.25-12.54-12.65-6.89-25.7-13.92-29-15.61-3.49-1.79-6.73-2.82-7.75-2.46-0.96 0.33-1.75 1.51-1.75 2.61 0 1.1-0.45 1.77-1 1.5-0.55-0.28-1.23-0.05-1.5 0.5-0.27 0.55 1.09 5.84 3.03 11.75 1.95 5.91 4.98 14.3 6.75 18.65l3.22 7.89c16.29 9.67 21.37 13.46 22.51 15.21 1.39 2.15 2.23 6.12 2.96 14 0.56 6.05 1.7 24.73 2.53 41.5 0.84 16.77 1.51 34.66 1.51 39.75l-0.01 9.25c-13.56 8.3-19.41 11.67-21.75 12.85-2.34 1.18-5.82 2.15-7.75 2.15-2.52 0-9.44-3.12-24.75-11.16-11.69-6.13-27.32-14.51-34.75-18.61-7.43-4.11-14.56-8.42-15.85-9.6-1.28-1.17-2.97-3.37-3.75-4.88-0.94-1.84-1.71-9.11-2.34-22-0.52-10.59-1.25-28.25-1.62-39.25-0.48-14.54-0.33-21.23 0.56-24.5 0.79-2.88 2.57-5.76 4.95-8 2.05-1.93 4.92-4.29 6.39-5.25 1.46-0.96 2.68-2.54 2.69-3.5 0.02-0.96-0.88-2.99-2-4.5-1.11-1.51-3.38-3.43-5.03-4.25-1.65-0.82-4.13-1.5-5.5-1.5-1.38 0-4.13 0.79-6.12 1.75-1.99 0.96-4.57 3.32-5.75 5.25-1.97 3.24-2.17 5.32-2.7 27.5-0.48 20.46-0.84 24.66-2.46 28.5-1.79 4.26-1.84 5.89-0.83 30.5 0.92 22.74 1.31 26.5 3.07 30 1.1 2.2 3.76 5.4 5.9 7.1 2.14 1.71 8.84 6.03 14.89 9.61 6.05 3.57 21.35 12.36 34 19.51 12.65 7.16 25.81 14.43 29.25 16.15 4.92 2.46 7.52 3.13 12.25 3.13 3.3 0 7.24-0.62 8.75-1.38 1.51-0.76 7.48-4.44 13.25-8.17 5.77-3.73 22.87-14.96 38-24.95 15.12-10 28.44-19.48 29.6-21.09 1.15-1.6 2.89-4.48 3.87-6.41 1.67-3.28 1.71-5.39 0.62-34-0.64-16.77-1.6-40.06-2.13-51.75-0.79-17.45-1.3-21.92-2.84-25-1.03-2.06-3.84-5.37-6.25-7.36-2.4-1.98-7.07-5.13-10.37-7-5.94-3.35-6.13-3.39-18.5-3.39-10.52 0-13.21-0.33-17-2.07-2.48-1.14-8.77-5.16-14-8.94-5.23-3.78-11.64-8.36-14.25-10.18-3.33-2.32-5.87-3.31-8.5-3.3-2.06 0-5.1 0.9-6.75 1.99zm-24.2 77.25c1.12-1.24 3.2-2.26 4.62-2.28 1.42-0.01 3.58 1 4.79 2.25 1.22 1.26 2.51 3.63 2.86 5.28 0.42 1.92 0.07 4.17-0.96 6.25-0.89 1.79-2.74 3.81-4.11 4.5-2 1-3 1-5 0-1.38-0.69-3.18-2.82-4-4.75-0.88-2.04-1.24-4.64-0.87-6.25 0.35-1.51 1.55-3.76 2.67-5zm-211.09 93.42c-0.71 0.29-4.65 4.75-8.75 9.92-4.1 5.18-10.95 12.85-15.21 17.06-4.26 4.2-12.93 11.78-19.25 16.83-6.32 5.06-22.75 17.01-36.5 26.56-17.44 12.13-27.43 19.81-33.04 25.42-6.57 6.56-8.57 9.33-10.9 15.04-2.46 6.06-2.95 8.95-3.63 21.5-0.43 7.98-0.81 25.52-0.86 39-0.07 21.34-0.41 26.57-2.67 40.5-1.51 9.32-2.35 17.57-2 19.75 0.33 2.06 1.39 5.64 2.35 7.96 1.08 2.59 3.28 5.28 5.75 7.02 2.23 1.58 5.33 2.83 7 2.83 1.65 0.01 4.12-0.83 5.5-1.85 1.37-1.03 3.51-3.85 4.74-6.29 2.07-4.11 2.23-5.75 2.25-23.42 0-10.45-0.49-28.45-1.1-40-0.78-15-0.8-23.71-0.03-30.5 0.58-5.23 1.6-11.3 2.25-13.5 0.73-2.47 3.04-5.81 6.04-8.75 3.86-3.78 10.11-7.38 30.6-17.62 17.68-8.84 27.32-13.11 30.75-13.6 3.53-0.52 5.67-0.33 7.29 0.62 1.26 0.74 3.17 3.26 4.25 5.6 1.08 2.34 2.24 6.84 2.58 10 0.34 3.16 0.09 16.1-0.54 28.75l-1.16 23c3.55 3.69 6.04 5.37 7.83 6.13 1.79 0.75 4.49 1.35 6 1.33 1.81-0.03 3.86-1.22 6-3.5 2.98-3.17 3.25-4 3.25-9.96 0-3.57-0.72-12.46-1.6-19.75-1.08-8.94-1.41-16.99-1.02-24.75 0.32-6.32 1.08-14.2 1.69-17.5 0.61-3.3 2.41-8.48 4-11.5 1.97-3.74 5.06-7.28 9.66-11.06 3.72-3.05 15.09-11.35 25.27-18.43 12.11-8.43 21.47-15.84 27.1-21.44 6.99-6.97 9.02-9.69 10.84-14.57 1.22-3.3 2.3-7.74 2.39-9.86 0.12-2.6-0.37-4.23-1.48-5-1.36-0.95-3.14 0.09-10.5 6.15-4.87 4-11.33 8.48-14.35 9.94-3.84 1.86-7.17 2.68-11.02 2.72-4.33 0.04-7.03-0.69-12.5-3.38-5.07-2.48-8.9-5.43-13.98-10.75-5.2-5.44-7.64-7.3-9.5-7.24-1.38 0.04-3.08 0.31-3.79 0.59zm755.79 247.13c-3.58 2.09-27.31 17.62-52.75 34.5-38.07 25.27-46.25 31.1-46.27 32.95-0.01 1.24 1.85 6.75 4.12 12.25 2.28 5.5 4.79 13.15 5.57 17 1.11 5.45 1.18 8.11 0.33 12-0.61 2.75-3.33 12.09-6.05 20.75-4.43 14.09-4.95 16.72-4.96 25-0.02 8.44 0.23 9.65 2.81 13.75 1.55 2.48 4.82 6.2 7.26 8.27 2.44 2.08 6.02 4.05 7.94 4.39 1.92 0.34 5.97 0.39 9 0.11 3.02-0.28 7.08-1.31 9-2.3 1.92-0.99 5.8-4.09 8.62-6.89 4.01-3.98 5.5-6.38 6.88-11.08 1.1-3.78 1.55-7.66 1.22-10.5-0.3-2.48-2.79-11.25-5.53-19.5-2.75-8.25-5.56-17.92-6.25-21.5-0.75-3.88-1.02-9.72-0.67-14.5 0.31-4.4 1.55-10.92 2.74-14.5 1.2-3.58 4.1-9.42 6.46-13 2.73-4.13 8.44-10.17 15.66-16.56 6.25-5.53 14.74-12.92 18.87-16.42 4.12-3.5 10.6-9.1 14.38-12.44 3.79-3.34 8.42-8.1 10.29-10.58 2.13-2.83 3.38-5.61 3.37-7.5-0.01-1.65-0.7-4.01-1.53-5.25-0.83-1.24-2.07-2.25-2.76-2.25-0.69-0.01-4.17 1.7-7.75 3.8zm-70.9 134.69c1.87-0.78 4.75-1.44 6.4-1.48 1.86-0.04 3.85 0.8 5.24 2.21 1.22 1.26 2.72 4.08 3.31 6.28 0.82 3 0.78 4.75-0.14 7-0.68 1.65-2.17 4.02-3.32 5.28-1.47 1.6-3.19 2.26-5.84 2.25-2.64-0.02-4.49-0.77-6.25-2.53-1.38-1.37-2.56-3.74-2.64-5.25-0.08-1.51-0.13-3.87-0.1-5.25 0.02-1.37 0.02-3.53-0.01-4.8-0.04-1.69 0.84-2.67 3.35-3.71zm-16.7 27.51c1.04-1.1 2.95-2 4.25-2 1.32 0 3.01 0.98 3.87 2.25 1.07 1.59 1.26 2.99 0.65 4.75-0.48 1.37-1.5 2.8-2.27 3.17-0.77 0.37-2.42 0.37-3.67 0-1.25-0.37-2.82-1.91-3.5-3.42-1.06-2.37-0.97-3.02 0.67-4.75zm-761.54-92.4c-1.15 1.35-1.14 2.09 0.04 4.75 0.77 1.73 3.33 8.78 5.69 15.65 2.35 6.88 4.99 15.99 5.85 20.25 0.86 4.26 1.56 10.79 1.55 14.5 0 3.71-0.45 9.45-1 12.75-0.54 3.3-3.53 14.1-6.64 24-4.94 15.76-5.66 19.08-5.75 26.69-0.1 8.64-0.08 8.71 3.4 12.24 2.41 2.44 4.75 3.74 7.5 4.16 2.2 0.34 5.91 0.34 8.25 0.01 2.8-0.39 5.5-1.71 7.91-3.85 2.01-1.79 4.26-4.71 5-6.5 0.98-2.37 1.35-9.16 1.37-25l0.04-21.75c4.25-6.2 7.05-8.82 8.96-9.81 2.57-1.35 5.02-1.71 9.47-1.42 4.17 0.28 7.63 1.29 11.36 3.32 2.94 1.6 6.98 4.93 8.96 7.41 1.98 2.48 4.68 7.2 6 10.5 1.32 3.3 3.27 10.27 4.35 15.5 1.68 8.18 2.13 17.07 3.19 64 1.18 51.9 1.34 54.69 3.32 58.5 1.14 2.2 4.04 5.62 6.45 7.6 2.4 1.98 7.97 6.01 12.37 8.96 4.4 2.94 21.05 12.62 37 21.5 15.95 8.88 31.47 17.62 34.5 19.41 3.02 1.79 8.06 5.11 11.18 7.39 3.19 2.32 7.26 6.55 9.28 9.64l3.6 5.5c-0.06 47.09 0.12 49.87 1.83 53.25 1.05 2.06 2.89 4.65 4.11 5.75 1.4 1.27 3.61 2 6.03 2 2.33 0 4.93-0.82 6.65-2.1 1.55-1.16 3.61-3.41 4.59-5 1.19-1.97 2.08-6.6 2.74-14.4 0.55-6.33 1.44-15.89 1.99-21.25 0.7-6.88 1.74-11.22 3.5-14.75 1.9-3.81 3.28-5.24 5.75-6.02 1.79-0.56 4.49-1.01 6-1 1.51 0.01 3.65 0.47 4.75 1.02 1.1 0.55 2.89 2.46 3.99 4.25 1.4 2.29 2.59 7.82 4.03 18.75 1.16 8.82 2.78 16.95 3.76 18.87 0.95 1.85 3.07 4.2 4.72 5.22 1.65 1.01 4.35 1.85 6 1.86 1.65 0 4.8-0.82 7-1.84 2.2-1.02 5.12-3.07 6.5-4.56 2.26-2.45 2.49-3.51 2.43-10.88-0.05-6.35-0.81-10.51-3.4-18.67-2.81-8.88-3.34-12.08-3.43-20.79-0.08-8.01-0.43-10.48-1.6-11.16-0.92-0.53-2.86-0.37-5 0.43-1.93 0.71-7.1 2.75-11.5 4.52-4.4 1.77-9.69 3.85-11.75 4.61-3.62 1.34-3.99 1.26-10.5-2.25-3.71-2-27.23-15.12-52.25-29.16-25.03-14.03-53.15-29.87-62.5-35.2l-17-9.68-1-161.81c-81.38-44.48-105.74-57.42-106.64-57.45-0.9-0.03-2.25 0.66-3 1.54zm21.72 104.59c0.9-1.27 2.15-2.14 2.78-1.92 0.63 0.21 1.81 1.57 2.64 3 1.14 2 1.26 3.28 0.48 5.42-0.74 2.02-1.71 2.81-3.44 2.81-1.93 0-2.58-0.7-3.26-3.5-0.64-2.66-0.45-4.05 0.8-5.81zm-12.33 4.48c0.69-0.28 2.26-0.55 3.5-0.59 1.51-0.05 2.91 0.99 4.25 3.17 1.09 1.79 1.99 4.71 2 6.5 0 1.79-0.68 4.6-1.5 6.25-0.83 1.65-2.29 3.38-3.25 3.84-0.96 0.47-2.88 0.56-4.25 0.21-1.38-0.36-3.06-1.75-3.74-3.1-0.67-1.35-1.24-4.14-1.25-6.2 0-2.06 0.67-5.06 1.49-6.66 0.83-1.6 2.07-3.14 2.75-3.42zm575.98-621.04c-1.25 0.25-9.23 5.05-17.73 10.67-8.5 5.61-25.46 16.95-37.69 25.2-12.24 8.25-23.56 16.13-25.17 17.5-1.6 1.38-4.06 4.53-5.47 7l-2.55 4.5c1.94 56.57 2.87 80.2 3.32 89 0.56 11.06 1.29 16.93 2.35 19 0.85 1.65 3.04 4.41 4.87 6.13 1.84 1.72 7.84 5.82 13.34 9.11 5.5 3.28 22.83 13.14 38.5 21.89 15.67 8.76 30.3 16.74 32.5 17.75 2.88 1.31 5.26 1.65 8.5 1.22 2.84-0.37 7.64-2.46 13-5.65 4.67-2.79 23.1-14.83 40.95-26.76 20.74-13.86 33.56-23.08 35.5-25.53 2.81-3.54 3.08-4.57 3.42-13 0.2-5.04-0.17-23.34-0.81-40.66-0.65-17.32-1.6-38.03-2.11-46-0.83-12.97-1.19-14.9-3.44-18.25-1.38-2.06-4.42-5.03-6.76-6.61-2.34-1.57-15.73-9.5-29.75-17.62-14.02-8.13-31.35-17.97-38.5-21.87-11.23-6.14-13.75-7.13-18.5-7.29-3.02-0.11-6.52 0.02-7.77 0.27zm0.09 24.65c1.75-0.68 4.98-1.03 7.18-0.79 2.2 0.24 7.6 2.18 12 4.31 4.4 2.13 17.23 8.95 28.5 15.16 11.27 6.21 23.09 12.81 26.25 14.66 3.92 2.3 6.36 4.57 7.66 7.13 1.05 2.06 2.18 6.45 2.51 9.75 0.32 3.3 1.06 16.13 1.63 28.5 0.56 12.38 1.05 27.68 1.08 34 0.03 6.42-0.45 12.82-1.1 14.5-0.63 1.65-2.59 4.47-4.34 6.27-1.76 1.8-3.53 3.26-3.94 3.25-0.41-0.01 0.22-2.16 1.4-4.77 2.08-4.59 2.13-5.55 1.45-28.25-0.38-12.93-1.12-30.59-1.65-39.25-0.59-9.77-1.52-17.08-2.45-19.25-0.86-2.01-3.31-4.71-5.75-6.34-2.34-1.57-10.77-6.45-18.75-10.86-7.98-4.41-21.02-11.53-29-15.81-10.46-5.61-16.23-8.09-20.7-8.88-3.41-0.61-5.97-1.33-5.68-1.61 0.29-0.28 1.95-1.05 3.7-1.72zm-37.82 26.3c1.65-0.86 4.35-1.57 6-1.57 1.65 0 4.58 0.44 6.5 0.97 1.92 0.54 7.55 3.28 12.5 6.1 4.95 2.82 17.1 9.91 27 15.76 9.9 5.85 18.78 11.54 19.74 12.65 0.96 1.1 2.39 4.26 3.18 7.01 0.94 3.24 2 16.78 3.01 38.5 0.87 18.43 1.87 39.57 2.87 60.5l-4.4 2.59c-2.42 1.42-8.23 4.95-12.9 7.83-8.04 4.96-8.77 5.22-13.5 4.66-3.3-0.38-8.91-2.59-16.5-6.49-6.33-3.24-22.08-11.73-35-18.85-20.66-11.38-23.77-13.41-25.75-16.84-2.01-3.48-2.36-6.02-3.21-23.4-0.53-10.73-0.98-30.19-1.04-67l2.85-3.25c1.57-1.79 7.98-6.48 14.25-10.42 6.27-3.95 12.75-7.88 14.4-8.75zm-229.5 43.62c0.77-0.66 1.65-1.21 1.95-1.22 0.3-0.01 1.12 0.56 1.82 1.25 0.69 0.7 1.26 2.51 1.25 4.02-0.01 1.54-0.68 2.97-1.52 3.25-0.83 0.28-2.2-0.06-3.04-0.75-0.85-0.69-1.62-2.17-1.7-3.3-0.09-1.13 0.47-2.59 1.24-3.25zm408.5 138.55c-1.1 0.28-9.65 5.47-19 11.53-9.35 6.06-27.08 17.82-39.41 26.12-12.74 8.58-23.85 16.83-25.76 19.1-2.22 2.65-3.57 5.51-4 8.5-0.36 2.48-0.1 21.15 0.59 41.5 0.68 20.35 1.6 43.08 2.05 50.5 0.51 8.43 1.37 14.63 2.3 16.5 0.82 1.65 3.23 4.6 5.36 6.55 2.13 1.95 9.27 6.73 15.87 10.64 6.6 3.9 22.12 12.7 34.5 19.56 12.37 6.86 25.31 13.89 28.75 15.61 4.93 2.48 7.52 3.14 12.25 3.14 5.17 0 6.8-0.5 11.75-3.62 3.16-1.99 9.35-5.93 13.75-8.74 4.4-2.82 19.7-12.92 34-22.44 14.3-9.53 27.69-19.21 29.76-21.51 3.07-3.41 3.88-5.21 4.39-9.69 0.35-3.02 0.09-21.48-0.56-41-0.65-19.52-1.61-41.91-2.14-49.75-0.57-8.53-1.52-15.35-2.37-17-0.78-1.51-3.14-4.38-5.25-6.38-2.11-2-9-6.57-15.33-10.16-6.33-3.59-23.88-13.56-39-22.16-15.13-8.59-29.08-16.06-31-16.58-1.92-0.53-4.85-0.91-6.5-0.85-1.65 0.06-3.9 0.34-5 0.63zm-1.04 25.3c1.67-0.53 5.29-0.82 8.04-0.63 3.88 0.26 8.35 2.07 20 8.09 8.25 4.27 21.08 11.14 28.5 15.28 7.42 4.13 15.86 9.02 18.75 10.86 3.43 2.19 5.94 4.74 7.25 7.35 1.32 2.63 2.34 7.68 3 14.75 0.54 5.91 1.27 24.02 2.21 69.75l-3.1 4.75c-1.71 2.61-4.01 5.2-5.11 5.75-1.1 0.55-2 0.77-2 0.5 0-0.27 0.99-2.19 2.19-4.25 2.16-3.69 2.19-4.17 1.49-29.25-0.39-14.02-1.15-32.25-1.7-40.5-0.87-13.11-1.29-15.44-3.34-18.5-1.62-2.41-6.37-5.88-15.24-11.13-7.1-4.2-20.55-11.81-29.9-16.92-9.35-5.11-18.35-10.11-20-11.12-2.06-1.25-4.97-1.82-9.25-1.83-3.91 0-5.98-0.37-5.54-0.98 0.39-0.55 2.08-1.43 3.75-1.97zm-35.46 25.26c1.92-0.67 4.74-1.24 6.25-1.27 1.51-0.02 5.79 1.59 9.5 3.57 3.71 1.99 10.8 5.99 15.75 8.89 4.95 2.91 15.64 9.15 23.75 13.89 13.35 7.79 14.93 9.01 16.69 12.86 1.47 3.22 2.19 8.24 2.99 20.75 0.58 9.07 1.72 29.32 2.55 45 0.82 15.67 1.72 30.52 2.49 37.5l-11.23 6.71c-6.18 3.69-12.59 7.2-14.24 7.8-1.7 0.63-4.74 0.81-7 0.42-2.2-0.37-8.28-2.82-13.5-5.44-5.23-2.61-19.17-10.03-31-16.47-11.83-6.44-23.28-12.91-25.45-14.37-2.18-1.46-4.99-4.23-6.25-6.15-1.62-2.48-2.43-5.54-2.8-10.5-0.29-3.85-0.97-18.14-1.51-31.75-0.54-13.61-0.99-28.91-0.98-34 0-5.09 0.42-10.82 0.94-12.75 0.52-1.93 2.2-4.78 3.75-6.35 1.54-1.57 7.97-6.06 14.3-9.98 6.33-3.92 13.08-7.68 15-8.36zm-230.5-39.62c-1.65 0.88-19.42 12.5-39.5 25.82-23.2 15.39-38.05 25.9-40.75 28.85-3.3 3.6-4.4 5.71-4.92 9.39-0.36 2.61-0.1 21.85 0.58 42.75 0.69 20.9 1.61 43.4 2.05 50 0.61 9.03 1.33 13.05 2.92 16.25 1.17 2.34 3.58 5.32 5.37 6.62 1.79 1.31 8.42 5.32 14.75 8.91 6.33 3.59 22.97 13.04 37 21 14.02 7.95 27.08 15.25 29 16.21 2.66 1.33 5.19 1.65 10.5 1.33l7-0.42c49.6-32.29 67.6-44.26 72-47.43 4.4-3.18 8.97-6.83 10.15-8.12 1.19-1.29 2.74-4.37 3.45-6.85 1.05-3.66 1.06-11.39 0.06-41.5-0.68-20.35-1.67-43.64-2.2-51.75-0.56-8.59-1.53-15.9-2.33-17.5-0.76-1.51-2.9-4.12-4.75-5.79-1.86-1.67-8.78-6.22-15.38-10.11-6.6-3.9-20.78-12.04-31.5-18.09-10.73-6.06-23.89-13.32-29.25-16.14-8.52-4.47-10.48-5.11-15.5-5.08-3.3 0.02-7.03 0.73-8.75 1.65zm1.5 24.03c1.92-0.9 4.85-1.67 6.5-1.7 1.65-0.03 4.58 0.49 6.5 1.15 1.92 0.66 15.42 7.56 30 15.33 14.58 7.77 29.09 15.79 32.25 17.81 3.88 2.49 6.4 4.99 7.75 7.69 1.49 2.97 2.26 7.53 3.01 17.75 0.56 7.56 1.3 25.45 1.65 39.75 0.62 24.91 0.56 26.17-1.41 30-1.12 2.2-3.22 5.24-4.65 6.75-1.43 1.51-2.83 2.64-3.11 2.5-0.28-0.14 0.39-2.27 1.48-4.75 1.6-3.62 1.99-6.75 2.01-16 0.02-6.33-0.44-21.85-1.03-34.5-0.58-12.65-1.41-25.93-1.83-29.5-0.47-3.91-1.65-7.79-2.95-9.75-1.4-2.1-6.32-5.67-13.92-10.11-6.46-3.77-21.42-11.96-33.25-18.21-17.39-9.18-22.55-11.47-32.5-12.56zm-33 24.19c1.37-0.41 2.95-0.77 3.5-0.8 0.55-0.04 3.48 0.95 6.5 2.18 3.02 1.24 12.92 6.48 22 11.64 9.08 5.17 20.33 11.76 25 14.64 4.67 2.89 9.48 6.3 10.68 7.59 1.2 1.28 2.71 3.69 3.35 5.34 0.65 1.65 1.98 18 2.98 36.5 0.99 18.42 2.14 40.47 3.32 64.5l-12.92 7.76c-7.89 4.75-13.98 7.77-15.66 7.75-1.51-0.01-4.89-0.74-7.5-1.62-2.61-0.88-18.02-8.83-34.25-17.65-16.23-8.83-31.21-17.22-33.3-18.65-2.09-1.43-4.51-4.17-5.37-6.09-0.99-2.22-1.87-8.65-2.4-17.5-0.47-7.7-1.17-25.93-2.28-67l2.42-4.93c1.91-3.89 3.92-5.92 9.43-9.59 3.85-2.56 10.37-6.6 14.5-8.99 4.12-2.38 8.62-4.67 10-5.08zm-229.5-40.71c-1.65 0.63-7.28 3.84-12.5 7.14-5.23 3.29-15.58 10.03-23 14.98-7.43 4.95-20.48 13.82-29 19.71-8.53 5.9-17.19 12.58-19.25 14.84-2.81 3.1-3.91 5.31-4.39 8.88-0.35 2.61-0.1 20.95 0.57 40.75 0.66 19.8 1.57 42.3 2.03 50 0.53 9.09 1.36 15.05 2.35 17 0.83 1.65 3.02 4.41 4.85 6.14 1.84 1.72 8.96 6.48 15.84 10.56 6.87 4.08 19.7 11.4 28.5 16.26 8.8 4.87 20.27 11.34 25.5 14.38 5.22 3.04 11.52 6.13 14 6.86 2.47 0.73 6.19 1.32 8.25 1.31 2.06-0.01 4.99-0.5 6.5-1.1 1.51-0.6 9.5-5.41 17.75-10.68 8.25-5.27 25.35-16.4 38-24.74 14.73-9.71 24.35-16.75 26.76-19.58 2.64-3.1 3.94-5.75 4.39-8.91 0.36-2.48 0.11-20.93-0.54-41-0.65-20.08-1.57-42.8-2.04-50.5-0.55-9.05-1.39-15.07-2.37-17-0.84-1.65-3.03-4.42-4.86-6.14-1.84-1.72-6.72-5.14-10.84-7.6-4.13-2.45-15.83-9.2-26-15-10.18-5.8-23.68-13.42-30-16.94-6.33-3.51-13.3-7.23-15.5-8.26-2.2-1.03-5.8-2.02-8-2.2-2.2-0.17-5.35 0.21-7 0.84zm-2.5 25.49c2.64-1.31 4.98-1.61 9.5-1.2 5.17 0.46 8.57 1.91 24.5 10.41 10.17 5.43 23.22 12.45 29 15.59 5.77 3.14 12.41 7.02 14.75 8.61 2.47 1.68 5.13 4.68 6.36 7.15 1.65 3.33 2.29 7.26 2.98 18.25 0.48 7.7 1.18 25.02 1.55 38.5 0.38 13.47 0.41 25.62 0.08 27-0.34 1.37-1.98 4.41-3.66 6.75-1.69 2.33-3.51 4.02-4.06 3.75-0.63-0.32-0.44-1.81 0.5-4 1.05-2.45 1.5-7.03 1.5-15.25 0-6.47-0.47-22.78-1.04-36.25-0.57-13.48-1.54-26.98-2.16-30-0.77-3.8-2.07-6.5-4.21-8.73-1.7-1.77-8.72-6.3-15.59-10.07-6.88-3.76-21.28-11.53-32-17.27-16.9-9.04-20.3-10.51-31.5-11.51zm-35 25.65c3.02-1.26 5.72-2.31 6-2.33 0.27-0.02 2.52 0.57 5 1.3 2.47 0.74 12.6 6.01 22.5 11.71 9.9 5.7 22.39 13.2 27.75 16.67 5.92 3.83 10.51 7.59 11.68 9.56 1.06 1.79 2.19 5.95 2.49 9.25 0.31 3.3 1.46 23.1 2.54 44 1.09 20.9 2.22 40.59 3.04 49.5l-8.75 5.41c-4.81 2.98-11 6.59-13.75 8.03-2.75 1.43-6.35 2.61-8 2.61-1.7 0.01-9.08-2.98-17-6.88-7.7-3.79-22.33-11.51-32.5-17.16-10.18-5.65-20.28-11.45-22.45-12.89-2.18-1.44-4.99-4.19-6.25-6.12-1.61-2.47-2.44-5.56-2.82-10.5-0.29-3.85-0.96-17.12-1.49-29.5-0.53-12.37-0.97-28.12-0.97-35 0.01-10.45 0.33-13.15 1.99-16.5 1.28-2.57 3.86-5.23 7.24-7.44 2.89-1.9 8.17-5.24 11.75-7.44 3.57-2.2 8.97-5.03 12-6.28zm418 151.93c-15.13 10.04-30.6 20.5-34.39 23.24-3.79 2.75-7.27 5.78-7.75 6.74-0.62 1.27-0.24 2.32 1.39 3.83 1.24 1.14 6.97 4.91 12.75 8.38 5.77 3.46 23.55 13.61 39.5 22.54 15.95 8.92 32.97 18.54 37.83 21.37l8.82 5.13c12.67-5.33 24-10.17 33.35-14.2 9.35-4.03 17.67-7.98 18.5-8.79 1.33-1.29 1.27-1.53-0.5-2.16-1.1-0.4-4.03-1.91-6.5-3.38-2.48-1.46-12.38-7.08-22-12.48-9.63-5.41-19.41-11.1-21.75-12.66-2.34-1.55-4.75-3.84-5.35-5.08-0.84-1.71-0.78-2.79 0.25-4.49 0.74-1.24 2.36-2.7 3.6-3.25 1.82-0.81 3.64-0.32 9.5 2.55 3.99 1.95 18.4 9.94 32.02 17.75 21.8 12.49 24.69 14.43 24.09 16.19-0.62 1.82-0.37 1.94 2.73 1.35 1.87-0.36 6.98-2.39 11.34-4.5 4.36-2.12 8.41-4.6 9-5.51 0.8-1.24 0.69-2.09-0.43-3.38-0.83-0.94-6.67-4.72-13-8.4-6.33-3.68-25-14.27-41.5-23.53-16.5-9.27-37.31-21.05-46.25-26.19-8.94-5.13-16.59-9.33-17-9.33-0.41 0-13.13 8.22-28.25 18.26zm-516 5.19c-6.88 2.92-22.18 9.37-34 14.33-11.83 4.97-24.54 10.43-28.25 12.12-3.71 1.7-7.2 3.99-7.75 5.09-0.78 1.55-0.57 2.39 0.92 3.75 1.05 0.96 14.89 8.8 30.75 17.42 15.85 8.61 42.22 22.9 58.58 31.75 16.36 8.84 30.42 16.08 31.25 16.08 0.82 0 15.79-5.9 33.25-13.12 17.46-7.22 35.35-14.78 39.75-16.79 4.4-2.02 8.34-4.21 8.75-4.88 0.41-0.66 0.52-2 0.25-2.96-0.28-0.96-3.54-3.61-7.25-5.9-3.71-2.28-17.55-10.33-30.75-17.89-13.2-7.56-32.1-18.25-42-23.77-9.9-5.51-22.39-12.42-27.75-15.36-5.36-2.93-10.54-5.29-11.5-5.25-0.96 0.04-7.38 2.46-14.25 5.38zm271.95 27.88c-2.45 1.29-20.43 12.96-39.95 25.94-19.52 12.98-36.22 24.19-37.11 24.91-0.88 0.72-2.81 3.11-4.28 5.31-2.59 3.89-2.67 4.42-2.63 18.5 0.02 7.98 0.69 30.03 1.5 49 0.81 18.98 1.74 36.53 2.05 39 0.32 2.48 0.98 5.85 1.48 7.5 0.49 1.65 2.83 4.82 5.19 7.05 2.37 2.23 15.1 10.17 28.3 17.65 13.2 7.48 30.19 17.02 37.75 21.2 7.56 4.18 15.44 8.29 17.5 9.13 2.06 0.84 5.44 1.51 7.5 1.5 2.06-0.02 5.66-1 8-2.18 2.34-1.18 9.65-5.52 16.25-9.65 6.6-4.13 22.8-14.68 36-23.45 13.2-8.77 25.72-17.59 27.83-19.6 2.11-2.01 4.54-5 5.41-6.65 1.36-2.6 1.48-6.41 0.88-29-0.38-14.3-1.11-35.45-1.63-47-0.52-11.55-1.27-24.15-1.65-28-0.52-5.07-1.42-8.02-3.28-10.72-1.41-2.05-4.14-4.8-6.06-6.12-1.92-1.32-19.7-11.55-39.5-22.73-19.8-11.19-38.25-21.14-41-22.1-2.75-0.97-7.05-1.78-9.55-1.8-2.88-0.02-6.17 0.83-9 2.31zm3.37 22.99c1.75-0.65 4.75-1.22 6.68-1.28 1.92-0.05 5.3 0.64 7.5 1.55 2.2 0.91 13.23 6.59 24.5 12.63 11.27 6.04 25.18 13.74 30.89 17.13 8.04 4.75 10.92 7.05 12.72 10.14 1.93 3.33 2.5 6.36 3.37 18 0.57 7.7 1.33 25.7 1.69 40 0.58 23.68 0.48 26.32-1.13 29.5-0.98 1.93-2.73 4.5-3.91 5.73-1.17 1.22-2.47 2.01-2.88 1.75-0.41-0.26-0.01-2.17 0.89-4.23 1.43-3.29 1.55-6.87 0.97-29.25-0.36-14.02-1.1-31.69-1.63-39.25-0.6-8.37-1.57-14.92-2.48-16.75-0.83-1.65-2.51-3.94-3.75-5.08-1.24-1.15-5.17-3.8-8.75-5.89-3.58-2.1-13.92-7.85-23-12.79-9.08-4.94-21.11-11.29-26.75-14.11-7.94-3.97-11.3-5.13-14.92-5.13-2.56 0-4.33-0.34-3.92-0.75 0.4-0.41 2.16-1.28 3.91-1.92zm-35.23 24.71c1.32-0.56 4.21-0.81 6.41-0.55 2.44 0.28 9.06 3.25 17 7.63 7.15 3.95 20.42 11.59 29.5 16.99 10.79 6.42 17.06 10.77 18.12 12.6 0.89 1.54 1.9 4.37 2.24 6.29 0.34 1.93 1.28 14.08 2.1 27 0.82 12.93 1.95 32.95 2.52 44.5 0.56 11.55 1.02 22.24 1.02 23.75 0 2.32-1.14 3.49-7.25 7.43-3.99 2.57-10.18 6.21-13.75 8.08-5.69 2.98-7.06 3.32-11 2.7-3.02-0.47-14.06-5.89-33.5-16.41-15.95-8.64-31.48-17.31-34.5-19.26-3.02-1.95-6.26-4.39-7.2-5.42-0.93-1.03-2.14-4.12-2.69-6.87-0.55-2.75-1.48-16.25-2.06-30-0.59-13.75-1.06-31.3-1.05-39 0.01-12.22 0.26-14.41 2-17.25 1.1-1.79 4.36-4.96 7.25-7.06 2.89-2.1 9.11-6.14 13.84-8.98 4.72-2.84 9.67-5.62 11-6.17zm212.91-38.64c-3.58 2.36-7.4 5.3-8.5 6.51-1.55 1.72-1.76 2.59-0.92 3.9 0.6 0.93 8.7 5.9 18 11.04 9.31 5.13 23.42 13.01 31.36 17.5 7.94 4.48 17.39 10.3 21 12.92 3.61 2.63 8.04 6.68 9.85 9 1.81 2.33 3.79 5.81 4.4 7.73 0.77 2.4 0.92 10.11 0.48 24.5-0.35 11.55-0.25 21.68 0.23 22.5 0.48 0.83 1.26 1.22 1.74 0.88 0.47-0.35 1.18-2.15 1.57-4 0.4-1.86 1.63-4.62 2.75-6.13 1.12-1.51 2.94-2.75 4.04-2.75 1.1 0 2.92 1.24 4.04 2.75 1.12 1.51 2.29 4.1 2.61 5.75 0.31 1.65 0.07 4.58-0.54 6.5-0.67 2.11-2.31 4.2-4.11 5.25-1.65 0.96-3 2.43-3 3.25 0 0.97 0.97 1.5 2.75 1.5 1.51 0 4.21-0.9 6-2 1.79-1.1 3.98-3.46 4.87-5.25 0.9-1.79 2.03-7.75 2.53-13.25 0.49-5.5 1.31-14.5 1.82-20 0.52-5.69 1.75-11.94 2.84-14.5 1.06-2.47 2.78-5.26 3.81-6.2 1.03-0.94 3.68-2.34 5.88-3.11 3.87-1.37 4.12-1.32 7.75 1.45 2.34 1.78 4.32 4.46 5.26 7.11 0.83 2.34 2.18 10.21 3 17.5 0.82 7.29 2.16 14.6 2.99 16.25 0.83 1.65 2.74 3.95 4.25 5.11 2.37 1.81 3.65 2.03 9.25 1.54 5.37-0.46 6.98-1.05 9.28-3.35 1.52-1.54 3.27-4.37 3.88-6.3 0.62-1.94 0.85-5.95 0.53-9-0.32-3.02-1.79-9.1-3.26-13.5-2.09-6.28-2.8-10.77-3.3-20.89-0.48-9.83-0.99-13.14-2.13-13.91-1.11-0.75-5.55 0.7-17.25 5.65-8.94 3.78-15.97 6.22-16.25 5.65-0.27-0.55-3.99-2.87-8.25-5.16-4.26-2.29-19.9-11.01-34.75-19.37-14.85-8.37-35.89-20.22-46.75-26.34-10.86-6.12-20.54-11.11-21.5-11.08-0.96 0.02-4.67 1.98-8.25 4.35zm151.45 87.78c0.37-0.73 1.43-1.18 2.36-0.99 1.01 0.2 1.79 1.43 1.94 3.07 0.2 2.16-0.18 2.74-1.75 2.74-1.1 0-2.27-0.79-2.61-1.75-0.33-0.96-0.3-2.34 0.06-3.07zm-10.06 8.16c0.8-1.2 2.09-2.1 2.86-2 0.78 0.09 2.19 0.84 3.13 1.66 0.94 0.83 1.7 2.85 1.7 4.5-0.01 1.65-0.82 3.77-1.8 4.7-1.5 1.43-2.18 1.51-4.28 0.48-1.69-0.83-2.59-2.19-2.78-4.2-0.16-1.64 0.37-3.95 1.17-5.14zm-461.57 104.29c-12.28 5.19-32 13.52-43.82 18.52-11.82 4.99-22.1 9.59-22.83 10.22-0.73 0.62-1.08 2.03-0.78 3.13 0.39 1.38 12.91 8.97 40.33 24.45 21.88 12.34 43.6 24.54 48.28 27.11 4.68 2.57 13.45 7.44 19.5 10.81 6.05 3.38 12.01 6.14 13.25 6.14 1.24-0.01 5.74-1.39 10-3.08 4.26-1.69 13.73-5.63 21.03-8.75 10.01-4.28 13.15-6.05 12.75-7.18-0.36-1.01 0.54-1.92 2.72-2.78l3.25-1.27c-3.88-2.97-14.23-9.12-25.5-15.57-11.27-6.46-22.41-13.01-24.75-14.56-2.34-1.55-4.48-3.72-4.75-4.82-0.27-1.1-0.27-2.9 0-4 0.27-1.1 1.74-2.64 3.25-3.43 2.63-1.37 3.33-1.13 16.25 5.65 7.42 3.89 22.39 12.19 33.25 18.43 10.86 6.24 20.43 11.35 21.25 11.35 0.82 0 1.61 0.5 1.75 1.1 0.14 0.63 3.93-0.63 9-3 4.81-2.25 9.2-5 9.75-6.1 0.81-1.62 0.49-2.46-1.75-4.48-1.51-1.37-8.6-5.82-15.75-9.89-7.15-4.08-19.98-11.34-28.5-16.15-8.52-4.81-20.45-11.55-26.5-14.98-6.05-3.42-18.65-10.5-28-15.71-9.35-5.22-17.76-9.74-18.68-10.04-0.94-0.32-11.52 3.6-24 8.88z"/>
		<path id="Path 0" fill-rule="evenodd" class="s1" d="m437 109.39c-10.73 7.22-50.32 33.54-88 58.5-37.68 24.96-75.25 49.76-83.5 55.12-8.25 5.35-19.37 12.61-24.71 16.11-5.34 3.51-9.96 6.94-10.25 7.63-0.3 0.69-0.1 16.89 0.44 36l0.97 34.75c-3.52 3.88-7.07 8.38-10.15 12.5-3.09 4.13-10.04 11.79-15.46 17.04-5.41 5.25-14.12 12.84-19.34 16.87-5.22 4.03-13.78 10.28-19 13.89-5.22 3.61-16.7 11.52-25.5 17.59-9.38 6.47-19.11 14.15-23.53 18.57-5.4 5.41-8.47 9.52-10.86 14.54-1.84 3.85-3.96 9.93-4.71 13.5-0.75 3.57-1.87 11.45-2.5 17.5-0.75 7.25-0.85 15.26-0.29 23.5 0.46 6.88 0.79 16.32 0.72 21-0.06 4.68-0.85 13.23-1.73 19-0.89 5.77-2.07 10.61-2.61 10.75-0.6 0.15-1 6.45-1.01 16-0.01 15.37 0.06 15.9 2.9 21.75 1.6 3.3 4.19 7.18 5.76 8.63 1.58 1.45 4.77 3.81 7.11 5.25 2.34 1.44 4.28 3.41 4.32 4.37 0.04 0.96 0.38 9.8 0.75 19.64 0.62 16.27 0.86 17.99 2.62 19 1.07 0.61 3.65 2.69 5.72 4.61 2.82 2.61 5.28 6.93 9.68 17 3.25 7.42 7.28 17.55 8.96 22.5 1.67 4.95 3.57 12.83 4.21 17.5 0.65 4.67 0.88 11.2 0.52 14.5-0.35 3.3-1.32 8.7-2.15 12-0.83 3.3-3.47 11.85-5.88 19-2.41 7.15-4.88 16.38-5.5 20.5-0.82 5.47-0.83 9.12-0.03 13.5 0.6 3.3 2.2 7.91 3.56 10.25 1.42 2.45 4.27 5.31 6.72 6.76 2.34 1.38 7.4 3.02 11.25 3.65 6.29 1.03 7.74 0.93 14.25-1 5.13-1.53 8.44-3.25 11.33-5.91 2.25-2.06 5.29-6.23 6.75-9.25 2.62-5.4 2.67-5.9 2.91-28 0.17-16.49 0.57-22.86 1.5-23.83 0.86-0.91 2.54-1.14 5.26-0.72 2.2 0.34 5.35 1.45 7 2.46 1.65 1.02 4.47 4.04 6.27 6.72 1.8 2.68 3.91 7.12 4.69 9.87 0.77 2.75 1.94 8.38 2.59 12.5 0.7 4.49 1.48 28.39 1.93 59.5 0.41 28.6 1.03 53.24 1.38 54.75 0.35 1.51 1.77 5 3.14 7.75 1.38 2.75 4.19 6.67 6.25 8.7 2.06 2.04 8.7 6.93 14.75 10.86 6.05 3.93 19.77 12 30.5 17.93 10.73 5.93 25.13 13.93 32 17.79 6.88 3.85 14.52 8.36 17 10.01 2.48 1.65 6 4.4 7.84 6.1 1.83 1.71 3.97 4.35 4.75 5.86 0.77 1.51 1.38 3.99 1.34 5.5-0.03 1.51-0.5 9.5-1.04 17.75-0.65 10.14-0.63 17.35 0.07 22.25 0.57 3.99 2.1 9.39 3.4 12 1.3 2.61 3.66 5.9 5.25 7.31 1.59 1.41 4.35 2.87 6.14 3.25 1.79 0.38 3.25 1.14 3.25 1.69 0 0.55 2.25 1 5 1 2.75 0 5-0.45 5-1 0-0.55 0.68-1 1.5-1 0.82 0 3.3-0.9 5.5-2 2.2-1.1 5.24-3.59 6.75-5.52 1.51-1.94 3.57-5.65 4.58-8.25 1-2.6 2-6.98 2.21-9.73 0.21-2.75 0.71-8.6 1.1-13 0.39-4.4 0.63-8.34 0.54-8.75-0.1-0.41 0.28-1.99 0.85-3.5 0.65-1.76 1.35-2.39 1.94-1.75 0.51 0.55 2.07 6.29 3.47 12.75 2.02 9.28 3.27 12.75 5.93 16.5 2.47 3.47 4.83 5.39 8.75 7.12 3.51 1.54 7.3 2.37 10.88 2.38 3.02 0.01 7.3-0.47 9.5-1.07 2.2-0.6 5.91-2.46 8.25-4.13 2.88-2.07 5.14-4.9 7-8.8 2.31-4.84 2.74-7.02 2.69-13.75-0.04-6.08-0.93-11.12-3.73-21-2.02-7.15-3.69-14.58-3.71-16.5-0.01-1.92 0.95-5.52 2.14-8 1.2-2.48 4.47-6.88 7.27-9.79 2.8-2.9 5.65-5.27 6.34-5.25 0.69 0.02 1.25-0.41 1.25-0.96 0-0.55 0.79-1.29 1.75-1.64 0.96-0.35 4.68-1.97 8.25-3.59 3.57-1.61 11.45-4.95 17.5-7.42 6.05-2.46 13.25-5.52 16-6.79 2.75-1.28 9.84-5.53 15.75-9.44 5.91-3.92 11.2-7.12 11.75-7.12 0.55 0 1-0.34 1-0.75-0.01-0.41 0.82-1.2 1.83-1.75 1.02-0.55 8.11-5.18 15.76-10.28 7.65-5.11 13.91-9.26 13.91-9.22 0 0.03 7.65-5.05 17-11.29 9.35-6.24 17.45-11.54 18-11.78 0.55-0.24 7.71-4.93 15.91-10.43 8.2-5.5 16.2-11.35 17.78-13 1.59-1.65 3.82-5.48 4.96-8.5 1.68-4.44 2.06-7.62 1.97-16.5-0.06-6.05-0.54-21.35-1.07-34-0.53-12.65-1.22-30.65-1.53-40-0.32-9.35-0.8-23.52-1.07-31.5-0.27-7.98-0.8-17.42-1.16-21-0.51-5.05-0.31-7.06 0.91-9 0.86-1.37 3.08-3.32 4.93-4.33l3.37-1.83c18.6 10.42 28.27 15.69 33.5 18.44 5.23 2.74 10.63 5.74 12 6.65 1.38 0.91 4.98 2.94 8 4.52 3.02 1.57 6.74 3.69 8.25 4.71 1.51 1.01 2.98 1.84 3.25 1.84 0.27 0 3.88 2.25 8 5 4.13 2.75 8.74 6.65 10.25 8.67 2.48 3.31 2.75 4.46 2.71 11.75-0.03 4.44-0.22 14.38-0.43 22.08-0.24 9.13 0.05 15.56 0.86 18.5 0.67 2.48 1.84 5.85 2.6 7.5 0.75 1.65 2.64 4.19 4.19 5.64 1.55 1.45 4.28 3.36 6.07 4.25 1.96 0.97 5.74 1.61 9.5 1.6 4.42-0.01 7.72-0.69 11.25-2.33 2.75-1.27 6.14-3.63 7.54-5.24 1.4-1.61 3.56-5.62 4.81-8.92 1.6-4.22 2.57-9.86 3.26-19 0.55-7.15 1.08-14.28 1.19-15.84 0.11-1.56 0.76-3.25 1.45-3.75 0.81-0.59 1.4-0.47 1.68 0.34 0.24 0.69 0.74 4.63 1.11 8.75 0.37 4.13 0.83 8.17 1.02 9 0.18 0.83 0.62 2.85 0.97 4.5 0.35 1.65 1.12 3.9 1.72 5 0.59 1.1 2.7 3.65 4.67 5.67 1.97 2.02 5.38 4.6 7.58 5.73 3.22 1.65 5.37 1.98 11 1.66 3.85-0.21 7.67-0.57 8.5-0.78 0.83-0.22 3.3-1.32 5.5-2.45 2.2-1.13 5.29-3.58 6.86-5.44 1.58-1.87 3.56-4.97 4.42-6.89 1-2.26 1.57-6.68 1.62-12.5 0.06-7.66-0.43-10.49-3.27-19-1.84-5.5-3.58-12.7-3.87-16-0.4-4.58-0.1-6.83 1.27-9.5 0.98-1.92 4.31-6.13 7.38-9.35 3.07-3.22 6.72-6.44 8.09-7.16 1.38-0.71 7.45-3.29 13.5-5.72 6.05-2.43 13.25-5.27 16-6.31 2.75-1.04 5.23-1.95 5.5-2.01 0.27-0.07 1.31-0.53 2.3-1.04 1.25-0.63 2.24-0.46 3.27 0.59 0.81 0.83 3.09 5.1 5.06 9.5 2.58 5.75 3.74 9.96 4.12 15 0.51 6.53 0.19 8.04-4.74 22.5-2.91 8.52-5.4 16.17-5.55 17-0.15 0.83-0.62 3.98-1.05 7-0.44 3.02-0.7 7.52-0.58 10 0.11 2.48 0.69 6.3 1.29 8.5 0.6 2.2 2.13 6.02 3.38 8.5 1.26 2.48 4.03 6.27 6.15 8.43 2.12 2.17 6.55 5.22 9.85 6.8 5.6 2.67 6.7 2.84 16.5 2.56 8.74-0.25 11.42-0.72 16-2.84 3.02-1.4 7.3-3.96 9.5-5.68 2.2-1.73 5.69-6.1 7.75-9.71 2.06-3.61 3.75-6.79 3.75-7.06 0-0.27 0.48-1.96 1.07-3.75 0.59-1.79 1.03-6.4 0.98-10.25-0.05-3.85-0.93-9.92-1.96-13.5-1.03-3.58-3.81-11.9-6.18-18.5-4.04-11.23-4.32-12.68-4.35-22.5-0.03-8.89 0.32-11.27 2.27-15.5 1.27-2.75 4.67-7.92 7.55-11.5 2.88-3.58 10.8-11.23 17.59-17 6.79-5.77 18.01-15.48 24.94-21.56 6.92-6.09 13.82-13.06 15.33-15.5 1.5-2.44 3.11-6.46 3.58-8.94 0.51-2.69 0.43-7.12-0.18-11-0.95-6.02-0.84-6.85 1.42-11.25 1.34-2.61 2.78-4.75 3.19-4.75 0.41 0 0.76-17.21 0.77-38.25 0.01-21.66-0.38-38.68-0.9-39.25-0.5-0.55-1.4-16.52-2.01-35.5-0.75-23.68-1.56-36.38-2.58-40.5-0.81-3.3-2.73-7.74-4.25-9.86-1.53-2.12-5.93-5.78-9.78-8.13-3.85-2.35-16.45-9.57-28-16.04-11.55-6.47-30.23-17.02-41.5-23.45-11.27-6.43-25.23-14.3-31-17.49-5.77-3.18-12.52-7.05-15-8.6l-4.5-2.8c-1.19-22.96-1.95-39.53-2.47-51.63-0.51-12.1-1.22-30.55-1.58-41-0.35-10.45-0.99-27.1-1.41-37-0.5-11.92-1.25-19.18-2.22-21.5-0.8-1.93-3.23-5.46-5.39-7.86-2.38-2.63-7.88-6.55-13.93-9.89-5.5-3.05-22.74-12.79-38.31-21.65-15.57-8.85-30.87-17.57-34-19.37-3.13-1.79-7.61-4.27-9.96-5.5-2.34-1.22-4.89-2.77-5.25-2.98-2.23-1.31-13.35-11.5-30.95-11.5-17.6 0-29.47 10.38-31.28 11.61-0.41 0.28-7.33 4.81-14.75 9.64-7.42 4.82-15.3 9.95-17.5 11.39-2.2 1.43-4.45 2.97-5 3.4-0.55 0.43-7.52 5.04-15.5 10.23-7.98 5.19-15.06 9.9-15.75 10.46-0.69 0.56-1.7 1.02-2.25 1.02-0.55 0-1 0.45-1 1 0 0.55-0.56 1.11-1.25 1.25-0.69 0.14-7.21 4.19-14.5 9l-13.25 8.75c-4.26-2.9-7.3-4.61-9.5-5.67-2.2-1.07-8.95-4.76-15-8.21-6.05-3.45-13.92-8.04-17.5-10.2-3.58-2.16-7.4-4.33-8.5-4.81-1.1-0.48-11.67-6.31-23.5-12.95-11.83-6.64-22.06-12.55-22.75-13.12-0.69-0.57-1.59-1.05-2-1.06-0.41-0.02-4.35-2.11-8.75-4.66-4.4-2.54-7.83-4.23-8.25-4.47-0.82-0.46-8.44-5.81-17.92-5.74-9.49 0.07-16.9 5.24-16.9 5.24zm293-6.01c1.92-0.71 5.52-2.32 8-2.35 2.47-0.04 6.07 1.49 8 2.16 1.92 0.67 15.42 8.01 30 16.3 14.57 8.29 37.28 21.14 50.46 28.54 15.29 8.6 25.51 15.01 28.25 17.72 3.03 3.01 4.72 5.79 5.76 9.5 1.08 3.84 2.03 20.19 3.53 60.75 1.12 30.53 2.03 59.33 2.01 64-0.03 6.32-0.54 9.53-1.98 12.5-1.07 2.2-3.35 5.35-5.07 7-1.72 1.65-18.95 13.46-38.29 26.25-19.35 12.79-41.81 27.52-49.92 32.75-10.74 6.92-16.18 9.8-20 10.6-3.9 0.81-6.41 0.79-9.75-0.08-2.48-0.65-9.9-4.24-16.5-7.98-6.6-3.73-27.75-15.67-47-26.53-19.25-10.85-36.69-20.58-38.75-21.62-2.06-1.04-5.44-3.4-7.5-5.24-2.06-1.84-4.76-5.67-6-8.5-1.99-4.56-2.37-7.81-3.26-28.4-0.55-12.79-1.68-41.25-2.5-63.25-1.3-34.85-1.31-40.64-0.05-45 0.86-2.99 2.96-6.67 5.25-9.16 2.28-2.5 23.44-17.09 52.81-36.42 26.95-17.74 50.57-32.83 52.5-33.54zm-263 4.49c1.92-1.03 4.85-1.87 6.5-1.85 1.75 0.01 7.37 2.44 13.5 5.82 5.77 3.2 17.02 9.45 25 13.91 7.97 4.46 15.8 9.37 17.39 10.93 1.58 1.55 4.59 5.07 6.67 7.82 2.09 2.75 4.32 7.03 4.97 9.5 0.88 3.35 0.9 5.46 0.08 8.25-0.63 2.13-2.08 4.24-3.36 4.88-1.24 0.63-4.5 0.94-7.25 0.7-2.75-0.24-7.03-1.41-9.5-2.62-2.48-1.2-8.78-5.62-14-9.82-5.23-4.2-11.3-8.54-13.5-9.64-2.2-1.09-6.25-2.21-9-2.48-2.75-0.27-7.03 0.06-9.5 0.72-3.16 0.86-6.03 2.75-9.65 6.36-4.06 4.06-5.52 6.43-6.88 11.15-1.22 4.23-1.58 8.07-1.23 13 0.27 3.85 1.5 9.93 2.73 13.5 1.22 3.58 3.97 10.55 6.1 15.5 2.12 4.95 4.83 12.83 6.02 17.5 1.57 6.19 1.99 10 1.54 14-0.34 3.03-1.77 7.98-3.18 11-1.4 3.03-4.22 7.24-6.25 9.37-2.04 2.13-5.5 4.71-7.7 5.73-2.2 1.02-5.69 1.87-7.75 1.88-2.06 0.01-5.89-0.7-8.5-1.58-2.61-0.88-6.3-2.8-8.2-4.25-1.89-1.46-4.25-4.56-5.25-6.9-1.59-3.75-1.77-6.97-1.55-27.5 0.24-22.42 0.17-23.43-2.05-28.25-1.27-2.75-3.74-6.52-5.5-8.37-1.76-1.86-5-4.21-7.2-5.23-2.45-1.14-6.32-1.87-10-1.89-4.62-0.03-7.25 0.6-11.43 2.73-2.99 1.52-6.72 4.34-8.29 6.26-1.57 1.93-3.57 5.98-4.46 9-1.34 4.6-1.5 8.52-0.93 24 0.54 14.95 0.38 19.46-0.82 23.5-0.81 2.75-2.4 6.01-3.53 7.25-1.25 1.38-3.2 2.25-5.04 2.25-2 0-4-1-9-6v-12.5c0-7.29-0.87-18.64-2.09-27.25-1.14-8.11-1.93-16.81-1.75-19.33 0.19-2.51 1.01-5.41 1.84-6.43 0.82-1.02 25.57-17.8 55-37.3 29.42-19.5 55.07-36.29 57-37.32zm88.75 51.63c0.14-3.02 0.47-5.5 0.75-5.5 0.27 0 7.59 4.09 16.25 9.08 8.66 4.99 16.79 10.06 18.06 11.25 1.27 1.19 3.4 4.42 4.74 7.17 2.4 4.93 2.46 5.77 4.4 59.5 1.08 29.98 2.21 58.21 2.51 62.75 0.3 4.54 0.07 10.39-0.51 13-0.58 2.61-2.15 6.44-3.5 8.5-1.86 2.85-11.38 9.66-39.7 28.4-20.49 13.56-42.88 28.34-49.75 32.85-6.88 4.5-13.85 8.89-15.5 9.74-1.65 0.86-5.03 1.87-7.5 2.25-2.66 0.41-6.34 0.2-9-0.52-2.48-0.66-17.55-8.62-33.5-17.69-15.95-9.07-36.65-20.8-46-26.07-9.35-5.27-20.04-11.29-23.75-13.39-3.71-2.1-7.85-5.28-9.19-7.07-1.34-1.79-3.19-5.05-4.1-7.25-1.3-3.1-1.92-10.08-2.81-31.17-0.63-14.95-0.93-27.37-0.65-27.62 0.27-0.24 3.03 0.06 11.77 1.79l0.62 7.5c0.34 4.13 0.65 12.23 0.68 18 0.04 5.78 0.44 14.55 0.88 19.5 0.74 8.16 1.08 9.24 3.68 11.53 1.58 1.4 15.47 9.69 30.87 18.43 15.4 8.75 38.12 21.67 50.5 28.73 19.5 11.11 23.1 12.82 27 12.85 3.68 0.03 5.68-0.76 11-4.33 3.57-2.41 24.95-16.43 47.5-31.16 22.55-14.73 42.77-28.65 48.88-35.05l-0.7-23.5c-0.39-12.92-1.4-41.27-2.26-63-1.29-32.84-1.83-40.07-3.24-42.89-1.15-2.32-3.72-4.56-8.18-7.12-3.58-2.05-9.65-5.49-13.5-7.65-3.85-2.16-7-4.47-7-5.14 0-0.66 0.11-3.67 0.25-6.7zm-79.75 0.5c1.29-1.29 3.34-2 5.75-2 2.62-0.01 5.16 0.97 8.41 3.25 2.57 1.79 8.42 6.13 13 9.66 4.59 3.52 10.81 7.54 13.84 8.93 3.77 1.73 7.85 2.67 13 2.98 4.16 0.25 9.17-0.05 11.25-0.68 3.55-1.08 4.2-0.89 12.37 3.61 4.74 2.61 9.91 6.21 11.5 8 1.58 1.79 3.28 4.94 3.77 7 0.49 2.06 1.7 26.03 4.46 102.75l-2.44 4.5c-1.74 3.22-4.42 5.82-9.42 9.16-3.85 2.56-21.84 14.39-39.99 26.29-21.2 13.9-34.25 21.84-36.5 22.21-1.93 0.31-4.85 0.28-6.5-0.07-1.65-0.36-15.15-7.53-30-15.95-14.85-8.41-33.67-19.09-41.81-23.72-14.08-8-14.93-8.67-17.26-13.42-2.13-4.33-2.47-6.47-2.55-16-0.05-6.05-0.39-17.3-0.74-25-0.61-13.41-0.54-14.25 1.86-20 2.43-5.83 2.49-6.58 2.25-27-0.14-11.95 0.18-22.4 0.75-24.25 0.63-2.03 2.12-3.81 4-4.75 1.65-0.82 4.35-1.5 6-1.5 1.91 0 4.04 1 5.87 2.75 1.58 1.51 3.42 4.78 4.09 7.25 0.97 3.55 0.96 7.46-0.01 18.5-0.68 7.7-1 16.93-0.71 20.5 0.32 4.05 1.6 8.92 3.39 12.91 1.95 4.36 4.47 7.85 7.87 10.9 2.75 2.47 7.47 5.67 10.5 7.09 4.83 2.29 6.77 2.6 16 2.6 9.12 0 11.16-0.32 15.5-2.45 2.75-1.35 7.29-4.72 10.09-7.5 2.8-2.78 6.51-7.86 8.25-11.3 1.74-3.44 3.84-8.84 4.66-12 0.83-3.16 1.51-8.67 1.52-12.25 0-3.58-1.07-10.77-2.39-16-1.31-5.22-4.41-14.45-6.87-20.5-2.47-6.05-5-13.14-5.62-15.75-0.63-2.61-1.14-6.32-1.14-8.25 0-1.92 0.45-4.62 1-6 0.55-1.37 1.9-3.4 3-4.5zm-159.57 47.12c15.69-10.32 20-12.74 20.22-11.37 0.16 0.97 1.19 28.75 2.29 61.75 1.11 33 2.25 63.71 3.06 76.5l-6.75 4.47c-3.71 2.46-6.82 4.37-6.9 4.25-0.08-0.12 0.24-2.69 0.73-5.72 0.48-3.02 0.63-7.07 0.33-9-0.3-1.92-1.54-5.3-2.75-7.5-1.61-2.9-3.31-4.39-6.19-5.43-3.52-1.27-4.48-1.25-8.47 0.21-2.48 0.91-6.34 3.35-12.68 9.22l-1.71-52c-0.94-28.6-1.57-52.06-1.41-52.14 0.16-0.07 9.27-6.03 20.23-13.24zm-35.2 22.98l0.81 17.7c0.45 9.74 1.3 30.98 1.88 47.2 1.02 28.63 1.12 29.57 3.32 31.75 1.24 1.23 3.38 2.36 4.76 2.5 2.32 0.23 2.17 0.47-2 3.22-2.8 1.85-6.21 3.13-9 3.38-3.13 0.28-5.72-0.21-8.5-1.59-2.2-1.09-7.38-5.67-11.5-10.17-4.88-5.31-8.64-8.51-14-10.09l-0.56-9.25c-0.31-5.09-0.64-18.63-0.94-50.96l17.86-11.84zm-42.35 101.65c1.6-1.76 3.51-2.75 5.31-2.75 2.2 0 3.57 1.03 6.3 4.75 1.92 2.61 5.63 6.4 8.25 8.43 2.62 2.03 7.02 4.7 9.77 5.93 3.51 1.59 6.92 2.26 11.5 2.27 5.27 0.01 7.72-0.58 13-3.15 3.82-1.87 9.76-6.17 22.35-17.73l-0.71 5c-0.38 2.75-1.85 7.47-3.26 10.5-1.58 3.41-4.92 7.77-8.8 11.5-3.43 3.3-12.01 10.05-19.05 15-7.05 4.95-16.33 11.47-20.61 14.5-4.29 3.02-10.19 7.49-13.11 9.93-2.92 2.44-6.44 5.82-7.81 7.5-1.37 1.69-3.55 5.77-4.85 9.07-1.71 4.35-2.65 9.69-3.45 19.5-0.99 12.09-0.86 15.52 1.17 33 1.73 14.8 2.02 20.16 1.2 22.25-0.59 1.51-2.09 3.42-3.32 4.25-1.24 0.83-3.27 1.51-4.5 1.5-1.24 0-3.6-0.68-5.25-1.5-1.84-0.92-3.26-2.57-3.65-4.25-0.35-1.52-0.24-7.48 0.25-13.25 0.49-5.78 0.89-17.93 0.89-27-0.01-15.02-0.21-16.93-2.25-21.25-1.32-2.8-3.58-5.57-5.49-6.75-1.98-1.21-5.02-2-7.75-2-3.79 0-8.9 2.19-32 13.7-21.06 10.49-28.63 14.76-32.3 18.25-2.64 2.5-5.72 6.57-6.85 9.05-1.38 3.04-2.35 8.21-2.99 16-0.52 6.32-0.67 17.57-0.34 25 0.33 7.42 1.25 22.27 2.03 33 0.92 12.57 1.12 21.45 0.56 25-0.47 3.02-1.71 7.25-2.74 9.4-1.03 2.15-2.77 4.51-3.87 5.26-1.1 0.74-3.35 1.36-5 1.36-1.65 0.01-4.02-0.89-5.25-2-1.24-1.11-2.99-3.49-3.88-5.27-0.89-1.79-1.84-5.5-2.12-8.25-0.29-3 0.36-9.41 1.62-16 1.16-6.05 2.52-15.28 3.02-20.5 0.5-5.23 0.66-21.65 0.36-36.5-0.46-23.12-0.29-28.22 1.19-35.5 0.95-4.68 2.89-10.98 4.32-14 1.45-3.09 5.05-7.92 8.19-11 3.08-3.03 13.46-10.87 23.07-17.44 9.61-6.56 22.88-15.78 29.48-20.49 6.6-4.7 16.05-11.91 21-16.01 4.95-4.1 12.78-11.3 17.41-16.01 4.63-4.7 10.23-11.03 12.44-14.05 2.22-3.03 5.15-6.74 6.52-8.25zm632.63 4.58c2.3-0.76 6.33-1.12 9.5-0.85 4.7 0.4 8.18 1.98 24 10.86 10.17 5.72 33.8 19.06 52.5 29.66 18.7 10.59 35.48 20.66 37.29 22.38 1.81 1.71 4.26 5.14 5.46 7.62 2.04 4.24 2.29 7.61 4.4 59.5 1.23 30.25 2.27 59.72 2.3 65.5 0.06 9.56-0.18 10.98-2.69 15.93-1.52 2.99-4.56 6.86-6.76 8.59-2.2 1.74-24.93 16.89-50.5 33.68-25.58 16.79-47.4 31-48.5 31.58-1.1 0.58-4.14 1.55-6.75 2.14-3.3 0.75-6.21 0.76-9.5 0.06-2.62-0.56-8.58-3.18-13.25-5.82-4.68-2.64-27.85-15.71-51.5-29.04-23.65-13.34-44.49-25.68-46.3-27.43-1.81-1.76-4.26-5.22-5.45-7.69-2.07-4.29-2.29-7.62-4.66-69-2.45-63.78-2.46-64.56-0.57-69.5 1.05-2.75 3.05-6.33 4.44-7.95 1.4-1.63 23.24-16.66 48.54-33.4 25.3-16.74 47.8-31.58 50-32.97 2.2-1.4 5.8-3.13 8-3.85zm-266 10.05c1.65-0.72 5.7-1.32 9-1.33 4.23-0.03 7.47 0.65 11 2.3 2.75 1.28 14 7.41 25 13.62 11 6.21 31.92 18.04 46.5 26.3 14.57 8.25 28.18 16.06 30.25 17.36 2.06 1.3 5.04 4.28 6.63 6.62 1.59 2.33 3.36 6.05 3.93 8.25 0.58 2.2 2.06 31.9 3.31 66 1.83 50.2 2.03 62.85 1.04 66.5-0.67 2.47-2.67 6.27-4.44 8.44-2.04 2.5-13.5 10.72-31.22 22.41-15.4 10.15-37.9 25-50 33-16.26 10.74-23.44 14.91-27.5 15.96-4.41 1.14-6.5 1.19-10.5 0.26-2.92-0.68-13.33-5.88-25-12.48-11-6.22-33.05-18.64-49-27.6-15.95-8.95-31.12-17.68-33.71-19.39-2.59-1.71-5.85-4.9-7.25-7.1-1.41-2.2-3-6.25-3.53-9-0.54-2.75-1.67-23.9-2.5-47-0.83-23.1-1.81-50.55-2.17-61-0.48-14.06-0.32-20.05 0.61-23 0.69-2.2 2.33-5.69 3.65-7.75 1.85-2.9 11.22-9.59 41.15-29.41 21.31-14.11 43.92-29.03 50.25-33.16 6.32-4.12 12.85-8.08 14.5-8.8zm-260.5 7.63c1.92-0.5 5.75-0.68 8.5-0.41 3.65 0.35 7.94 2.12 16 6.57 6.05 3.34 29.67 16.68 52.5 29.63 29.65 16.83 42.71 24.78 45.75 27.87 2.99 3.05 4.66 5.88 5.67 9.58 1.01 3.74 2.07 23.08 3.69 67.25 2 54.78 2.1 62.57 0.83 66.93-0.8 2.71-3.05 6.76-5.02 9-1.97 2.24-10.07 8.26-18 13.39-7.93 5.13-29.05 18.99-46.92 30.8-17.88 11.81-34.75 22.66-37.5 24.1-3.86 2.03-6.49 2.64-11.5 2.69-6.42 0.05-6.73-0.08-24-9.83-9.63-5.44-33.48-18.88-53-29.87-19.53-10.99-36.63-20.76-38-21.72-1.38-0.96-3.82-4.16-5.43-7.12-2.78-5.12-2.96-6.17-3.68-22.37-0.41-9.35-0.89-23.01-1.39-43.68l3.5-1.47c1.92-0.81 4.51-2.46 5.74-3.66 1.24-1.21 2.42-1.97 2.63-1.69 0.21 0.27 0.79 14.67 1.29 32 0.73 25.37 1.21 32.08 2.48 34.5 0.86 1.65 3.77 4.32 6.46 5.93 2.69 1.62 26.27 15.01 52.4 29.76 39.86 22.51 48.14 26.82 51.5 26.85 3.58 0.03 8.82-3.12 50-30.04 25.3-16.54 47.91-31.41 50.25-33.04 2.34-1.64 4.92-4.53 5.75-6.46 1.33-3.12 1.33-8.12-0.04-45.25-0.85-22.97-1.87-51.2-2.28-62.75-0.66-18.89-0.94-21.31-2.8-24-1.14-1.65-5.18-4.75-8.98-6.89-3.8-2.14-26.93-15.29-51.4-29.23-38.72-22.05-45.06-25.34-48.75-25.36-2.34-0.01-5.27 0.5-6.5 1.14-1.24 0.65-22.95 14.95-48.25 31.79-25.3 16.84-46.65 31.05-47.43 31.58-1.16 0.79-1.31 0.42-0.8-2.03 0.35-1.65 1.1-5.59 1.68-8.75 1.04-5.72 1.09-5.78 8.3-10.41 3.98-2.56 21.65-14.17 39.25-25.81 17.6-11.63 34.7-22.83 38-24.88 3.3-2.05 7.57-4.14 9.5-4.64zm1.5 32.64c1.1-0.29 4.02-0.42 6.5-0.28 3.78 0.2 10.03 3.37 39.5 20.07 19.25 10.91 38.12 21.68 41.95 23.95 5.5 3.25 7.42 5.05 9.22 8.61 2.16 4.28 2.35 6.46 3.8 45 0.84 22.27 1.52 45.9 1.52 52.5 0 10.65-0.26 12.42-2.25 15.74-1.8 3-9.83 8.68-40.74 28.87-21.18 13.82-39.52 25.53-40.75 26.01-1.24 0.48-4.62 0.88-7.5 0.88-4.47 0-6.67-0.79-14.75-5.27-5.23-2.9-23.86-13.36-41.4-23.25-27.8-15.67-32.23-18.5-34.47-21.98-2.28-3.57-2.64-5.42-3.26-17-0.39-7.15-1.27-30.1-1.95-51-0.69-20.9-0.95-39.69-0.59-41.75 0.46-2.62 1.95-4.96 4.92-7.74 2.33-2.2 20.9-14.98 41.25-28.41 20.35-13.44 37.9-24.66 39-24.95zm-150 48.03c3.85-1.97 7.45-3.45 8-3.3 0.55 0.15 1.37 3.62 1.83 7.7 0.56 4.98 0.32 13.66-0.71 26.42-1.05 12.82-1.25 20.46-0.63 23.5 0.5 2.47 0.94 4.83 0.96 5.25 0.03 0.41 2.24 2.88 9.79 10.25l1.11 27c0.62 14.85 1.18 31.05 1.38 45l-23.16 9-0.05-4.5c-0.03-2.48-0.93-28.35-2.01-57.5-1.07-29.15-2.31-60.26-3.51-85.24zm-21.01 11.28l0.24 2.77c0.13 1.52 1.13 27.97 2.23 58.77 1.09 30.8 2.28 62.3 3.28 84l-24.87 10.28c-13.68 5.66-24.93 10.16-24.99 10-0.06-0.15-0.4-6.02-1.38-25.78l2.75-1.38c1.51-0.75 4.28-3.11 6.16-5.25 1.87-2.13 4.26-5.9 5.31-8.37 1.04-2.48 2.39-7.65 2.99-11.5 0.85-5.45 0.72-12.22-0.58-30.5-0.92-12.93-1.66-31.38-1.64-41 0.01-9.63 0.51-19.3 1.11-21.5 0.6-2.2 2.06-5.06 3.24-6.35 1.19-1.29 3.96-3.29 6.16-4.45 2.2-1.16 7.6-3.82 11.99-5.92zm578.89 126.11l3.56 2.08c1.96 1.15 8.51 4.89 14.56 8.32 6.05 3.44 27.2 15.39 47 26.56 19.8 11.16 39.27 22.14 50.54 28.46l-8.77 3.84c-4.83 2.11-13.5 5.78-19.27 8.16-5.78 2.37-21.08 8.66-57.5 23.6l-12-6.85c-6.6-3.77-27.53-15.56-46.5-26.2-18.98-10.64-35.85-20.12-40.5-22.8l22-14.38c12.1-7.9 27.6-18.06 34.44-22.58zm199.05 33.03c35.51-23.54 50.16-32.73 50.73-31.85 0.44 0.68 0.81 2.71 0.82 4.49 0.01 2.74-1.28 4.55-8.24 11.55-4.54 4.57-16.54 15.25-26.68 23.75-10.14 8.5-20.66 18.15-23.39 21.45-2.72 3.3-6.24 8.59-7.81 11.75-1.58 3.17-3.59 8.79-4.47 12.5-1.18 4.94-1.46 9.44-1.07 16.75 0.31 5.61 1.42 12.86 2.54 16.5 1.1 3.58 3.83 11.68 6.06 18 2.89 8.18 4.06 13.09 4.05 17-0.01 3.11-0.8 7.24-1.82 9.5-0.99 2.2-3.56 5.77-5.73 7.94-2.16 2.16-5.95 4.81-8.43 5.87-2.9 1.25-6.63 1.92-10.5 1.87-4.78-0.06-6.89-0.64-10.39-2.87-2.87-1.83-5.48-4.72-7.5-8.31-2.78-4.92-3.1-6.34-3.05-13.5 0.05-7.05 0.74-10 5.88-25 5.33-15.53 5.83-17.73 5.82-25.5-0.01-6.76-0.58-10.03-2.76-16-1.51-4.12-4.09-10.2-8.7-19.5l2.35-1.65c1.29-0.91 24.82-16.54 52.29-34.74zm-466.06-17.07c2.13-0.32 5.73-0.33 8-0.02 2.27 0.32 7.95 2.65 12.62 5.19 4.68 2.54 28.53 15.94 53 29.77 24.48 13.84 45.75 26.36 47.27 27.84 1.52 1.47 3.72 4.93 4.9 7.68 1.97 4.59 2.3 8.57 3.96 48.5 1 23.93 1.94 53.65 2.37 88.61l-3.02 4.95c-2.23 3.64-5.26 6.44-11.5 10.63-4.66 3.13-27.6 18.24-50.98 33.58-23.37 15.34-44.07 28.42-46 29.08-1.92 0.65-5.75 1.17-8.5 1.15-2.75-0.02-6.8-0.86-9-1.86-2.2-1-23.35-12.76-47-26.14-23.65-13.38-46.57-26.39-50.94-28.91-4.61-2.66-9.26-6.27-11.08-8.59-1.93-2.46-3.56-6.11-4.24-9.5-0.61-3.02-2.1-33.4-5.52-129.5l2.13-5c1.17-2.75 3.6-6.42 5.39-8.16 1.8-1.74 24.41-17.07 50.26-34.08 25.85-17 48.58-31.75 50.5-32.78 1.93-1.02 5.25-2.12 7.38-2.44zm-300.38 17.37c20.08-8.41 37.18-15.31 38-15.32 0.83-0.01 23.1 12.17 49.5 27.06 26.4 14.9 52.16 29.39 57.23 32.22 5.08 2.82 9.23 5.36 9.22 5.63 0 0.28-10.23 4.74-22.73 9.93-12.49 5.18-30.37 12.58-56.72 23.46l-6.5-3.54c-3.57-1.94-14.6-7.95-24.5-13.34-9.9-5.39-33.75-18.27-88-47.47l4-1.66c2.2-0.92 20.43-8.55 40.5-16.97zm484.35 20.73l3.08 1.84c1.69 1.01 26.47 15.09 107.07 60.73l-4 1.07c-2.54 0.67-5.36 2.54-7.75 5.14-2.06 2.25-4.22 5.77-4.8 7.83-0.58 2.07-1.46 8.03-1.97 13.25-0.5 5.23-0.92 12.32-0.94 15.75-0.02 3.44-0.57 8.62-1.23 11.5-0.65 2.89-2.23 6.49-3.5 8-1.81 2.16-3.17 2.75-6.31 2.75-3.2 0-4.4-0.55-6.04-2.75-1.12-1.51-2.54-4.32-3.15-6.25-0.77-2.45-0.85-8.44-0.25-20 0.48-9.07 0.77-18.86 0.65-21.75-0.11-2.88-1.22-7.56-2.46-10.39-1.24-2.83-4.05-6.79-6.25-8.8-2.2-2.01-7.37-5.93-11.5-8.71-4.12-2.78-16.27-9.91-27-15.85-10.72-5.94-24.13-13.32-40.1-22l8.23-5.68zm-522.85 18.16l8.5 4.52c4.68 2.48 23.58 12.7 42 22.7 18.43 10.01 38.35 20.84 55.06 29.98l-0.06 160.5 3.25 2.37c1.79 1.3 11.35 6.87 21.25 12.38 9.9 5.52 29.03 16.2 42.5 23.75 13.48 7.55 34.85 19.62 47.5 26.82 12.65 7.2 24.13 13.52 25.5 14.04 2.05 0.78 5.22-0.15 17.75-5.2 8.39-3.39 15.46-6.04 15.71-5.91 0.26 0.14-0.02 2.05-0.61 4.25-0.6 2.2-0.86 6.48-0.59 9.5 0.27 3.03 2.12 10.57 4.12 16.75 2.75 8.54 3.62 12.95 3.62 18.25 0 6.61-0.18 7.18-3.25 10.05-1.79 1.68-4.82 3.31-6.75 3.62-1.92 0.31-4.8 0.18-6.39-0.3-1.59-0.48-3.73-1.99-4.76-3.37-1.23-1.65-2.22-5.55-2.9-11.5-0.56-4.95-1.48-12.37-2.03-16.5-0.55-4.12-1.79-8.85-2.76-10.5-0.98-1.65-3.32-4.02-5.22-5.27-2.17-1.44-4.92-2.27-7.44-2.26-2.2 0.02-5.57 0.86-7.5 1.89-2.38 1.26-4.38 3.59-6.25 7.25-1.54 3.03-3.17 8.47-3.73 12.39-0.54 3.85-0.99 10.83-1.01 15.5-0.01 4.68-0.47 11.32-1.02 14.75-0.54 3.44-1.63 7.27-2.41 8.5-0.78 1.24-2.58 2.82-4 3.5-1.42 0.69-3.59 1.24-4.83 1.22-1.24-0.01-3-0.58-3.92-1.25-0.92-0.67-2.49-3.02-3.5-5.22-1.58-3.46-1.77-5.94-1.38-18.5 0.25-7.97 0.46-18.77 0.48-24 0.02-7.74-0.37-10.23-2.08-13.5-1.16-2.2-4.74-6.47-7.98-9.5-3.23-3.03-9.92-8.01-14.87-11.08-4.95-3.06-20.02-11.57-33.5-18.9-13.47-7.33-28.63-15.84-33.67-18.92-5.05-3.08-11.91-7.73-15.25-10.35-4.18-3.26-6.77-6.23-8.29-9.5-2.17-4.65-2.23-5.83-2.9-58.25-0.61-48.11-0.88-54.45-2.68-63-1.11-5.22-3.26-12.65-4.8-16.5-2.12-5.33-4.22-8.43-8.85-13.04-4.65-4.64-7.34-6.44-11.56-7.77-3.02-0.95-7.75-1.73-10.5-1.73-3.32 0-6.51 0.8-9.5 2.36-3.35 1.76-5.14 3.61-7 7.25-2.44 4.77-2.5 5.43-2.5 26.42 0 19.51-0.19 21.89-2 25.51-1.24 2.48-3.33 4.67-5.5 5.75-2.11 1.06-5.78 1.75-9.25 1.75-4.54 0-6.29-0.47-8.3-2.25-1.46-1.28-2.96-4.08-3.5-6.5-0.62-2.76-0.59-6.08 0.08-9.5 0.57-2.88 3.45-12.67 6.42-21.75 2.96-9.07 5.93-19.65 6.6-23.5 0.76-4.3 1.01-11.04 0.65-17.5-0.36-6.6-1.53-14.02-3.18-20-1.43-5.22-4.5-14.27-6.81-20.1zm194.5 26.75c5.22-2.15 9.8-3.93 10.18-3.97 0.37-0.04 0.94 4.77 1.25 10.68 0.32 5.91 1.51 36.4 2.64 67.75 1.13 31.35 1.92 58.73 1.74 60.85-0.31 3.83-0.35 3.87-8.81 7.23-4.68 1.86-8.57 3.28-8.65 3.15-0.08-0.13-0.87-20.93-1.75-46.23-0.88-25.3-1.9-50.73-2.26-56.5-0.52-8.32-1.04-10.86-2.5-12.25-1.03-0.98-3.38-1.75-5.34-1.75-2.74 0-3.87 0.6-5.2 2.75-1.6 2.59-1.6 5.57 0.07 51.25 0.98 26.67 1.86 53.19 2.13 69.35l-8 3.24c-4.4 1.79-17.56 7.34-50.5 21.41l0.5-146.28 32.5-13.38c17.87-7.37 36.77-15.15 42-17.3zm455.81 12.31c8.08-3.38 15.14-6.19 15.69-6.25 0.55-0.06 0.78 1.12 0.5 2.65-0.28 1.51-0.5 5.9-0.5 9.75 0 5.32 0.93 9.99 3.89 19.5 3.1 9.96 3.81 13.65 3.5 18.16-0.3 4.33-0.98 6.27-2.89 8.28-1.38 1.44-3.85 3.08-5.5 3.64-2.06 0.7-4.34 0.69-7.25-0.03-3.06-0.76-4.64-1.82-5.63-3.8-0.76-1.51-1.66-4.1-2-5.75-0.34-1.65-1.07-8.29-1.62-14.75-0.55-6.46-1.48-12.99-2.07-14.5-0.59-1.51-2.05-3.82-3.25-5.13-1.2-1.31-3.39-3.11-7.55-5.62zm-432.82 139.91l9.75 5.45c5.36 3.01 29.78 16.74 54.25 30.53 24.48 13.79 46.53 26.31 53.5 30.58l-7 3.11c-3.85 1.71-7.22 3.09-7.5 3.07-0.27-0.02-1.9 0.98-3.61 2.23-1.71 1.25-7.11 3.58-12 5.19-4.89 1.61-17.66 6.5-28.39 10.87-10.72 4.36-21.52 8.78-28.5 11.7l-45.5-25.61c-25.02-14.09-51.57-29.03-59-33.19-10.74-6.03-13.09-7.72-11.5-8.27 1.1-0.38 13.03-5.33 26.5-10.98 13.48-5.66 32.26-13.53 41.75-17.49zm367.51-707.93c-1.65 0.74-24.6 15.57-51 32.96-35.95 23.67-48.49 32.44-49.95 34.91-1.65 2.79-1.92 4.93-1.72 13.8 0.12 5.78 1.11 34.01 2.19 62.75 1.62 42.8 2.26 52.75 3.53 55 0.86 1.51 2.99 3.73 4.75 4.92 1.76 1.2 24.12 13.97 49.7 28.38 25.57 14.41 47.4 26.83 48.5 27.59 1.1 0.76 4.13 1.37 6.75 1.37 4.46-0.01 6.3-1.03 31-17.34 14.43-9.53 36.93-24.38 50-33 18.15-11.98 24.13-16.43 25.36-18.92 1.46-2.94 1.5-6.36 0.41-36.25-0.66-18.15-1.75-46.27-2.43-62.5-1-23.96-1.55-30.11-2.91-32.75-1.15-2.21-3.83-4.42-8.43-6.94-3.72-2.02-16.88-9.38-29.25-16.35-12.38-6.96-32.63-18.42-45-25.45-12.38-7.04-23.85-12.96-25.5-13.16-1.65-0.2-4.35 0.24-6 0.98zm-3 21.27c1.65-0.86 5.47-1.55 8.5-1.56 5.33 0 6.73 0.69 45.5 22.62 22 12.45 41.29 23.8 42.87 25.24 1.58 1.43 3.49 4.06 4.25 5.85 0.95 2.25 1.69 11.64 2.4 30.5 0.56 14.99 1.44 37.38 1.95 49.75 0.55 13.43 0.57 23.91 0.03 26-0.5 1.93-1.94 4.81-3.21 6.41-1.26 1.59-18.94 13.92-39.29 27.39-20.35 13.47-39.03 25.39-41.5 26.48-3.22 1.41-5.64 1.8-8.5 1.37-2.59-0.4-16.41-7.58-39-20.29-19.25-10.82-37.93-21.34-41.5-23.37-4.25-2.41-7.36-5.05-8.97-7.59-2.41-3.8-2.51-4.69-3.71-34.9-0.69-17.05-1.38-41.19-1.54-53.66-0.27-21.47-0.18-22.8 1.76-25.5 1.12-1.56 18.9-14.17 39.5-28.02 20.6-13.84 38.81-25.87 40.46-26.72zm145 211.34c-1.65 0.37-5.7 2.54-9 4.81-3.3 2.27-25.35 16.88-49 32.46-37.43 24.67-43.23 28.82-44.75 32.07-1.62 3.43-1.68 5.83-0.76 30.47 0.55 14.71 1.45 38.9 2 53.75 0.54 14.85 1.22 31.05 1.49 36 0.34 6.1 1.04 9.81 2.18 11.5 0.93 1.38 2.39 3.06 3.26 3.74 0.87 0.69 9.45 5.7 19.08 11.14 9.62 5.44 24.36 13.77 32.75 18.51 8.38 4.74 22.11 12.51 30.5 17.27 8.38 4.76 16.37 9.26 17.75 9.99 1.37 0.74 4.3 1.36 6.5 1.38 3.4 0.03 6.09-1.36 18-9.26 7.7-5.1 30.32-20.08 50.28-33.28 29.36-19.41 36.56-24.61 37.75-27.24 1.29-2.86 1.28-8.07-0.06-43.5-0.84-22.14-1.87-50.15-2.28-62.25-0.65-19.24-0.99-22.42-2.72-25.4-1.55-2.67-5.75-5.54-19.47-13.35-9.63-5.47-32.8-18.61-51.5-29.21-18.7-10.59-35.13-19.49-36.5-19.77-1.38-0.28-3.85-0.21-5.5 0.17zm-2.13 20.97c1.17-0.49 4.38-0.76 7.13-0.6 4.45 0.26 9.54 2.88 47 24.24 41.1 23.44 42.04 24.05 44.19 28.45 2.05 4.22 2.28 7.11 3.75 45.5 0.86 22.55 1.66 45.95 1.77 52 0.18 9.78-0.05 11.45-2.05 15-1.91 3.4-7.78 7.64-38.7 28-20.04 13.2-38.36 25.09-40.7 26.42-2.87 1.63-5.91 2.45-9.26 2.49-4.46 0.06-6.59-0.82-19.5-8.04-7.98-4.46-25.98-14.53-40-22.38-14.03-7.85-26.63-15.04-28-15.97-1.38-0.94-3.49-3.68-4.68-6.11-2.05-4.14-2.28-7.01-3.79-47.41-0.88-23.65-1.67-47.05-1.75-52-0.12-7.64 0.2-9.6 2.1-13 1.24-2.2 3.23-4.71 4.43-5.58 1.2-0.86 18.78-12.49 39.06-25.84 20.28-13.35 37.83-24.67 39-25.17zm-264.37-10.64c-1.38 0.75-23.2 15.01-48.5 31.68-25.3 16.68-47.58 31.85-49.5 33.72l-3.5 3.39c0.25 19.72 1.06 46.82 1.97 72.94 0.9 26.13 1.85 49.3 2.1 51.5 0.25 2.2 1.28 5.35 2.29 7 1.36 2.23 8.67 6.86 28.23 17.9 14.52 8.2 37.77 21.36 51.66 29.25 22.17 12.6 25.79 14.35 29.75 14.35 4.17 0 6.57-1.38 32.75-18.76 15.53-10.32 38.03-25.17 50-33 18.14-11.88 21.99-14.82 23.25-17.74 1.3-3.04 1.36-7.47 0.44-33.75-0.58-16.64-1.62-44.65-2.31-62.25-1.06-27.04-1.53-32.46-3-35-0.95-1.65-3.63-4.19-5.94-5.64-2.31-1.46-16.79-9.73-32.19-18.4-15.4-8.66-36.78-20.69-47.5-26.74-13.4-7.56-20.76-11.13-23.5-11.41-2.28-0.23-5.08 0.18-6.5 0.96zm0.28 19.73l6.11 0.02c5.78 0.01 6.88 0.45 20.61 8.19 7.97 4.5 26.84 15.18 41.93 23.73 26.19 14.86 27.53 15.76 29.72 20.06 2.19 4.31 2.36 6.29 3.82 45.5 0.84 22.55 1.59 45.95 1.66 52 0.11 9.2-0.19 11.66-1.87 15-1.77 3.54-6.3 6.8-38.77 28-20.22 13.2-38.62 25.12-40.88 26.49-3.12 1.89-5.45 2.48-9.61 2.43-5.3-0.05-7.04-0.93-46.5-23.32-22.55-12.8-41.81-24.02-42.8-24.94-0.99-0.91-2.44-3.46-3.23-5.66-1.04-2.9-1.85-15.13-2.95-44.5-0.84-22.27-1.61-45.22-1.72-51-0.17-8.84 0.12-11.13 1.83-14.5 1.12-2.2 3.8-5.29 5.95-6.86 2.15-1.58 20.29-13.62 40.31-26.75zm-125.29 224.11c-1.92 1.16-19.02 12.3-37.98 24.75-18.97 12.45-39.89 26.24-46.49 30.64-6.94 4.63-12.74 9.26-13.76 11-1.69 2.87-1.68 5.52 0.29 61.5 1.13 32.17 2.32 60.97 2.64 64 0.46 4.35 1.24 6.16 3.69 8.68 1.71 1.75 15.26 10.01 30.11 18.37 14.85 8.35 37.35 21.07 50 28.27 19.95 11.35 23.6 13.09 27.53 13.13 4.28 0.04 6.97-1.56 49.47-29.45 24.72-16.23 46.97-30.85 49.45-32.5 2.47-1.65 5.57-4.58 6.88-6.5 2.22-3.26 2.35-4.16 1.83-13-0.31-5.23-1.28-31.78-2.16-59-0.88-27.23-2.03-51.75-2.54-54.5-0.62-3.32-1.87-5.9-3.7-7.67-1.52-1.47-16.26-10.28-32.76-19.58-16.5-9.29-39.22-22.14-50.5-28.55-16.6-9.43-21.26-11.65-24.5-11.67-2.34-0.02-5.45 0.85-7.5 2.08zm0.92 19.71c0.87-0.38 4.28-0.7 7.58-0.72 5.38-0.04 6.88 0.46 14.5 4.82 4.68 2.67 22.68 12.85 40 22.62 17.33 9.77 32.55 18.48 33.83 19.36 1.28 0.88 3.17 3.4 4.2 5.6 1.65 3.53 2.09 9.79 3.78 54 1.19 30.98 1.58 51.33 1.03 53.5-0.49 1.92-2.11 4.91-3.61 6.64-1.5 1.73-18.03 13.17-36.73 25.43-18.7 12.26-36.47 23.79-39.5 25.63-4.5 2.72-6.5 3.32-11 3.29-5.08-0.03-6.77-0.76-22-9.43-9.07-5.17-27.3-15.46-40.5-22.88-13.2-7.42-25.24-14.66-26.75-16.09-1.51-1.43-3.17-4.28-3.69-6.34-0.51-2.07-1.82-26.03-2.89-53.25-1.08-27.23-1.62-50.63-1.21-52 0.41-1.38 1.43-3.85 2.27-5.5 1.12-2.23 11.51-9.58 40.31-28.5 21.33-14.03 39.5-25.81 40.38-26.18z"/>
		<path id="Path 0" class="s2" d="m732.57 155.25c-1.21 0.81-1.64 1.87-1.22 3 0.4 1.08 1.71 1.76 3.4 1.77 1.51 0.01 8.37 3 15.25 6.64 6.87 3.64 21.27 11.33 32 17.1 10.72 5.76 20.79 11.66 22.37 13.11 1.58 1.45 3.5 4.09 4.25 5.88 0.99 2.32 1.81 14.14 2.88 41.25 1.32 33.37 1.32 38.52 0.04 42.25-0.94 2.71-1.12 4.61-0.51 5.25 0.63 0.66 2-0.03 4.01-2 1.68-1.65 3.57-4.8 4.19-7 0.87-3.02 0.85-12.86-0.09-40-0.67-19.8-1.74-38.25-2.37-41-0.83-3.67-2.22-6.07-5.2-9-2.55-2.51-10.97-7.65-22.57-13.78-10.18-5.38-24.8-13.13-32.5-17.23-10.68-5.69-14.95-7.46-18.03-7.47-2.21-0.01-4.86 0.54-5.9 1.23zm140.5 233.78c-1.34 0.5-2.36 1.48-2.27 2.19 0.09 0.7 2.08 1.64 4.43 2.08 2.35 0.44 11.92 4.89 21.27 9.89 9.35 5 23.52 12.69 31.5 17.08 7.97 4.4 15.79 9.17 17.37 10.61 1.58 1.44 3.46 3.97 4.18 5.62 0.89 2.04 1.82 15.29 2.92 41.5 1.22 29.08 1.34 39.36 0.49 42-0.79 2.43-0.81 3.81-0.09 4.5q1.04 1.01 2.71-0.5c0.92-0.83 2.57-3.3 3.67-5.5 1.5-3.01 1.98-5.87 1.91-11.5-0.05-4.13-0.62-21.68-1.28-39-1.01-26.59-1.48-32.12-3.01-35.5-1-2.2-3.29-5.41-5.09-7.14-1.81-1.72-6.88-5.05-11.28-7.4-4.4-2.34-15.88-8.52-25.5-13.72-9.63-5.21-20.54-10.99-24.25-12.85-4.65-2.34-8.07-3.37-11-3.33-2.34 0.04-5.34 0.47-6.68 0.97zm-717.76 365.38c-2.44 2.1-2.81 3.13-2.81 7.9 0 4.1 0.5 6.02 2 7.62 1.1 1.17 3.01 2.12 4.25 2.1 1.24-0.02 3.14-1.04 4.22-2.28 1.08-1.24 2.09-3.9 2.25-5.91 0.15-2.01 0.05-4.59-0.22-5.73-0.28-1.13-1.29-2.98-2.25-4.09-0.96-1.11-2.4-2.02-3.19-2.02-0.79 0-2.7 1.09-4.25 2.41zm317.18-588.16c-0.34 1.24-0.48 2.32-0.31 2.41 0.18 0.08 3.69 1.92 7.82 4.07 4.12 2.16 18.97 10.1 33 17.64 14.36 7.72 26.85 15.12 28.59 16.92 2.17 2.25 3.42 4.86 4.18 8.71 0.59 3.02 1.61 21.02 2.26 40 0.97 28.66 0.94 35.22-0.18 38.75-1.07 3.38-1.1 4.51-0.11 5.5 0.98 1 1.75 0.75 3.78-1.25 1.41-1.38 3.3-4.53 4.21-7 1.51-4.12 1.55-7.6 0.4-41-0.86-25.25-1.67-37.89-2.64-41-0.9-2.89-2.94-5.94-5.69-8.53-2.7-2.53-14.35-9.39-31.3-18.42-14.85-7.91-29.14-15.44-31.75-16.72-2.61-1.28-6.3-2.33-8.2-2.33-2.72 0-3.57 0.47-4.06 2.25zm-7.55 60.68c-0.62 1.07-1.09 2.31-1.05 2.75 0.04 0.45 0.71 1.72 1.48 2.82 1.26 1.79 1.59 1.84 3.07 0.5 0.91-0.83 1.64-2.4 1.62-3.5-0.01-1.1-0.6-2.57-1.29-3.27-0.7-0.69-1.59-1.26-1.99-1.25-0.4 0.01-1.23 0.89-1.84 1.95zm-13.44 6.52c-1.81 1.85-2.42 3.59-2.45 7-0.04 3.86 0.4 4.93 2.95 7.05 2.06 1.72 3.7 2.32 5.25 1.91 1.24-0.32 3.06-1.56 4.04-2.75 1.07-1.29 1.79-3.78 1.79-6.16-0.01-2.44-0.8-5.07-2.05-6.75-1.29-1.75-2.96-2.75-4.58-2.75-1.4 0-3.63 1.1-4.95 2.45zm-90 8.22c-0.46 0.36-0.78 2.05-0.71 3.75 0.07 1.69 0.82 3.64 1.67 4.33 1.28 1.04 1.83 0.82 3.29-1.31 1.47-2.16 1.55-2.94 0.5-5-0.69-1.34-1.85-2.44-2.58-2.44-0.74 0-1.71 0.3-2.17 0.67zm307.72 25.08c0.48 17.48 0.78 20.24 2.66 24 1.17 2.34 3.58 5.31 5.37 6.6 1.79 1.3 8.87 5.28 15.75 8.86 6.87 3.57 21.39 11.29 32.25 17.14 10.86 5.86 20.54 10.53 21.5 10.39 0.96-0.14 1.9-1.16 2.08-2.25 0.26-1.61-1.92-3.25-11.5-8.66-6.51-3.67-19.93-10.93-29.83-16.14-9.9-5.21-20.36-10.99-23.24-12.83q-5.24-3.36-6.68-6.86c-0.96-2.34-1.63-9.23-2.01-20.75-0.31-9.49-0.8-17.7-1.07-18.25-0.28-0.55-1.69-1-3.16-1h-2.65zm-263.92-9c-0.36 0.96-0.35 9.96 0.02 20 0.57 15.36 0.99 18.88 2.68 22.25 1.1 2.2 3.46 5.06 5.25 6.36 1.78 1.29 17.65 9.94 35.25 19.21 17.6 9.28 32.9 16.88 34 16.9 1.45 0.02 2-0.63 2-2.36 0-1.97-1.51-3.22-8.5-7.07-4.68-2.57-17.28-9.33-28-15.02-10.73-5.7-22.43-12.03-26-14.07-3.74-2.13-7.03-4.82-7.75-6.33-0.69-1.44-1.49-7.91-1.79-14.37-0.29-6.46-0.74-14.56-1-18-0.25-3.44-0.69-6.93-0.96-7.75-0.28-0.83-1.41-1.5-2.53-1.5-1.11 0-2.32 0.79-2.67 1.75zm204.95 140.3c-2.26 0.66-3.17 1.49-2.99 2.7 0.19 1.28 1.48 1.88 4.77 2.25 2.74 0.3 6.94 1.97 10.73 4.25 3.43 2.06 6.57 3.76 6.99 3.78 0.41 0.02 9.07 4.6 19.25 10.19 10.17 5.59 20.97 11.37 24 12.84 3.02 1.47 6.97 4.2 8.77 6.06 1.8 1.86 3.7 4.73 4.21 6.38 0.51 1.65 1.67 20.1 2.57 41 1.49 34.91 1.5 38.33 0.02 42-1.06 2.65-1.27 4.34-0.61 5q0.99 1 3.1-1c1.16-1.1 3.06-3.58 4.22-5.5 1.89-3.13 2.08-4.81 1.87-16-0.13-6.88-0.83-24.88-1.54-40-1.15-24.24-1.55-27.97-3.37-31.5-1.13-2.2-3.34-5.16-4.9-6.59-1.56-1.42-4.87-3.73-7.34-5.12-2.48-1.4-14.63-7.85-27-14.34-12.38-6.49-24.64-12.85-27.25-14.13-2.62-1.27-6.44-2.52-8.5-2.77-2.07-0.25-5.22-0.03-7 0.5zm-266 8.96c-1.24 0.54-2.14 1.71-2 2.59 0.17 1.13 1.58 1.72 4.75 1.99 3.47 0.29 9.86 3.32 28 13.26 12.92 7.09 27.73 15.08 32.9 17.77 5.17 2.68 10.19 6 11.16 7.38 0.97 1.37 2.25 3.74 2.85 5.25 0.6 1.53 1.76 19.55 2.59 40.5 1.11 27.76 1.22 38.68 0.41 41.25-0.6 1.92-0.82 4.06-0.5 4.75 0.32 0.69 1.04 1.25 1.59 1.25 0.55 0 2.39-2.14 4.1-4.75l3.1-4.75c-0.92-35.65-1.44-52.75-1.75-61-0.31-8.25-1.1-17-1.76-19.44-0.66-2.45-2.76-6.14-4.69-8.23-1.93-2.09-6.43-5.42-10-7.41-3.58-2-10.1-5.54-14.5-7.88-4.4-2.34-15.88-8.46-25.5-13.6-15.1-8.06-18.26-9.38-23-9.63-3.03-0.16-6.52 0.15-7.75 0.7zm465.44 74.24c-0.26 0.69-0.15 9.8 0.25 20.25 0.49 13.12 1.18 20.08 2.2 22.5 0.81 1.92 3.03 4.76 4.92 6.3 1.89 1.54 14.69 8.86 28.44 16.27 13.75 7.41 28.6 15.33 33 17.6 5 2.59 8.65 3.89 9.75 3.48 0.96-0.36 1.75-1.55 1.75-2.65 0-1.57-3.73-3.98-17.25-11.17-9.49-5.05-24.68-13.18-33.75-18.07-9.08-4.89-17.52-10.1-18.75-11.57-1.24-1.48-2.46-4.04-2.71-5.69-0.25-1.65-0.75-10.65-1.1-20-0.35-9.35-0.82-17.34-1.04-17.75-0.22-0.41-1.49-0.75-2.82-0.75-1.33 0-2.63 0.56-2.89 1.25zm-264.03 10c-0.27 0.69-0.27 9.12 0 18.75 0.28 9.62 1.01 19.08 1.63 21 0.61 1.92 2.26 4.79 3.66 6.36 1.4 1.58 4.8 4.12 7.55 5.65 2.75 1.53 18.27 9.86 34.5 18.51 20.43 10.89 29.93 15.45 30.89 14.85 0.77-0.48 1.55-1.32 1.74-1.87 0.18-0.55 0-1.47-0.4-2.04-0.4-0.58-5.23-3.56-10.73-6.62-5.5-3.07-18.78-10.19-29.5-15.82-10.73-5.64-21.62-11.66-24.2-13.38-2.59-1.73-5.34-4.27-6.13-5.64-0.78-1.38-1.7-6.1-2.04-10.5-0.34-4.4-0.67-12.28-0.75-17.5-0.07-5.23-0.52-10.29-1.01-11.25-0.48-0.96-1.74-1.75-2.79-1.75-1.05 0-2.14 0.56-2.42 1.25zm-263.53 8c-0.76 0.88-0.85 7.07-0.3 20.75 0.73 18.22 0.94 19.76 3.23 23.41 1.34 2.15 3.56 4.69 4.94 5.64 1.37 0.96 11.95 6.89 23.5 13.18 11.55 6.28 26.51 14.2 33.25 17.6 10.2 5.14 12.51 5.96 13.81 4.92 0.86-0.69 1.42-1.86 1.25-2.61-0.17-0.74-5.49-4.15-11.81-7.57-6.33-3.43-16.45-8.95-22.5-12.28-6.05-3.33-15.5-8.39-21-11.24-5.5-2.85-11.06-6.17-12.35-7.37-1.29-1.2-2.92-3.31-3.62-4.68-0.8-1.57-1.53-9.36-1.98-21q-0.71-18.51-1.88-19.23c-0.65-0.41-1.69-0.75-2.31-0.75-0.63-0.01-1.63 0.54-2.23 1.23zm498.96 112.63c-2.42 2.44-2.98 3.72-2.55 5.87 0.3 1.51 1.54 3.58 2.75 4.6 1.21 1.01 12.78 7.82 25.71 15.12 12.92 7.3 24.4 13.76 25.5 14.35 1.59 0.85 3.59 0.42 9.76-2.12 4.27-1.76 7.77-3.65 7.77-4.2 0-0.55-13.51-8.76-30.02-18.25-16.51-9.49-31.32-17.53-32.92-17.87-2.37-0.5-3.47-0.04-6 2.5zm-295.09 28.96c-1.56 0.47-2.5 1.49-2.5 2.71 0 1.56 0.89 2.06 4.5 2.52 2.74 0.35 9.18 3.03 16.5 6.88 6.6 3.47 12.9 6.86 14 7.54 1.1 0.68 6.95 3.83 13 7 6.05 3.18 14.56 7.85 18.92 10.39 4.36 2.54 8.91 5.97 10.1 7.62 1.2 1.65 2.43 3.67 2.74 4.5 0.31 0.83 1.04 12.97 1.64 27 0.59 14.02 1.31 31.46 1.59 38.75 0.4 10.43 0.19 13.99-0.99 16.75-1.39 3.22-1.37 3.54 0.25 4 0.96 0.28 2.36-0.06 3.1-0.75 0.74-0.69 2.29-2.83 3.43-4.75 1.51-2.52 2.08-5.17 2.06-9.5-0.01-3.3-0.35-15.67-0.74-27.5-0.4-11.83-1.14-27.24-1.66-34.25-0.67-9.09-1.49-13.83-2.85-16.5-1.05-2.06-3.19-4.94-4.75-6.4-1.56-1.45-6.67-4.55-11.34-6.89-4.68-2.33-10.08-5.23-12-6.45-1.93-1.21-7.33-4.15-12-6.52-4.68-2.37-13.23-6.94-19-10.15-8.3-4.62-11.66-5.94-16-6.3-3.03-0.25-6.63-0.12-8 0.3zm441 66.89c-0.82 0.32-2.27 1.52-3.22 2.68-1.17 1.42-1.73 3.92-1.75 7.84-0.03 4.7 0.42 6.3 2.47 8.75 1.76 2.11 3.39 3 5.5 3 1.65 0 3.9-0.45 5-1 1.1-0.55 2.67-2.35 3.5-4 0.82-1.65 1.5-5.03 1.5-7.5 0-3.67-0.56-5.06-3-7.5-1.96-1.96-3.96-2.97-5.75-2.92-1.52 0.04-3.43 0.34-4.25 0.65zm-112.54 9.52c-0.41 1.42-0.15 2.52 0.7 2.98 0.73 0.41 1.67 0.75 2.09 0.75 0.41 0.01 1.18-0.77 1.71-1.73 0.65-1.19 0.57-2.16-0.25-3.02-0.67-0.69-1.75-1.26-2.41-1.25-0.66 0.01-1.48 1.03-1.84 2.27zm-9.8 6.5c-0.23 0.41-0.74 2.1-1.12 3.75-0.49 2.11-0.23 3.52 0.88 4.75 0.87 0.96 2.39 1.75 3.38 1.75 0.99 0 2.34-0.56 3.01-1.25 0.67-0.69 1.22-2.6 1.22-4.25 0-1.65-0.57-3.57-1.27-4.27-0.69-0.69-2.25-1.26-3.46-1.25-1.21 0.01-2.4 0.36-2.64 0.77zm-382.08 9.75c-0.32 0.83-0.34 7.69-0.05 15.25 0.3 7.56 0.75 16.45 1.01 19.75 0.3 3.96 1.24 7.19 2.75 9.5 1.27 1.92 4.08 4.67 6.25 6.09 2.18 1.43 8.46 4.98 13.96 7.89 5.5 2.91 13.82 7.3 18.5 9.76 4.67 2.45 12.77 6.75 18 9.55 5.22 2.8 10.62 5.67 12 6.39 1.37 0.72 3.51 1.31 4.75 1.31 1.23 0.01 2.41-0.55 2.6-1.24 0.19-0.69 0.19-1.81 0-2.5-0.19-0.69-3.39-2.77-7.1-4.63-3.72-1.85-11.7-6.07-17.75-9.37-6.05-3.3-18.2-9.83-27-14.52-10.64-5.66-16.65-9.47-17.94-11.37-1.64-2.42-2.06-5.6-2.77-20.86-0.46-9.9-1.05-19.01-1.31-20.25-0.34-1.58-1.2-2.25-2.9-2.25-1.33 0-2.68 0.67-3 1.5zm321.26 4.25c-1.32 3.05-1.85 5.83-1.49 7.75 0.32 1.65 1.72 4.24 3.11 5.75l2.54 2.75c4.76-3.18 6.41-5.44 7-7.5q1-3.5 0-7c-0.55-1.92-1.68-4.17-2.5-5-0.83-0.83-2.65-1.5-4.05-1.5-2.08 0-2.92 0.87-4.61 4.75zm165.16-2.55c-0.77 0.66-1.31 2.46-1.2 4 0.11 1.64 1.13 3.42 2.45 4.29 1.9 1.26 2.55 1.28 4.25 0.13 1.1-0.74 2.12-2.65 2.27-4.23 0.15-1.59-0.3-3.47-1-4.18-0.7-0.72-2.2-1.28-3.32-1.25-1.13 0.02-2.68 0.58-3.45 1.24zm-740.5 12.47c-0.46 0.36-0.78 2.28-0.71 4.25 0.06 1.97 0.7 4.14 1.41 4.83 0.71 0.69 2.08 1.03 3.05 0.75 0.96-0.27 1.88-1.51 2.04-2.75 0.16-1.24-0.07-3.49-0.5-5-0.5-1.71-1.48-2.75-2.63-2.75-1 0-2.2 0.3-2.66 0.67zm226.85 114.34c-1.19 0.49-2.9 1.92-3.81 3.19-1.06 1.47-1.47 3.38-1.13 5.3 0.29 1.65 1.1 3.5 1.81 4.12 0.7 0.61 13.31 7.92 28.03 16.25l26.75 15.13c13.21-5.04 16.92-6.89 16.77-7.36-0.15-0.47-7.47-5-16.27-10.08-8.8-5.07-23.43-13.35-32.5-18.4-9.08-5.05-16.73-9.15-17-9.11-0.28 0.04-1.47 0.47-2.65 0.96z"/>
	</g>
</svg>